<svg version="1.2" xmlns="http://www.w3.org/2000/svg" viewBox="0 0 180 180" width="180" height="180">
	<style>
		.s0 { fill: #179d91 } 
		.s1 { fill: #fefefe } 
	</style>
	<path id="Forma 1" fill-rule="evenodd" class="s0" d="m90 180c-49.77 0-90-40.23-90-90 0-49.77 40.23-90 90-90 49.77 0 90 40.23 90 90 0 49.77-40.23 90-90 90z"/>
	<g id="&lt;Group&gt;">
		<g id="&lt;Group&gt;">
			<g id="&lt;Group&gt;">
				<path id="&lt;Compound Path&gt;" fill-rule="evenodd" class="s1" d="m107.6 69.28c-0.05-15.25 0.03-19.41-0.13-35.01l9.77 0.01c0 0 0 0.58-0.01 1.55v65.88c-4.02 35.47-39.78 57.98-71.93 38.74-42.87-25.67-22.47-91.4 27.61-88.43 15.72 0.94 21.95 5.24 33.68 17.26 0.17 0.18 0.98 1.07 0.98 1.07 0.03-0.33 0.03-0.74 0.03-1.07zm0.29 30.23c0-21.22-17.16-38.37-38.38-38.37-21.22 0-38.37 17.15-38.37 38.37 0 21.22 17.15 38.37 38.37 38.37 21.22 0 38.38-17.15 38.38-38.37z"/>
			</g>
		</g>
		<g id="&lt;Group&gt;">
			<path id="&lt;Path&gt;" class="s1" d="m107.07 146.81l9.15 0.01v-25.34c-1.53 2.8-1.87 3.44-4.66 7.26-0.81 1.11-3.61 4.73-4.36 5.26z"/>
		</g>
		<path id="&lt;Path&gt;" class="s1" d="m120.76 83.84c6.83-13.29 21.94-21.34 36.85-17.25v-10.13c-9.99-1.46-19.65-0.51-28.34 4.85-1.98 1.22-7.64 5.82-8.51 7.71z"/>
		<path id="&lt;Path&gt;" fill-rule="evenodd" class="s1" d="m130.88 146.22c-4.71 0-8.52-3.81-8.52-8.52 0-4.71 3.81-8.52 8.52-8.52 4.72 0 8.52 3.81 8.52 8.52 0 4.71-3.8 8.52-8.52 8.52z"/>
	</g>
</svg>