<svg version="1.2" xmlns="http://www.w3.org/2000/svg" viewBox="0 0 192 192" width="192" height="192">
	<title>Proyecto nuevo</title>
	<style>
		.s0 { fill: #c6c5b9 } 
		.s1 { fill: #a9bfce } 
		.s2 { fill: #212449 } 
		.s3 { fill: #0f2c43 } 
		.s4 { fill: #6c6b5c } 
	</style>
	<g id="&lt;Group&gt;">
		<g id="&lt;Group&gt;">
			<path id="&lt;Path&gt;" class="s0" d="m51.9 136h45.5c0-25.1-20.3-46-45.3-46z"/>
		</g>
		<g id="&lt;Group&gt;">
			<path id="&lt;Path&gt;" class="s1" d="m3.6 135.9l48.4 0.1c0 25.2-21.7 45.5-48.6 45.5z"/>
		</g>
		<g id="&lt;Group&gt;">
			<path id="&lt;Path&gt;" class="s2" d="m99.8 1.1h-96.3v44.9h0.2c0.8 24.5 22.1 44 48.4 44l-0.3-44h45.5v0.3h2.6c24.7 0.2 44.7 20.3 44.7 45.1 0 24.9-20.2 45-45.1 45q-1.1 0-2.2 0v45.2c0.6 0 1.2 0 1.8 0 49.9 0 90.3-40.4 90.3-90.2 0-49.7-40-89.9-89.6-90.3z"/>
		</g>
	</g>
</svg>