<svg version="1.2" xmlns="http://www.w3.org/2000/svg" viewBox="0 0 77 77" width="77" height="77">
	<title>Proyecto nuevo</title>
	<style>
		.s0 { fill: #fefefe } 
		.s1 { fill: #aacf37 } 
	</style>
	<g id="&lt;Group&gt;">
		<g id="&lt;Group&gt;">
			<path id="&lt;Compound Path&gt;" class="s0" d="m53.1 10.7c-0.3-3.6-3.1-5.4-5.8-6.3-8.5-2.9-19.1-1-26 2.1-7.2 3.2-13 8.4-16.4 17-3.5 8.8-2.9 19.4 2.7 26.3 3.1 3.8 7.7 6.2 12.6 6.4 9 0.3 16.1-6.7 16-14.5 0-1.3-0.1-2.8 0-4.5 0.1-7.9 4.4-15.2 11.4-18.9 2.9-1.5 5.6-3.9 5.5-7.6z"/>
		</g>
		<g id="&lt;Group&gt;">
			<g id="&lt;Group&gt;">
				<path id="&lt;Compound Path&gt;" class="s0" d="m85 47.1l1-1.1c2.2 2.1 4.2 3 7.2 3 3 0 5.1-1.7 5.1-4 0-2.2-1.1-3.4-5.7-4.3-4.8-1-6.8-2.6-6.8-5.7v-0.1c0-3 2.7-5.3 6.5-5.3 2.9 0 4.8 0.9 6.9 2.5l-1 1.2c-1.9-1.7-3.8-2.3-6-2.3-2.9 0-4.9 1.7-4.9 3.8v0.1c0 2.1 1.1 3.4 5.9 4.4 4.6 0.9 6.6 2.6 6.6 5.5v0.1c0 3.2-2.8 5.5-6.7 5.5-3.2 0-5.7-1.1-8.1-3.3z"/>
				<path id="&lt;Compound Path&gt;" fill-rule="evenodd" class="s0" d="m102.8 39.1v-0.1c0-5.5 4.1-10.4 10.2-10.4 6.1 0 10.1 4.9 10.1 10.4 0 5.5-4.1 10.4-10.2 10.4-6.1 0-10.1-4.8-10.1-10.3zm18.7 0v-0.1c0-5-3.6-9.1-8.6-9.1-5 0-8.5 4.1-8.5 9.1 0 5 3.6 9.1 8.6 9.1 5 0 8.5-4.1 8.5-9z"/>
				<path id="&lt;Compound Path&gt;" class="s0" d="m127.3 39.1v-0.1c0-5.7 4.2-10.4 10.1-10.4 3.6 0 5.7 1.3 7.8 3.2l-1.1 1.1c-1.7-1.7-3.8-3-6.8-3-4.8 0-8.5 4-8.5 9.1 0 5.1 3.7 9.1 8.6 9.1 2.9 0 4.8-1.1 6.9-3.2l1 1c-2.1 2.1-4.4 3.5-8 3.5-5.8 0-10-4.6-10-10.3z"/>
				<path id="&lt;Compound Path&gt;" class="s0" d="m149.6 28.9h1.5v20.2h-1.5z"/>
				<path id="&lt;Compound Path&gt;" fill-rule="evenodd" class="s0" d="m164.9 28.8h1.5l9.4 20.3h-1.7l-2.5-5.7h-11.9l-2.6 5.7h-1.5zm6 13.3l-5.3-11.7-5.4 11.7z"/>
				<path id="&lt;Compound Path&gt;" class="s0" d="m180 28.9h1.5v18.8h11.9v1.4h-13.4z"/>
				<path id="&lt;Compound Path&gt;" class="s1" d="m197.7 28.9h2.1l12.7 16.2v-16.2h2.2v20.2h-1.8l-13-16.5v16.5h-2.2z"/>
				<path id="&lt;Compound Path&gt;" class="s1" d="m220.4 28.9h14.6v2.1h-12.3v6.9h11v2.1h-11v7h12.4v2.1h-14.7z"/>
				<path id="&lt;Compound Path&gt;" class="s1" d="m239.7 28.9h14.5v2.1h-12.2v7.2h10.9v2.1h-10.9v8.8h-2.3z"/>
			</g>
		</g>
		<g id="&lt;Group&gt;">
			<path id="&lt;Path&gt;" class="s1" d="m29.2 58.9c6.9-3.6 11.3-10.9 11.4-18.8 0-1.7-0.1-3.2-0.1-4.5-0.1-7.8 7-14.8 16-14.5 5 0.1 9.5 2.6 12.7 6.4 5.5 6.9 6.1 17.5 2.6 26.3-3.4 8.6-9.2 13.8-16.4 17-6.9 3.1-17.5 5-26 2.1-2.7-0.9-5.5-2.7-5.8-6.3 0-3.7 2.7-6.2 5.6-7.7z"/>
		</g>
		<g id="&lt;Group&gt;">
			<path id="&lt;Compound Path&gt;" class="s0" d="m117.4 61h-2.3v-0.5h5v0.5h-2.3v6.1h-0.4z"/>
			<path id="&lt;Compound Path&gt;" class="s0" d="m124.1 60.5h4.7v0.5h-4.2v2.6h3.7v0.4h-3.7v2.7h4.2v0.4h-4.7z"/>
			<path id="&lt;Compound Path&gt;" fill-rule="evenodd" class="s0" d="m132.8 60.5h2.8c0.8 0 1.5 0.3 1.8 0.7 0.4 0.3 0.5 0.8 0.5 1.2 0 1.1-0.8 1.8-1.9 1.9l2.2 2.8h-0.6l-2.1-2.7h-2.2v2.7h-0.5zm2.7 3.5c1.1 0 2-0.6 2-1.5v-0.1c0-0.9-0.7-1.4-1.9-1.4h-2.3v3z"/>
			<path id="&lt;Compound Path&gt;" fill-rule="evenodd" class="s0" d="m144.6 60.5h0.5l3 6.6h-0.5l-0.9-1.8h-3.8l-0.9 1.8h-0.5zm2 4.4l-1.8-3.8-1.7 3.8z"/>
			<path id="&lt;Compound Path&gt;" fill-rule="evenodd" class="s0" d="m152 60.5h2.4c1.4 0 2.4 0.8 2.4 2.1 0 1.4-1.2 2.1-2.6 2.1h-1.7v2.4h-0.5zm2.3 3.7c1.2 0 2-0.6 2-1.6 0-1.1-0.8-1.6-2-1.6h-1.8v3.2z"/>
			<path id="&lt;Compound Path&gt;" class="s0" d="m160.8 60.5h0.5v6.6h-0.5z"/>
			<path id="&lt;Compound Path&gt;" fill-rule="evenodd" class="s0" d="m168.2 60.5h0.5l3.1 6.6h-0.6l-0.8-1.8h-3.9l-0.8 1.8h-0.5zm1.9 4.4l-1.7-3.8-1.8 3.8z"/>
			<path id="&lt;Compound Path&gt;" fill-rule="evenodd" class="s0" d="m180.9 60.5h2.7c0.9 0 1.5 0.3 1.9 0.7 0.3 0.3 0.5 0.8 0.5 1.2 0 1.1-0.8 1.8-1.9 1.9l2.1 2.8h-0.6l-2.1-2.7h-2.1v2.7h-0.5zm2.7 3.5c1.1 0 1.9-0.6 1.9-1.5v-0.1c0-0.9-0.7-1.4-1.9-1.4h-2.2v3z"/>
			<path id="&lt;Compound Path&gt;" class="s0" d="m190.1 60.5h4.7v0.5h-4.2v2.6h3.8v0.4h-3.8v2.7h4.3v0.4h-4.8z"/>
			<path id="&lt;Compound Path&gt;" class="s0" d="m198.9 60.5h0.4l4.6 5.8v-5.8h0.5v6.6h-0.4l-4.6-5.8v5.8h-0.5z"/>
			<path id="&lt;Compound Path&gt;" fill-rule="evenodd" class="s0" d="m211.3 60.5h0.4l3.1 6.6h-0.5l-0.9-1.8h-3.9l-0.8 1.8h-0.5zm2 4.4l-1.8-3.8-1.7 3.8z"/>
			<path id="&lt;Compound Path&gt;" class="s0" d="m218.6 60.5h0.5v6.2h3.9v0.4h-4.4z"/>
		</g>
		<path id="&lt;Path&gt;" fill-rule="evenodd" class="s0" d="m15.6 68.2c-2.6 0-4.7-2-4.7-4.6 0-2.6 2.1-4.6 4.7-4.6 2.5 0 4.6 2 4.6 4.6 0 2.6-2.1 4.6-4.6 4.6z"/>
	</g>
</svg>