<svg version="1.2" xmlns="http://www.w3.org/2000/svg" viewBox="0 0 96 96" width="96" height="96">
	<style>
		.s0 { fill: #ffffff;stroke: #979593;stroke-miterlimit:10;stroke-width: 2 } 
		.s1 { fill: none;stroke: #979593;stroke-miterlimit:10;stroke-width: 2 } 
		.s2 { fill: #c8c6c4 } 
	</style>
	<path class="s0" d="m67.17 7h-40.17c-1.1 0-2 0.9-2 2v78c0 1.1 0.9 2 2 2h58c1.1 0 2-0.9 2-2v-60.17c0-0.53-0.21-1.04-0.59-1.42l-17.82-17.82c-0.38-0.38-0.89-0.59-1.42-0.59z"/>
	<path fill-rule="evenodd" class="s1" d="m67 7v18c0 1.1 0.9 2 2 2h18"/>
	<path class="s2" d="m71 61h-31v-2h31c0.55 0 1 0.45 1 1 0 0.55-0.45 1-1 1zm0-6h-31v-2h31c0.55 0 1 0.45 1 1 0 0.55-0.45 1-1 1zm0-6h-31v-2h31c0.55 0 1 0.45 1 1 0 0.55-0.45 1-1 1zm0-6h-31v-2h31c0.55 0 1 0.45 1 1 0 0.55-0.45 1-1 1zm0 24h-31v-2h31c0.55 0 1 0.45 1 1 0 0.55-0.45 1-1 1z"/>
</svg>