<svg version="1.2" xmlns="http://www.w3.org/2000/svg" viewBox="0 0 96 96" width="96" height="96">
	<style>
		.s0 { fill: #ffffff;stroke: #979593;stroke-miterlimit:10;stroke-width: 2 } 
		.s1 { fill: none;stroke: #979593;stroke-miterlimit:10;stroke-width: 2 } 
		.s2 { fill: #c8c6c4 } 
		.s3 { fill: #f70000 } 
		.s4 { fill: #ffffff } 
	</style>
	<path class="s0" d="m67.17 7h-40.17c-1.1 0-2 0.9-2 2v78c0 1.1 0.9 2 2 2h58c1.1 0 2-0.9 2-2v-60.17c0-0.53-0.21-1.04-0.59-1.42l-17.82-17.82c-0.38-0.38-0.89-0.59-1.42-0.59z"/>
	<path fill-rule="evenodd" class="s1" d="m67 7v18c0 1.1 0.9 2 2 2h18"/>
	<path class="s2" d="m31.05 78.18c-2.9-2.91 0.24-6.91 8.78-11.15l5.38-2.67 2.09-4.58c1.15-2.52 2.87-6.63 3.82-9.14l1.73-4.55-1.19-3.37c-1.46-4.15-1.99-10.38-1.06-12.62 1.26-3.03 5.38-2.72 7 0.53 1.28 2.54 1.15 7.14-0.36 12.94l-1.24 4.76 1.09 1.85c0.6 1.01 2.35 3.43 3.89 5.36l2.89 3.6 3.61-0.47c11.44-1.49 15.36 1.05 15.36 4.69 0 4.59-8.99 4.97-16.53-0.33-1.7-1.19-2.86-2.38-2.86-2.38 0 0-4.73 0.96-7.06 1.59-2.4 0.65-3.6 1.05-7.12 2.24 0 0-1.23 1.79-2.04 3.1-2.99 4.85-6.48 8.86-8.98 10.33-2.79 1.63-5.72 1.75-7.2 0.27zm4.57-1.63c1.64-1.01 4.94-4.93 7.24-8.56l0.92-1.47-4.22 2.12c-6.52 3.28-9.51 6.38-7.96 8.25 0.88 1.05 1.92 0.96 4.02-0.34zm42.37-11.89c1.6-1.12 1.37-3.38-0.44-4.29-1.41-0.71-2.54-0.86-6.2-0.8-2.24 0.15-5.85 0.6-6.47 0.74 0 0 1.99 1.37 2.87 1.88 1.17 0.67 4.02 1.91 6.1 2.55 2.06 0.63 3.24 0.56 4.14-0.08zm-17.03-7.09c-0.97-1.01-2.62-3.14-3.66-4.71-1.37-1.8-2.05-3.06-2.05-3.06 0 0-1 3.21-1.82 5.14l-2.55 6.31-0.74 1.44c0 0 3.93-1.29 5.94-1.82 2.12-0.55 6.42-1.4 6.42-1.4zm-5.49-22.02c0.25-2.07 0.35-4.14-0.31-5.18-1.85-2.02-4.08-0.34-3.7 4.46 0.13 1.62 0.53 4.38 1.06 6.08l0.98 3.09 0.69-2.33c0.37-1.28 0.95-4.03 1.28-6.12z"/>
	<path class="s3" d="m10.3 74.42h34.4c2.37 0 4.3-1.63 4.3-3.64v-29.12c0-2.01-1.93-3.64-4.3-3.64h-34.4c-2.37 0-4.3 1.63-4.3 3.64v29.12c0 2.01 1.93 3.64 4.3 3.64z"/>
	<path id="PDF" class="s4" aria-label="PDF"  d="m15.3 63h-2.6v-13.9h3.7q1.4 0 2.6 0.4 1.2 0.4 1.9 1.5 0.6 1 0.6 2.9 0 1.4-0.5 2.6-0.5 1.2-1.6 2-1.1 0.8-2.9 0.8h-1.2zm1-12h-1v6.1h1q1.3 0 2-0.8 0.7-0.8 0.7-2.3 0-1.5-0.6-2.2-0.6-0.8-2.1-0.8zm10.9 12h-3.6v-14h3.6q3 0 4.7 1.7 1.6 1.7 1.6 5.1 0 2.2-0.7 3.8-0.7 1.6-2.1 2.5-1.5 0.9-3.5 0.9zm-0.1-12h-0.9v9.8h0.9q1.1 0 1.9-0.5 0.7-0.4 1.1-1.1 0.5-0.7 0.6-1.5 0.2-0.9 0.2-1.8 0-1.3-0.3-2.4-0.4-1.1-1.2-1.8-0.8-0.7-2.3-0.7zm11.1 12h-2.5v-14h7.3v2.2h-4.8v3.7h4.2v2.2h-4.2z"/>
</svg>