<svg version="1.2" xmlns="http://www.w3.org/2000/svg" viewBox="0 0 96 96" width="96" height="96">
	<style>
		.s0 { fill: #ffffff;stroke: #979593;stroke-miterlimit:10;stroke-width: 2 } 
		.s1 { fill: none;stroke: #979593;stroke-miterlimit:10;stroke-width: 2 } 
		.s2 { fill: #ac00f7 } 
		.s3 { fill: #ffffff } 
		.s4 { fill: #c8c6c4 } 
	</style>
	<path class="s0" d="m67.17 7h-40.17c-1.1 0-2 0.9-2 2v78c0 1.1 0.9 2 2 2h58c1.1 0 2-0.9 2-2v-60.17c0-0.53-0.21-1.04-0.59-1.42l-17.82-17.82c-0.38-0.38-0.89-0.59-1.42-0.59z"/>
	<path fill-rule="evenodd" class="s1" d="m67 7v18c0 1.1 0.9 2 2 2h18"/>
	<path class="s2" d="m10.3 74.42h34.4c2.37 0 4.3-1.63 4.3-3.64v-29.12c0-2.01-1.93-3.64-4.3-3.64h-34.4c-2.37 0-4.3 1.63-4.3 3.64v29.12c0 2.01 1.93 3.64 4.3 3.64z"/>
	<path id="ZIP" class="s3" aria-label="ZIP"  d="m23.7 63h-9.1l5.5-11.8h-4.8v-2.1h8.6l-5.5 11.7h5.3zm4.5 0h-2.6v-13.9h2.6zm6.1 0h-2.6v-13.9h3.7q1.4 0 2.6 0.4 1.2 0.4 1.9 1.5 0.6 1.1 0.6 2.9 0 1.4-0.5 2.6-0.5 1.2-1.6 2-1.1 0.8-2.9 0.8h-1.2zm1-12h-1v6.1h1q1.3 0 2-0.8 0.7-0.8 0.7-2.3 0-1.5-0.6-2.2-0.6-0.8-2.1-0.8z"/>
	<path id="Rectangle-327" fill-rule="evenodd" class="s4" d="m57 32h4.86l2.43 1.82-2.43 1.83h-4.86z"/>
	<path id="Rectangle-327" fill-rule="evenodd" class="s4" d="m67.94 35.65h-4.86l-2.43 1.82 2.43 1.82h4.86z"/>
	<path id="Rectangle-327" fill-rule="evenodd" class="s4" d="m67.94 42.94h-4.86l-2.43 1.82 2.43 1.83h4.86z"/>
	<path id="Rectangle-327" fill-rule="evenodd" class="s4" d="m57 39.29h4.86l2.43 1.83-2.43 1.82h-4.86z"/>
	<path id="Rectangle-327" fill-rule="evenodd" class="s4" d="m67.94 50.24h-4.86l-2.43 1.82 2.43 1.82h4.86z"/>
	<path id="Rectangle-327" fill-rule="evenodd" class="s4" d="m57 46.59h4.86l2.43 1.82-2.43 1.83h-4.86z"/>
	<path id="Rectangle-327" fill-rule="evenodd" class="s4" d="m67.94 57.53h-4.86l-2.43 1.82 2.43 1.83h4.86z"/>
	<path id="Rectangle-327" fill-rule="evenodd" class="s4" d="m57 53.88h4.86l2.43 1.83-2.43 1.82h-4.86z"/>
	<path id="Rectangle-327" fill-rule="evenodd" class="s4" d="m67.94 64.82h-4.86l-2.43 1.83 2.43 1.82h4.86z"/>
	<path id="Rectangle-327" fill-rule="evenodd" class="s4" d="m57 61.18h4.86l2.43 1.82-2.43 1.82h-4.86z"/>
	<path id="Combined-Shape" fill-rule="evenodd" class="s4" d="m60.65 73.94c0-2.52 0-3.65 1.82-3.65 1.82 0 1.82 1.13 1.82 3.65 0 2.52 3.65 7.3-1.82 7.3-5.47 0-1.82-4.78-1.82-7.3zm1.82 6.14c1.01 0 1.82-0.82 1.82-1.83 0-1-0.81-1.82-1.82-1.82-1.01 0-1.82 0.82-1.82 1.82 0 1.01 0.81 1.83 1.82 1.83z"/>
</svg>