<svg xmlns="http://www.w3.org/2000/svg" viewBox="0 0 401.53 444.82"><defs><style>.cls-1{fill:#ff5a5f;}</style></defs><g id="Layer_2" data-name="Layer 2"><g id="svg4"><path id="path2-9-9" class="cls-1" d="M345.06,227c-1.6-3.9-3.1-8-4.7-11.5L333,198.8l-.3-.3c-22-48-45.5-96.79-70.4-144.79l-1-2c-2.5-4.7-5-9.9-7.6-14.7-3.2-5.7-6.3-11.8-11.4-17.6a53,53,0,0,0-82,0A121.78,121.78,0,0,0,148.87,37c-2.5,5.2-5,10.3-7.6,15l-1,2c-24.5,48-48.4,96.8-70.4,144.79l-.6.6c-2.2,5.2-4.8,10.6-7.3,16.4-1.6,3.5-3.2,7.3-4.8,11.5-18.9,48.14,20.71,98.92,72,92.3a83.85,83.85,0,0,0,31.8-11c13-7.3,25.49-17.9,39.49-33.2,14,15.3,26.8,25.9,39.5,33.3a83.82,83.82,0,0,0,40.2,11.5,67.9,67.9,0,0,0,67.5-58.3,59.49,59.49,0,0,0-2.6-35Zm-143.6,16.6c-17.2-22-28.4-42.2-32.2-59.5a52.12,52.12,0,0,1-1-19.59,31.12,31.12,0,0,1,5.2-13.4c6-8.7,16.5-14.1,28-14.1a33,33,0,0,1,28,14,31.14,31.14,0,0,1,5.1,13.5,51,51,0,0,1-1,19.59c-3.8,17-15,37.4-32.1,59.5Zm127.4,14.8a47.63,47.63,0,0,1-29,37.5,48.72,48.72,0,0,1-24.2,3.2,62.62,62.62,0,0,1-24.2-8.4,156.57,156.57,0,0,1-36.3-31c21-26,33.7-49.7,38.5-70.8a78.35,78.35,0,0,0,1.6-27.29,55.28,55.28,0,0,0-8.6-22,53.58,53.58,0,0,0-44.9-22.8c-18.5,0-35,8.6-45,22.7a51.54,51.54,0,0,0-8.5,22.1,65.77,65.77,0,0,0,1.6,27.29c4.8,21.1,17.79,45.1,38.49,71a143.23,143.23,0,0,1-36.29,31.2,62.92,62.92,0,0,1-24.2,8.3,47.59,47.59,0,0,1-53.2-40.7,52.71,52.71,0,0,1,2.9-25c1-3.2,2.5-6.4,4.1-10.2,2.2-5.2,4.8-10.6,7.3-16l.4-.7c21.6-47.69,45.2-96.39,69.7-144.09l1-2c2.49-4.8,5-9.9,7.59-14.7a64.55,64.55,0,0,1,9-14,33.2,33.2,0,0,1,50.9,0,68.53,68.53,0,0,1,9,14c2.5,4.8,5,10,7.6,14.7l1,2c24.4,47.7,48,96.4,70,144.09l.3.3c2.6,5.2,4.8,11,7.3,16,1.6,3.9,3.2,7,4.2,10.3,1.9,9,2.9,17,1.9,25Z"/><path id="path2-9-9-3" class="cls-1" d="M34,444.82A30.74,30.74,0,0,1,9.8,433.63,40,40,0,0,1,0,406.23a42.57,42.57,0,0,1,10.15-28,32.41,32.41,0,0,1,24.95-11.37,26.28,26.28,0,0,1,22.62,11.74l.61-9.6H76.21v73.87H58.29l-.61-10.76A27.68,27.68,0,0,1,34,444.82ZM38.6,427.2a18,18,0,0,0,9.6-2.75,23,23,0,0,0,6.61-7.64,25.06,25.06,0,0,0,2.32-11,20.94,20.94,0,0,0-9-18.59,18.08,18.08,0,0,0-19.08,0,23,23,0,0,0-6.6,7.65,24.58,24.58,0,0,0-2.33,11,20.92,20.92,0,0,0,9,18.59,17.66,17.66,0,0,0,9.48,2.75Zm68.18-78.14a10.79,10.79,0,0,1-1.34,5.68,11.54,11.54,0,0,1-4.1,3.92A11.38,11.38,0,0,1,95.71,360,11.59,11.59,0,0,1,90,358.66a10.16,10.16,0,0,1-5.45-9.6,11,11,0,0,1,1.35-5.69,9.71,9.71,0,0,1,4.1-3.91,11.5,11.5,0,0,1,5.68-1.41,11.27,11.27,0,0,1,9.79,5.26A12.19,12.19,0,0,1,106.78,349.06ZM86,442.61V368.87h19.45v73.87H85.93Zm71.42-54.42v.25a14.4,14.4,0,0,0-3.06-.8,16.13,16.13,0,0,0-3.36-.24c-5.44,0-9.54,1.59-12.23,4.89-2.93,3.36-4.28,8.07-4.28,14.12v36.27H115V368.81h17.91L133.5,380a22.12,22.12,0,0,1,7.59-9.05,21.37,21.37,0,0,1,15-2.69,9.74,9.74,0,0,1,1.34.36Zm7.83,54.42V338.54h19.44v39.75a29.44,29.44,0,0,1,47-.43,40.08,40.08,0,0,1,9.78,27.45,42.55,42.55,0,0,1-10.15,28,32.38,32.38,0,0,1-24.95,11.37A26.28,26.28,0,0,1,183.71,433l-.62,9.6-17.85.19Zm37.61-15.41a18,18,0,0,0,9.53-2.75,22.74,22.74,0,0,0,6.61-7.64,27.12,27.12,0,0,0,0-21.95,23,23,0,0,0-6.61-7.65,18.06,18.06,0,0,0-19.07,0,23,23,0,0,0-6.67,7.65,24.44,24.44,0,0,0-2.32,11,20.9,20.9,0,0,0,9,18.59,17.66,17.66,0,0,0,9.54,2.75Zm45.92,15.48V368.81h17.91l.62,9.6a24.19,24.19,0,0,1,21.64-11.56,25.07,25.07,0,0,1,23.36,14.92,40.45,40.45,0,0,1,3.3,16.82v44.27H296.1v-41.7c0-5.14-1.17-9.18-3.49-12.17a11.59,11.59,0,0,0-9.54-4.53,14.76,14.76,0,0,0-7.76,2,15.24,15.24,0,0,0-5.26,5.69,16.48,16.48,0,0,0-2,8.25v42.32Zm76.56,0V338.48h19.5v39.74a28.55,28.55,0,0,1,22.81-11.55,30.68,30.68,0,0,1,24.15,11.19,40.18,40.18,0,0,1,9.73,27.39,42.55,42.55,0,0,1-10.15,28,32.42,32.42,0,0,1-24.95,11.37,26.31,26.31,0,0,1-22.63-11.74l-.55,9.6Zm37.78-15.48a17.66,17.66,0,0,0,9.54-2.75,22.91,22.91,0,0,0,6.67-7.64,24.92,24.92,0,0,0,2.32-11,20.92,20.92,0,0,0-9-18.59,18.06,18.06,0,0,0-19.07,0,23,23,0,0,0-6.61,7.65,22.08,22.08,0,0,0-2.32,11,20.9,20.9,0,0,0,9,18.59,17.15,17.15,0,0,0,9.47,2.75Z"/></g></g></svg>