<svg xmlns="http://www.w3.org/2000/svg" viewBox="0 0 17.2 12.9"><defs><style>.cls-1{fill:#fff;}</style></defs><title>Recurso 7</title><g id="Capa_2" data-name="Capa 2"><g id="Layer_1" data-name="Layer 1"><path class="cls-1" d="M15.05,0H2.15A2.15,2.15,0,0,0,0,2.15v8.6A2.15,2.15,0,0,0,2.15,12.9h12.9a2.15,2.15,0,0,0,2.15-2.15V2.15A2.15,2.15,0,0,0,15.05,0ZM11.51,5.74l4.55-3.91a.92.92,0,0,1,.07.32v8.6a.8.8,0,0,1-.05.21Zm3.54-4.67a.73.73,0,0,1,.2.05L8.6,6.82,2,1.12a.73.73,0,0,1,.2-.05ZM1.12,11a.78.78,0,0,1,0-.21V2.15a1.2,1.2,0,0,1,.06-.32L5.69,5.74Zm1,.86a1.07,1.07,0,0,1-.31-.06L6.51,6.43l1.74,1.5a.53.53,0,0,0,.35.13A.51.51,0,0,0,9,7.93l1.75-1.5,4.66,5.33a1.07,1.07,0,0,1-.31.06Z"/></g></g></svg>