<svg xmlns="http://www.w3.org/2000/svg" viewBox="0 0 17.54 17.54"><defs><style>.cls-1{fill:#fff;}</style></defs><title>Recurso 5</title><g id="Capa_2" data-name="Capa 2"><g id="Layer_1" data-name="Layer 1"><path class="cls-1" d="M12.48,0H5.06A5.07,5.07,0,0,0,0,5.06v7.42a5.06,5.06,0,0,0,5.06,5.06h7.42a5.06,5.06,0,0,0,5.06-5.06V5.06A5.07,5.07,0,0,0,12.48,0Zm3.45,12.61A3.37,3.37,0,0,1,12.57,16H5a3.37,3.37,0,0,1-3.37-3.36V5A3.36,3.36,0,0,1,5,1.66h7.59A3.36,3.36,0,0,1,15.93,5Z"/><path class="cls-1" d="M8.77,4.26a4.56,4.56,0,1,0,4.55,4.55A4.55,4.55,0,0,0,8.77,4.26Zm0,7.51a3,3,0,1,1,3-3A3,3,0,0,1,8.77,11.77Z"/><path class="cls-1" d="M13.47,3a1.06,1.06,0,1,0,1.06,1.06A1.06,1.06,0,0,0,13.47,3Z"/></g></g></svg>