<?xml version="1.0" encoding="UTF-8"?>
<svg id="Layer_2" data-name="Layer 2" xmlns="http://www.w3.org/2000/svg" xmlns:xlink="http://www.w3.org/1999/xlink" viewBox="0 0 195.58 96.93">
  <defs>
    <style>
      .cls-1 {
        filter: url(#drop-shadow-1);
      }

      .cls-2, .cls-3 {
        fill: #fff;
      }

      .cls-2, .cls-4, .cls-5 {
        fill-rule: evenodd;
      }

      .cls-4 {
        fill: #001f60;
      }

      .cls-5 {
        fill: #136fa3;
      }
    </style>
    <filter id="drop-shadow-1" x="-9.96" y="8.62" width="216" height="99" filterUnits="userSpaceOnUse">
      <feOffset dx="0" dy="0"/>
      <feGaussianBlur result="blur" stdDeviation="3.04"/>
      <feFlood flood-color="#000" flood-opacity=".47"/>
      <feComposite in2="blur" operator="in"/>
      <feComposite in="SourceGraphic"/>
    </filter>
  </defs>
  <g id="Layer_1-2" data-name="Layer 1">
    <g>
      <g class="cls-1">
        <g>
          <path class="cls-5" d="M195.58,75.25h-5.97l-.27,1.64c-.04.23-.99,5.69-4.95,5.65h-2.37v-29.62c.01-.09.15-2.34,1.2-2.45h.01s.68-.07,1.66.2l2.46.67v-5.89l-1.47-.37s-.18-.04-.46-.12c1.14-.87,1.88-2.24,1.88-3.79,0-2.62-2.13-4.75-4.74-4.75-1.3,0-2.47.52-3.33,1.37l.28-8.62s-.08,0-.09,0c.01-.34.39-10.24.39-10.24l-6.11-.07s-.02.42-.05.84c-2.56-1.28-6.88-2.36-11.71-.58-6.4,2.35-8.1,8.16-8.1,11.21,0,3.36,1.13,6.27,3.26,8.47-3.78-.71-7.7-1.41-11.59-2.01l-2.11-.33v.21c-.76-.09-1.45-.16-2.05-.21,1.04-.5,2.01-1.16,2.83-1.95,1.81-1.75,2.83-4.03,2.88-6.42.05-2.39-.89-4.71-2.63-6.53-2.03-2.1-4.96-3.34-8.07-3.4-3.1-.06-6.09,1.07-8.19,3.1-.31.29-.59.61-.85.93v-3.37h-6.19v.42c-1.12-.35-2.64-.61-4.93-.61s-4.11.71-5.64,1.79v-1.72h-13.84v.82c-.73-.31-1.59-.52-2.59-.57-3.21-.15-27.81-.18-28.85-.18h-1.95v2.05c-1.08-.65-2.33-1.13-3.73-1.43-.03,0-2.24-.46-3.63-.34,0,0,.05-.01.05-.01h-21.14c-.8-.01-16.08-.3-22.13,0-7.03.35-10.4,5.12-11.52,7.14-1.36,2.48-2.2,7.33,1.06,10.59,1.5,1.5,3.3,2.29,5.21,2.27,1.85-.02,3.7-.83,5.06-2.23.23-.24.42-.5.59-.75v10.58c0,3.1-1.59,3.73-1.77,3.79-.1.03-1.33.39-1.33.39l-.06,1.45-.04,3.05c-5.19,2.67-11.52,8.24-8.24,14.78,1.21,2.4,3.62,3.92,6.65,4.16,1.96.16,3.59-.48,4.72-1.82,0,1.02,0,2.04,0,3.02,0,2.72-.02,5.12-.09,6.2-.03.47-.19.6-.26.66-.42.35-1.4.41-1.93.35l-2.12-.06-.07,2v3.71h12.93s32.93,0,32.93,0c6.94,7.25,14.69,8.17,15.28,8.22,12.12,1.26,17.83-5.73,18.07-6.03l.09-.11.07-.12c.43-.73.57-1.34.62-1.81h29.32c1.41,2.7,3.55,4.97,6.08,6.26,4.3,2.18,9.83,2.81,14.44,1.64,4.09-1.04,7.95-4.16,10.44-8.09h29.62s14.23,0,14.23,0l2.88-13.01Z"/>
          <path class="cls-2" d="M64.38,24.3c-2.73-3.64-8.39-3.35-8.39-3.35h-21.16s-15.93-.3-22.01,0c-6.08.31-8.94,4.38-9.92,6.14-.97,1.76-1.82,5.72.74,8.27,2.55,2.56,5.65,1.95,7.48.06,1.82-1.89.73-5.11.73-5.11-1.7,2.49-3.83,2.07-4.62,1.4-.79-.67-.91-2.01-.91-2.55s.73-5.23,4.75-6.08c4.01-.85,4.01,4.19,4.01,4.19v19.34c0,4.81-3.17,5.66-3.17,5.66l-.02,1.89,13.36-5.38v-1.97s-.56.52-1.98.52c-1.94,0-1.94-2.01-1.94-2.01v-9.72c1.39-.34,2.56-.18,2.56-.18,2.5.36,2.13,3.83,2.13,3.83l1.89-.42v-9.18h-2.01c.06,2.19-.36,2.92-1.22,3.46-.85.55-3.34.61-3.34.61v-11.06s2.25-.12,4.87,0c2.62.12,2.56,3.95,2.56,3.95h1.88v-4.07c2.01.43,2.13,2.37,2.13,2.37v15.57s.12,1.82-.73,3.16c-.85,1.34-2.49,1.52-2.49,1.52l-.06,2.01s14.14-5.45,26.27-8.27c4.05-.94,7.23-3.28,8.7-5.05,1.45-1.76,2.67-5.9-.07-9.55ZM49.76,36.88c-.07,2.22-2.32,2.42-2.32,2.42l.03-3.29h-1.7s.03.69-.03,1.42c-.07.73-.94,2.05-2.01,2.71-1.08.66-5.42,1.8-5.42,1.8v-9.27s.97-.21,2.6-.13c1.63.07,1.22,2.84,1.22,2.84l1.62-.38v-7.32h-1.66s.04,1.73-.73,2.46c-.76.73-3.02.62-3.02.62v-8.16s3.54-.04,5.45.1c1.91.14,2.05,3.19,2.05,3.19h1.74v-3.44c2.32.24,2.19,2.15,2.19,2.15,0,0,.07,10.03,0,12.25ZM60.72,32.41c-.55,3.82-6.01,4.89-6.01,4.89v-14.64s1.94-.38,3.82.55c2.74,1.63,2.74,5.38,2.19,9.2Z"/>
          <path class="cls-2" d="M108.6,22.46v-1.84h-9.94v1.84c0-.15,1.55.1,1.7.16.45.21.89.61.95,1.13.11.92,0,6.3,0,6.3,0,0,.03,1.55-1.33,1.65-1.36.11-7.03-3.42-7.47-3.79,0,0-.55-.48-.04-.44.51.04,2.5.26,3.9-.51,1.4-.78,1.92-2.25,1.77-3.06-.15-.81-.92-2.87-4.12-3.02-3.21-.15-28.76-.18-28.76-.18v1.93s1.44-.16,2.07.32c.62.48,1.07.84,1.07,1.58v7.62s.11,1.62-1.15,2.21c-1.25.59-1.73.59-1.73.59v1.51s12.11-2.36,24.34-2.95v-1.51s-1.92.08-1.99-1.06c-.07-1.14,0-3.28,0-3.28,0,0,.18-.3.37.04.18.33,3.09,5.78,7.62,5.81,3.2.11,4.64-.37,4.64-.37h7.99v-1.62s-1.28-.01-1.44-.07c-.91-.34-1.07-1.31-1.12-2.16-.06-1.23,0-2.46,0-3.68,0-.86-.07-1.95.52-2.65.53-.64,1.42-.49,2.16-.49ZM83.35,31.18c.03,1.48-2.59,1.4-2.59,1.4v-2.72h-1.58s.15,1.73-1.1,2.61c-1.25.88-4.86.92-4.86.92v-4.75s.92-.15,1.95.04c1.03.18,1.03,1.69,1.03,1.69l1.55-.15v-5.11h-1.59s.08.26-.3,1.25c-.37,1-2.65.89-2.65.89v-4.79s2.87-.07,4.34.04c1.47.11,1.73,2.5,1.73,2.5h1.58v-2.57c2.4,0,2.47,1.66,2.47,1.66,0,0-.04,5.63,0,7.1ZM87.75,26.4v-3.85s3.07-.15,4.05,0c.97.14,1.51.88,1.51,1.56s-.24,1.41-1.32,2c-1.08.58-4.25.29-4.25.29Z"/>
          <path class="cls-2" d="M125.36,25.63v-4.88h-2.29v.98s0,.64-.83.15c-.83-.49-2.05-1.32-6.05-1.32s-6.82,2.98-7.31,5.46c-.49,2.49.68,5.27,3.46,6.78,2.83,1.54,7.81,1.5,10.45-.42.7-.5,1.37-1.11,1.89-1.8.1-.13,1.07-2.03.78-2.03h-2.83s-.93,3.66-4.88,3.03c-3.95-.64-3.76-3.66-3.76-5.07s1.27-4.05,4.1-4c2.3.04,3.88,1.19,4.93,3.17.78-.02,1.58-.04,2.34-.05Z"/>
          <path class="cls-2" d="M136.32,20.1c-4.93-.09-9.01,3.31-9.09,7.59-.08,4.3,3.85,7.85,8.79,7.94,4.94.09,9.01-3.31,9.09-7.6.09-4.29-3.85-7.84-8.79-7.94ZM139.76,28.13c-.06,2.97-1.75,5.35-3.78,5.31-2.03-.04-3.62-2.48-3.57-5.45.06-2.96,1.75-5.34,3.78-5.31,2.03.04,3.63,2.48,3.57,5.45Z"/>
          <path class="cls-2" d="M185.36,41.16c0,1.55-1.26,2.8-2.8,2.8s-2.8-1.25-2.8-2.8,1.26-2.8,2.8-2.8,2.8,1.25,2.8,2.8Z"/>
          <path class="cls-2" d="M177.53,27.47l.25-6.62-2.24-.03-.06,1.11s-.06,1.34-1.4.3c-1.34-1.05-5.94-3.33-11.48-1.29-5.54,2.04-6.82,6.99-6.82,9.38s.65,5.36,3.32,7.69c2.68,2.33,7.23,3.5,12.12,2.45,2.28-.76,1.99-1.22,3.15-.76,1.17.46.76,2.33.76,2.33l1.98.41.37-11.45-9.53-.61v1.92s2.57-.12,3.26.76c.7.88.64,3.91-.99,5.01-1.63,1.11-4.72,1.11-6-1.16-1.28-2.27-1.63-6.24-.58-9.03,1.05-2.8,2.68-5.19,6-5.25,3.32-.06,5.3,3.73,5.3,4.9l2.57-.06Z"/>
          <path class="cls-2" d="M85.9,89.22c-5.27,3.2-11.21,2.62-11.21,2.62-8.21-1.35-11.83-5.94-16.01-11.29-4.17-5.35-7.15-13.56-7.87-15.16-.72-1.61,0-1.23,0-1.23,5.08-.64,7.34-4.15,8.55-7.64,1.7-4.87.5-17.03-11.16-13.56-13.75,4.08-30.88,10.95-36.1,13.42-1.91.9-3.9,1.92-5.67,3.08-1.76,1.16-3.38,3.1-3.94,5.15-.89,3.27,1.49,7.3,6,7.67,5.16.42,4.31-6.85,4.31-6.85-1.2,2.33-4.45,2.47-5.37.63-.92-1.84.64-7.27,4.38-7.63,3.75-.36,3.11,4.53,3.11,4.53,0,0,.21,15.4,0,18.79-.21,3.39-4.38,2.83-4.38,2.83v1.77h16.04v-1.67c-4.48,0-4.22-4.23-4.22-4.23v-10.99s1.56-.32,3.64.2c2.08.52,1.43,4.22,1.43,4.22l2.28-.13v-10.8h-2.15s0,1.56-.46,3.25c-.46,1.7-4.75,1.31-4.75,1.31v-13.27s2.47-1.11,5.6-2.09c3.12-.97,2.99,4.62,2.99,4.62l1.88-.65v-6.12c2.28-.98,2.54,2.08,2.54,2.08,0,0,.32,26.47,0,29.72-.32,3.25-3.84,2.73-3.84,2.73v1.82h16.33v-1.82c-4.55-.45-4.43-3.71-4.43-3.71v-14.5c.46-1.36.92,1.04.92,1.04,0,0,3.84,10.99,10.67,18.8,6.83,7.81,14.92,8.41,14.92,8.41,11.21,1.16,16.35-5.3,16.35-5.3.44-.76-.38-.06-.38-.06ZM44.08,63.81s-.65.13-.65-.87v-16.19s-.25-.3.65-.57c.91-.26,4.95-1.42,6.7.98,1.75,2.41,2.54,6.96,1.43,10.54-1.1,3.58-2.8,5.98-8.14,6.12Z"/>
          <path class="cls-2" d="M97.26,61.72c0,14.14-8.23,25.61-18.38,25.61s-18.37-11.47-18.37-25.61,8.23-25.6,18.37-25.6,18.38,11.46,18.38,25.6Z"/>
          <path class="cls-2" d="M148.79,70.11c-2.47-6.69-9.43-8.65-10.86-9.11-1.43-.45-.06-.65-.06-.65,7.22-.06,8.91-7.73,8.97-10.67.06-2.92-.45-10.14-12.68-12.42-12.23-2.28-40.52-2.15-40.52-2.15v2.01s.39-.19,2.67,0c2.8.26,2.92,3.71,2.92,3.71v37.98c0,1.83-.26,3.51-1.36,4.69-1.11,1.17-4.17.97-4.17.97v1.89h23.16c-.59-1.56-.79-4.23-.79-4.23-2.6,3.25-7.67,2.08-7.67,2.08v-24.19s.78-.32,4.36.26c3.58.58,3.25,5,3.25,5h2.15v-12.29h-2.21c0,2.41-.52,3.32-1.57,4.42-1.04,1.11-5.98.85-5.98.85v-20.88s0-.26,5.2.14c5.21.38,4.94,5.72,4.94,5.72h2.08v-5.4c2.67.46,2.34,3.13,2.34,3.13v41.95h9.11v-21.14s5.4.78,8.13,6.05c.75,1.45,1.24,3.25,1.47,4.87.74,5.19-.22,12.19-4.81,15.3-5.44,3.68-12.41.62-15.78-4.23-1.63-2.34-1.89-4.49-2.08-6.83-.19-2.34-.65.58-.65.58-.26,1.53-.39,3.16-.27,4.72.34,4.26,2.9,8.75,6.78,10.72,3.85,1.95,8.89,2.55,13.07,1.49,4.03-1.02,7.57-4.08,9.62-7.63,2.41-4.16,3.71-10.02,1.24-16.72ZM132.34,59.71s-.32.13-.39-.59v-19.9s6.12-.59,7.09,5.66c.97,6.24.33,10.21-1.04,11.83-1.36,1.63-2.66,2.99-5.66,2.99Z"/>
          <path class="cls-2" d="M191.26,77.2s-1.17,7.35-6.89,7.29h-4.3v-31.61s.06-4.03,2.93-4.36c0,0,.97-.13,2.4.26v-1.82s-20.35-5.14-40.19-8.26l-.13,2.02s5.07.26,5.07,3.96v22.57s4.75,8.91.19,19.05h40.78l2.02-9.1h-1.89ZM171.42,83.18c-.71,1.5-2.99,1.11-2.99,1.11v-7.28h-1.89s.06,1.17-.66,4.49c-1.36,4.04-7.61,2.99-7.61,2.99v-21.4s1.75-.52,3.84,0c3.44,1.11,2.93,5.2,2.93,5.2h1.88v-12.23h-1.95s0,1.96-.98,3.64c-.98,1.69-5.79,1.11-5.79,1.11v-17.82s.52-.06,4.49.84c3.97.92,3.9,6.63,3.9,6.63l2.15.33v-5.86c3.32.72,3.25,5.14,3.25,5.14v26.34c0,5.39.13,5.26-.59,6.76Z"/>
          <path class="cls-5" d="M76.45,83c-1.5-.72-3.15-1.25-4.53-2.21-.34-.31-.67-.68-1.07-.85-.02-.12-.01-.24,0-.37-1.14-.31-1.6-1.92-2.62-2.32-.01-.2,0-.4,0-.57.07-.04.16-.07.26-.09,0-.07,0-.12,0-.18q-.55.2-.67.18c-.87-1.67-2.01-3.56-2.36-5.39-.22-.12-.44-.5-.3-.74.16,0,.34,0,.52.03.22-.3.46-.59.7-.88.58-.38.94-.91,1.48-1.32.09-.7.2-.7.79-1.01.02-.88-.65-1.38-1.26-1.88-.28-.53-.53-1.05-.78-1.58-.06-.61-.14-1.28-.24-1.85.09-1.36.46-2.78.1-4.12q-.15-.27-.2-.54c.85.16.33,1.23.99,1.45.05.18.09.37.17.54h.12s0,.07,0,.13c.67.21,1.01,1.42,1.42,1.95q.14.07.68.07c.02-.7-.12-1.42-.18-2.12-.2-.02-.4-.05-.59-.07-.52-.55-1.16-1.75-.69-2.49q.06-.92,0-1.27c-.05,0-.09,0-.12,0-.01-.05-.03-.11-.04-.14-.09,0-.18-.01-.27-.01-.16.68-.52,2.3,0,2.85.12.29.29.6.22.94-.92-.02-.99-2.48-.98-3.12.22-1.05.23-1.34,1.36-1.36,0-.11.03-.22.04-.31-.59-.14-.98-.02-1.5-.07.17-1.1.02-3.08,1.41-3.49.07-.19.15-.39.25-.59-.15-.02-.29-.04-.43-.07-.77-1.64,1.08-3.91,1.59-5.46.04,0,.07,0,.1,0q.72-1.18.92-1.66c.7-.41,1.34-1.12,2-1.62,2-.63,4.17-1.31,6.27-.77.23.1.38.17.65.19,2.23-.57,4.6.33,6.46,1.54,1,.89,1.05,1.01,1.23,1.13q.97,1.24,1.17,1.41.49.94.66,1.11c.56,1.44,1.02,2.89,1.43,4.39.13,1.12.26,2.23.4,3.36.09.23.09.47.33.58.36,1.62-.23,3.38.13,4.98-.02.72.08,1.79.1,3.1-.16,1.23-.43,2.84-.94,3.99-.46.17-.47.34-.59.81.25,0,.45-.11.7-.11q.51.34.72.58.32.08.61.25v.11c.09.06.2.11.31.17,0,.04,0,.09,0,.14-.09.03-.16.07-.23.1q1.18.06,1.59.17-.04.3-.11.43c-.13,0-.24,0-.34.03.08.03.15.08.21.13,0,.07,0,.16,0,.25-1.01.15-2.07.18-3.09.21.64.34,2.03-.03,2.87.12.29,1.34-1.52.64-2.18.95-.07-.04-.14-.06-.22-.08-.03.02-.07.04-.11.07h-4.24q-.24.12-.49.15s.03.07.05.13c2.13.05,4.35.14,6.47-.06.12,0,.25,0,.37.03.05.23,0,.44-.09.68-2.61.58-5.51-.21-8.15.19,0,.03,0,.09,0,.14,2.58.12,5.26.1,7.84.12q.02.23-.06.43c-2.15.46-4.67-.39-6.86-.01-.02.04-.03.07-.06.11,2.26.05,4.52.11,6.79.19-.02.07-.04.14-.04.23-.6.27-1.35.13-2.03.19,0,.06,0,.12,0,.2.56.05,1.13.1,1.69.15,0,.09,0,.2,0,.31-.06,0-.09,0-.12,0,0,.03,0,.07,0,.13-.06,0-.09,0-.13,0,0,.25-.15.46-.27.68-1.36-.04-1.03-1.88-2.37-.6-.13.05-.24.1-.35.17-1.2,0-2.4.02-3.58.02-.05.02-.09.03-.12.07.99.31,2.38-.07,3.42.15.12.19.1.31.13.53.05.02.12.05.19.09.03.33.06.65.1.97.18-.01.35,0,.55,0q.36.46.4.62c-.33.48-.66.61-1.24.7.07.04.16.08.25.12-.22.3-.49.55-.86.63-.49,1.83-4.94-.12-5.91.8,1.61.04,3.24.08,4.87.14-.06.25-.15.28-.37.42-.38,0-3.38-.13-3.7.16,1,.18,2.15.14,3.15.16-.11.14-.2.28-.29.43q-3.05-.06-4.28-.02c-.02.09-.04.18-.04.27.56.01,2.53-.12,3.19.22,0,.06,0,.12.01.2-1.02.64-2.97-.24-4.21.04-.61-.02-1.2.02-1.77.22.06.03.14.06.21.09,1.47-.01,2.95.11,4.42.22-.25.69-2.7.29-3,.28.19.4,1.2.28,1.62.38,0,.05,0,.13-.01.2-.94.24-1.77-.03-2.7-.05-.11.04-.22.09-.31.13,0,.03,0,.09,0,.15.52.03,1.04.08,1.58.13.02.06.03.13.05.2-1.29.09-2.63.08-3.95.08Z"/>
          <path class="cls-2" d="M77.19,82.12c-.19-.2-.32-.17-.61-.14.25-.7.18-.79-.14-1.47-.17-.19-1.45-2.24-1.66-2.46-.16-.03-.32-.05-.49-.07.1-.24.12-.32.32-.46.01-.4-.24-.61-.23-1.01.49-.27,1.14-.56,1.44-1.02.38,0,.9.45,1.33.63.32,0,.66.01,1,.02q1.27-.4,1.39-.4c.41.33.62.46,1.11.6.09.68-.46,1.32-.64,1.96-.31.13-.69.57-.99.85-.02.72-.85,1.27-.76,1.86.04.02.07.04.13.06,0,.03,0,.07,0,.13-.2.04-.4.09-.6.16,0,.27.1.42.21.65-.28.03-.55.06-.82.11Z"/>
          <path class="cls-2" d="M75.89,81.14v-.13s.07,0,.13,0v.13h-.13Z"/>
          <path class="cls-2" d="M75.84,80.78c-.01-.09-.03-.18-.05-.26.03.02.07.04.12.06.02.05.03.12.05.2h-.13Z"/>
          <path class="cls-2" d="M75.2,80.22c.02-.06.03-.11.06-.14.06,0,.11,0,.18,0-.02.03-.04.09-.06.14-.07,0-.12,0-.18,0Z"/>
          <path class="cls-2" d="M80.58,79.82c-.07-.05-.14-.12-.21-.15q.34-.06,1.56-.02,0,.05-1.35.17Z"/>
          <path class="cls-2" d="M82.45,79.74q.04-.07.19-.07c-.07.02-.14.03-.19.07Z"/>
          <path class="cls-2" d="M70.92,79.4c.08-.16.11-.18.31-.24-.12.16-.12.21-.31.24Z"/>
          <path class="cls-2" d="M82.3,78.36c-.11-.02-.22-.04-.3-.07-.13-.7,2.96-.28,3.53-.18-1.06.13-2.15.2-3.23.25Z"/>
          <path class="cls-2" d="M85.06,77.71c-.05-.02-.09-.04-.12-.06,0-.06,0-.09,0-.13-.25,0-.49,0-.72-.02v-.1q2.01.01,3.35-.08c.09-.03.74-.25.73.03-.5.24-1.41-.14-1.74.34-.63-.02-.91-.06-1.5.02Z"/>
          <path class="cls-2" d="M83.81,77.44s0-.04,0-.05c.03,0,.07,0,.12,0v.06s-.07,0-.13,0Z"/>
          <path class="cls-2" d="M85.56,77c-.68-.14-1.81.03-2.31-.31,1.97-.02,4.18-.32,6.13,0,0,.04,0,.07,0,.13-1.74.03-1.92.09-3.82.19Z"/>
          <path class="cls-2" d="M73.32,76.52v-.1h.07v.11s-.04,0-.07,0Z"/>
          <path class="cls-2" d="M84.5,76.2s0-.07,0-.12c.09,0,.18,0,.29,0,0,.04,0,.08,0,.13-.09,0-.18-.01-.29-.01Z"/>
          <path class="cls-2" d="M85.15,76.23s0-.07,0-.13c.26,0,.55.01.84.02,0,.04,0,.07,0,.13-.27,0-.56-.02-.84-.02Z"/>
          <path class="cls-2" d="M86.83,76.21s0-.04,0-.07c.05,0,.11,0,.18,0v.07c-.06,0-.11,0-.19,0Z"/>
          <path class="cls-2" d="M87.73,76.23c0-.06.02-.11.04-.15q.56,0,.86.06c-.3.03-.61.05-.9.09Z"/>
          <path class="cls-2" d="M71.72,75.66c-.01-.08-.03-.13-.03-.18.31-.23.54-.24.88-.29-.21.3-.49.42-.86.46Z"/>
          <path class="cls-2" d="M73.16,75.69s0-.07,0-.12h.18s0,.08,0,.13c-.05,0-.11,0-.17,0Z"/>
          <path class="cls-4" d="M90.47,75.94q-.31-.31-.47-.62c-.39-.24-.65-.32-.57-.78.71.02,1.94.35,1.34,1.29-.11.03-.22.07-.31.12Z"/>
          <path class="cls-2" d="M83.73,75.65c-.23-.04-.36-.12-.5-.26,1.41-.13,2.96.02,4.39,0q-.08-.31-.06-.43c.17-.07.22-.11.43-.07.02.04.03.09.05.15-.06,0-.09.02-.13.03-.02.11-.04.22-.06.32.09.02.19.04.3.06-.02.04-.04.07-.06.13-1.36.27-2.96.09-4.37.07Z"/>
          <path class="cls-2" d="M76.11,75.05c-.4-1.21-.21-2.4-.16-3.69.13-.01.25-.03.39-.03.04.65.34,3.55-.23,3.72Z"/>
          <path class="cls-2" d="M85.71,75.11c-.1-.07-.21-.15-.32-.2.42-.15.86-.05,1.29.03.02.03.03.07.05.12-.48-.13-.61-.02-1.02.05Z"/>
          <path class="cls-2" d="M80.08,74.01c-.05-.02-.09-.04-.12-.06,0-.2.01-.39.01-.59.23.04.7.08.65.43-.18.07-.36.13-.55.22Z"/>
          <path class="cls-2" d="M70.59,73.59c.1-.19.19-.29.42-.24.01.04.04.09.05.14-.16.03-.33.06-.47.1Z"/>
          <path class="cls-2" d="M84.97,73.84s-.03-.07-.05-.09c.06-.02.11-.02.18-.01-.06.03-.09.06-.13.1Z"/>
          <path class="cls-2" d="M87.07,73.88s-.09-.07-.12-.11c.06,0,.13.02.2.05-.03.02-.06.03-.07.06Z"/>
          <path class="cls-2" d="M85.11,73.41c-.18-.08-.36-.13-.53-.19,0-.03,0-.07,0-.11,1.9.01,2.5.08,4.01.06.09.02.2.04.3.08v.07c-1.24.11-2.53-.06-3.78.09Z"/>
          <path class="cls-2" d="M70.61,72.77c0-.22,1.1-.91,1.33-.88q.09.13.06.25c-.26.1-.51.22-.74.34,0,.04,0,.07,0,.12-.22.05-.43.1-.65.17Z"/>
          <path class="cls-2" d="M79.99,72.69c-.12-.11-.24-.2-.37-.3,0-.08,0-.16,0-.23q.32-.1.63-.08c.07.15.03.32-.01.51-.09.03-.18.07-.25.1Z"/>
          <path class="cls-2" d="M72.01,71.36q-.81-1.81-1.23-2.53c-.16-.77-.21-1.53-.54-2.24q-.18-1.98-.24-3.41s.09-.04.15-.04c.37.46.72,1.85,1.29,2.04.05.22.14.31.28.46.6,1.07,1.34,2.02,2.15,2.97,0,.12,0,.27,0,.41-1.6.21-1.12.99-1.69,2.34-.07,0-.13,0-.18,0Z"/>
          <path class="cls-2" d="M80.61,71.4q-.14-.31-.11-.45c.1,0,.21,0,.32,0,.05.13.05.26-.01.4-.07.02-.14.03-.2.05Z"/>
          <path class="cls-2" d="M83.97,70.59c-.57-1.23-1.77-1.21-2.96-1.04.03-.15.08-.28.14-.41.04,0,.07,0,.12,0,.02-.14.04-.28.06-.41-.32.03-.45.1-.72.27v.13c-.49.22-.98.44-1.5.52q-1.2-.03-2.75-.21c.06-.2.12-.4.19-.59-.3-.17-.6-.34-.88-.51.02-.7-.46-1.16.08-1.84.02-.77,1.09-.37,1.67-.68,0-.2.27-.3.33-.48-.61-.64-1.96.17-2.32-.52.03-1.25,1.03-.37,1.9-.78.85.02,1.7.1,2.56.06.2.21.35.48.65.49.02-.42-.02-.63-.21-1.03-.18,0-.35,0-.54-.01-.02.04-.04.07-.05.13-1.1-.03-1.94-.62-2.94-.05-.48-.01-1.09-.19-1.61-.24.15-.29.37-1.14.86-.84.02.11.05.21.08.32.36.19.47-.16.64-.41.2-.09.88-.32.96-.57.04,0,.07,0,.13,0v-.12c.58-.26,2.04-.61,1.89-1.51q-.12-.1-.23-.1c-.5.63-1.04.77-1.82,1.06,0,.04,0,.07,0,.13-.05,0-.09,0-.12,0-.02.07-.04.14-.06.23-.05,0-.09,0-.13,0,0,.04,0,.08,0,.13-.09.01-.16.03-.23.05,0,.03,0,.07,0,.13-.72.34-1.58.09-2-.53.06-2.62.63-5.16,1.05-7.73-.46-.06-.76-.41-1.17-.6-.46-.1-.93-.18-1.37-.26q-.42.04-1.75.46s0,.08,0,.13c-.45-.01-.8,1.07-1.17.94,0-.26.03-.29.17-.49-.03-.12-.06-.21-.19-.25,0-.11,0-.19,0-.29.11-.08.24-.15.36-.22,0-.13.01-.25.01-.37-.14-.08-.28-.13-.42-.19.02-.07.04-.14.06-.2.72-.12.83-1.05.57-1.61,0-.11.01-.22.03-.32.07-.04.15-.07.24-.1.14-.82.39-1.34,1.13-1.79.22-.23.4-.54.72-.62v-.12c1.24-.8,2.66-1.3,4.04-1.8q.06-.16.32-.35c.19-1.05.68-2.03.95-3.06.18.06-.06.88-.06.98h-.13c-.09.82-.25,1.48-.57,2.22.22.59,1.62.93,2.23,1.13,1.09.03,2-.06,2.7.89.91.7,1.95,1.28,2.51,2.37.67.36.37,1.68.35,2.29.31,1.17.57,2.38,1.17,3.43,0,.11.01.24.02.36-.09,0-.18,0-.25,0,.1.43.2.55.25.74-.46.47-.07.7.37.92-.09,1.31-.41,2.59-.44,3.89q-.3.96-.6,1.6c-.28.13-.39.67-.51.96q-1.47,1.76-1.53,1.91c-.05,0-.11.01-.15.04,0,.28-1.77,1.51-2.27,1.93q-.13.25-.12.37c.16.08.39.04.57.01.19-.37.93-.53,1.13-.91.68-.45,1.39-1.24,1.86-1.89h.11c.5-.69.98-1.41,1.42-2.13.94.11-.06,3.74-.97,4.17-.45.78-.97,1.5-1.37,2.32-.15.21-.26.47-.52.52Z"/>
          <path class="cls-2" d="M86.73,70.4c-.21-.02-.43-.05-.65-.07,0-.05.02-.11.04-.14,1.4-.15,2.87-.05,4.26-.02.02.02.04.04.07.08-1.24-.01-2.5.13-3.73.15Z"/>
          <path class="cls-2" d="M86.74,69.76c0-.05,0-.09,0-.13.3-.04.4-.06.72.02,0,.03,0,.07,0,.12-.25,0-.48-.01-.72-.02Z"/>
          <path class="cls-2" d="M75.64,69.24c-.82-.15-1.85-1.16-2.03-1.95.82.02,1.05,1.24,1.7,1.51.02.04.03.09.05.15.1.03.23.08.36.11-.04.06-.06.11-.08.18Z"/>
          <path class="cls-2" d="M88,69.36q-.41-.1-.89-.13c0-.09,0-.18,0-.25,1.97.05,3.94-.08,5.91.05v.11q-2.65.08-5.03.23Z"/>
          <path class="cls-2" d="M90.53,68.53s-.04-.05-.05-.07q-1.74-.06-1.99-.14c-.01-.07-.03-.14-.03-.2.95.03,1.9.05,2.86.07,0,.05.02.13.03.2.1.04.21.07.32.13-.4,0-.77,0-1.14,0Z"/>
          <path class="cls-2" d="M73.08,64.46c-.07-.49-.05-1.61-.13-1.92-.09,0-.16,0-.23-.01-.03.07-.08.16-.11.25-.07.02-.15.03-.2.05-.07-.63-.12-1.24-.09-1.85-.37-.39-.15-1.07-.06-1.5-.13-.04-.25-.08-.37-.12-.03-.52-.05-1.02-.05-1.53-.05-.02-.09-.04-.13-.04q-.03-.16.09-.66c-.1-.45.03-.71-.15-1.11.06-.12.13-.23.21-.33.43.05.47.55.92.47.02-.12.04-.25.06-.36-.25-.15-.49-.3-.72-.43,0-.06,0-.11,0-.15.89-.4.82-.55,1.62.08.17-.02.32-.03.5-.02.14-.21.19-.41.27-.66.07,0,.14,0,.22.01.07.21.17.29.33.42-.01.52-.12,1.03-.25,1.52-.03,1.22-.01,2.51-.33,3.68q-.37.53-.5.83c-.05.63-.39,3.23-.89,3.38Z"/>
          <path class="cls-2" d="M87.79,61.37c-.07-.04-.12-.06-.18-.08,0-.04,0-.07,0-.11-.05,0-.09,0-.12,0q.27-2.27.37-2.5c.09.02.19.04.3.06.2.75.63-.11.83-.39q.27-.13.43-.29c.04-.89-.08-1.67.24-2.5.11,0,.23,0,.36.01.18,1.13-.56,2.38-.54,3.56.07,0,.14,0,.22,0,.28-1.08.58-2.17.86-3.26.01-.44-.11-.77-.24-1.19-.57-.27-.6-.32-.39-.87.63-.21.71.13.97.63-.03,1.13.2,4.5-1.09,5.1-.54.54-1.22,1.74-2.04,1.81Z"/>
          <path class="cls-5" d="M88.17,60.77c-.05-.51.1-.68.38-1.06.03,0,.07,0,.12,0,.08-.27.35-.33.57-.44q.12.16.12.27c-.58.45-.74.5-.94,1.12-.09.03-.18.07-.25.1Z"/>
          <path class="cls-5" d="M80.29,60.52c-.39-.21-.8-1.06-.83-1.47.16,0,.33,0,.51.03.22.39.58.91.5,1.4-.07.01-.13.03-.18.05Z"/>
          <path class="cls-5" d="M68.42,60.17c-.15-.3-.51-.56-.42-.92.07,0,.15,0,.23,0,.14.27.27.47.5.66,0,.08,0,.14,0,.21-.11.02-.22.03-.31.05Z"/>
          <path class="cls-5" d="M79.62,56.51c-.51-.36-.52-.88-.57-1.45-.53-.34-.85-1.4-.72-1.99.51-.26,1.08-.32,1.62-.43,1.4,0,3.7-.23,4.09,1.52-.32-.12-.57-.32-.83-.54-.5-.05-1.07-.06-1.53-.27-.7.04-1.4.09-2.08.14q-.06.2-.03.38c1.58.07,2.58.32,3.98.95.16.03.32.07.48.11,0,.09,0,.2,0,.31-.76.21-.89.32-1.21.38-.39-1.73-.85.23-1.79-.51-.1-.22-.21-.44-.31-.64-.09,0-.18,0-.27,0q-.15.26-.17.44h-.13v.1c-.79.14-.6.29-.38.98,0,.14,0,.3.01.47-.06.01-.09.03-.13.05Z"/>
          <path class="cls-2" d="M70.86,55.62c0-.32.08-.52.23-.78.59.01.11.72-.23.78Z"/>
          <path class="cls-2" d="M74.04,54.75v-.07h.12s0,.04,0,.07c-.03,0-.07,0-.12,0Z"/>
          <path class="cls-2" d="M71.89,54.63c.21-1.12,1.81-1.39,2.71-1.01,0,.11,0,.23,0,.36-1.04,0-1.74.26-2.71.65Z"/>
          <path class="cls-2" d="M87.29,55.01c-.58-.52-1.16-2.56-1-3.16.45.14.5.85.55,1.25.14.38.75,1.49.66,1.86-.07.02-.14.03-.2.05Z"/>
          <path class="cls-2" d="M81.68,54.76s-.03-.07-.05-.09c.05-.01.1-.01.18,0-.06.03-.09.07-.13.1Z"/>
          <path class="cls-2" d="M88.61,54.86c-.14-.34-.29-.47-.61-.66-.22-.53-.72-1.11-.84-1.64.07,0,.14.02.22.04.46.78,1.53,1.25,1.59,2.21-.13.02-.25.03-.36.04Z"/>
          <path class="cls-2" d="M83.44,46.92c-.72-.55-1.44-.61-2.31-.7-.41-.23-.8-.54-1.24-.64,0-.24,0-.47,0-.68,1.04.03,1.59.38,2.47.9q1.21.93,1.3,1.07c-.07.02-.15.03-.21.05Z"/>
          <path class="cls-2" d="M74.02,45.91c-.07-.02-.12-.04-.18-.06-.02-.06-.03-.11-.05-.14q-.3-.08-.54-.05c0-.09,0-.16,0-.24.23-.05.47-.08.72-.11,0-.09,0-.18,0-.25-.15-.02-.29-.04-.43-.06.19-.42.84-.55,1.27-.61.03.29.06.57.09.86q.24.18.6.34c0,.09,0,.19,0,.3-.5-.01-1-.08-1.49.02Z"/>
          <path class="cls-2" d="M83.38,45.95q-.14-.13-.97-.5c-.7-.61-1.9-.94-2.76-1.36-.01-.07-.03-.14-.03-.2,1.2.19,2.31.76,3.34,1.39q.53.42.65.61c-.07.01-.14.03-.22.06Z"/>
          <path class="cls-2" d="M83.05,45.05c-.61-.61-1.43-.86-2.08-1.38.48.02,1.65.51,1.79.96.05.02.12.04.19.06v.13q.1.02.23.24c-.06,0-.09,0-.13,0Z"/>
          <path class="cls-2" d="M72.8,44.69c-.02-.07-.02-.14-.02-.2.06,0,.13,0,.2.01.02.03.03.07.05.12-.09.02-.16.03-.23.07Z"/>
          <path class="cls-2" d="M83.85,44.66c-.26-.17-.39-.21-.71-.29-.49-.46-1-.76-1.59-1.08v-.13c-.05,0-.09,0-.12,0v-.13q-.39-.19-.39-.26c.48-.02,1.21.15,1.69.24v.12s.09.03.14.04c.38.48,1.07.85,1.15,1.48-.07,0-.13,0-.18,0Z"/>
          <path class="cls-2" d="M73.65,44.17c-.05-.09-.08-.18-.12-.25.83-.43,1.45-.68,2.4-.71-.18.8-1.61.8-2.28.96Z"/>
          <path class="cls-2" d="M72.58,43.79q0-.06.23-.12v.13c-.09,0-.16,0-.23-.01Z"/>
          <path class="cls-2" d="M73.36,43.56q-.08-.32-.04-.47c.81.02,1.61-.8,2.48-.49.02.04.03.07.06.12-.44.24-.98.32-1.46.41-.34.17-.65.34-1.03.42Z"/>
          <path class="cls-2" d="M83.81,43.58c-.62-.53-1.09-.97-1.88-1.23-.21-.27-.39-.35-.67-.52.02-.05.03-.09.05-.13.5.02.86-.05,1.31.21,0,.14,0,.29.02.45.46.27,1.01.64,1.49.86-.04.09-.08.2-.12.3-.07.02-.15.03-.2.05Z"/>
          <path class="cls-2" d="M80.35,43.27c-.15-.06-.32-.1-.48-.14,0-.05,0-.09,0-.13.32,0,.9-.12,1.02.28-.19,0-.36,0-.54-.01Z"/>
          <path class="cls-2" d="M73.38,42.74c0-.09,0-.18,0-.25.36-.14.72-.27,1.08-.39,0-.09,0-.18,0-.25-.16,0-.49.15-1.51.37,0-.07,0-.12,0-.18q.2-.13,2.79-1.02c.16.02.32.06.48.1-.08.27-.21.45-.39,1.01q-.31.08-1.33.16c-.37.17-.72.34-1.13.44Z"/>
          <path class="cls-2" d="M83.65,42.33c-.16-.06-.3-.1-.45-.14-.01-.09-.03-.18-.03-.25.29-.14.72.07.78.39-.11,0-.21,0-.31,0Z"/>
        </g>
      </g>
      <rect class="cls-3" x="23.85" y="1.53" width=".61" height="6.48"/>
      <polygon class="cls-3" points="32.59 6.87 27.07 1.31 27.07 8.01 27.69 8.01 27.69 2.76 33.2 8.36 33.2 1.53 32.59 1.53 32.59 6.87"/>
      <path class="cls-3" d="M37.51,8.09c1.17,0,2.15-.88,2.15-1.92,0-.58-.25-1.01-.8-1.34l-1.26-.63-.05-.02c-.51-.23-1.08-.49-1.08-1.06,0-.62.5-1.11,1.14-1.11.53,0,.94.24,1.25.7l.06.09.45-.35-.05-.07c-.33-.57-.98-.93-1.68-.93-1.03,0-1.78.71-1.78,1.69,0,.51.24.92.74,1.21l1.18.6.12.06c.54.25,1.15.53,1.15,1.13,0,.76-.68,1.39-1.52,1.39s-1.29-.59-1.49-1.08l-.04-.09-.54.24.03.09c.33.87,1.1,1.41,2.02,1.41Z"/>
      <polygon class="cls-3" points="42.98 8.01 43.6 8.01 43.6 2.1 45.3 2.1 45.3 1.53 41.28 1.53 41.28 2.1 42.98 2.1 42.98 8.01"/>
      <rect class="cls-3" x="47.26" y="1.53" width=".6" height="6.48"/>
      <polygon class="cls-3" points="49.83 2.1 51.52 2.1 51.52 8.01 52.14 8.01 52.14 2.1 53.83 2.1 53.83 1.53 49.83 1.53 49.83 2.1"/>
      <path class="cls-3" d="M58.06,8.09c.72,0,1.41-.29,1.86-.77.47-.55.47-1.12.47-1.78V1.53h-.61v3.9c0,.56,0,1.13-.32,1.52-.32.39-.95.57-1.39.57s-1.08-.18-1.4-.57c-.32-.39-.32-.97-.32-1.52V1.53h-.61v4.01c0,.66,0,1.23.47,1.79.44.47,1.14.76,1.86.76Z"/>
      <polygon class="cls-3" points="62.27 2.1 63.97 2.1 63.97 8.01 64.59 8.01 64.59 2.1 66.28 2.1 66.28 1.53 62.27 1.53 62.27 2.1"/>
      <path class="cls-3" d="M71.35,1.45c-1.9,0-3.5,1.52-3.5,3.32s1.6,3.32,3.5,3.32,3.5-1.52,3.5-3.32-1.61-3.32-3.5-3.32ZM71.35,7.53c-1.57,0-2.89-1.26-2.89-2.75s1.32-2.76,2.89-2.76,2.89,1.26,2.89,2.76-1.32,2.75-2.89,2.75Z"/>
      <path class="cls-3" d="M86.03,4.78c0-.94-.38-1.81-1.08-2.43-.76-.67-1.55-.82-2.5-.82h-1.28v6.48h1.28c.83,0,1.72-.1,2.54-.86.67-.62,1.04-1.46,1.04-2.37ZM81.78,2.1h.66c.93,0,1.52.19,2.06.66.59.52.92,1.24.92,2.02,0,.72-.3,1.41-.84,1.93-.55.51-1.19.73-2.14.73h-.66V2.1Z"/>
      <polygon class="cls-3" points="91.57 7.44 88.85 7.44 88.85 4.76 91.5 4.76 91.5 4.19 88.85 4.19 88.85 2.1 91.57 2.1 91.57 1.53 88.24 1.53 88.24 8.01 91.57 8.01 91.57 7.44"/>
      <polygon class="cls-3" points="101.47 7.44 98.75 7.44 98.75 4.76 101.4 4.76 101.4 4.19 98.75 4.19 98.75 2.1 101.47 2.1 101.47 1.53 98.14 1.53 98.14 8.01 101.47 8.01 101.47 7.44"/>
      <polygon class="cls-3" points="109.47 6.87 103.95 1.31 103.95 8.01 104.56 8.01 104.56 2.76 110.08 8.36 110.08 1.53 109.47 1.53 109.47 6.87"/>
      <path class="cls-3" d="M114.41,7.53c-.87,0-1.29-.59-1.5-1.08l-.04-.09-.54.24.03.09c.34.87,1.11,1.41,2.03,1.41,1.17,0,2.16-.88,2.16-1.92,0-.58-.25-1.01-.8-1.34l-1.26-.63-.05-.02c-.51-.23-1.08-.49-1.08-1.06,0-.62.5-1.11,1.14-1.11.53,0,.94.24,1.25.7l.06.09.44-.35-.04-.07c-.32-.57-.99-.93-1.69-.93-1.03,0-1.77.71-1.77,1.69,0,.51.24.92.73,1.21l1.19.6.12.06c.54.25,1.15.53,1.15,1.13,0,.76-.68,1.39-1.52,1.39Z"/>
      <polygon class="cls-3" points="122.14 7.44 119.43 7.44 119.43 4.76 122.08 4.76 122.08 4.19 119.43 4.19 119.43 2.1 122.14 2.1 122.14 1.53 118.82 1.53 118.82 8.01 122.14 8.01 122.14 7.44"/>
      <path class="cls-3" d="M126.79.92c.06-.19.15-.28.29-.28.15,0,.35.08.55.16.22.09.44.17.6.17.37,0,.72-.26.8-.61l.02-.07-.42-.3-.04.12c-.05.13-.16.28-.33.28-.11,0-.24-.05-.39-.11-.04-.02-.09-.03-.13-.06-.19-.07-.42-.16-.64-.16-.38,0-.65.32-.77.6l-.03.07.43.3.05-.12Z"/>
      <polygon class="cls-3" points="130.75 1.53 130.14 1.53 130.14 6.87 124.62 1.31 124.62 8.01 125.24 8.01 125.24 2.76 130.75 8.36 130.75 1.53"/>
      <path class="cls-3" d="M137.8,8.01h.63l-2.89-6.84-2.9,6.84h.64l.88-2.07h2.75l.88,2.07ZM136.68,5.38h-2.28l1.14-2.69,1.13,2.69Z"/>
      <polygon class="cls-3" points="140.95 2.76 146.46 8.36 146.46 1.53 145.85 1.53 145.85 6.87 140.34 1.31 140.34 8.01 140.95 8.01 140.95 2.76"/>
      <polygon class="cls-3" points="148.85 1.53 148.85 2.1 152.39 2.1 148.38 8.01 153.29 8.01 153.29 7.44 149.48 7.44 153.49 1.53 148.85 1.53"/>
      <path class="cls-3" d="M157.6,1.17l-2.9,6.84h.64l.88-2.07h2.75l.88,2.07h.64l-2.89-6.84ZM158.73,5.38h-2.28l1.14-2.69,1.13,2.69Z"/>
    </g>
  </g>
</svg>