<svg version="1.2" xmlns="http://www.w3.org/2000/svg" viewBox="0 0 240 77" width="240" height="77">
	<style>
		.s0 { fill: #fefefe } 
	</style>
	<g id="&lt;Group&gt;">
		<g id="&lt;Group&gt;">
			<path id="&lt;Compound Path&gt;" fill-rule="evenodd" class="s0" d="m91.91 50.17c0 0.29-0.2 0.49-0.48 0.49-0.27 0-0.49-0.2-0.49-0.49v-1.84c-0.87 1.33-2.15 2.49-4.14 2.49-2.43 0-4.9-1.95-4.9-5.23v-0.04c0-3.27 2.47-5.27 4.9-5.27 2.01 0 3.31 1.15 4.14 2.41v-6.1c0-0.29 0.2-0.49 0.47-0.49 0.28 0 0.5 0.2 0.5 0.49zm-8.96-4.65v0.03c0 2.65 1.83 4.35 3.95 4.35 2.09 0 4.1-1.76 4.1-4.33v-0.03c0-2.59-2.01-4.33-4.1-4.33-2.19 0-3.95 1.6-3.95 4.31z"/>
			<path id="&lt;Compound Path&gt;" class="s0" d="m95.58 40.93c0-0.27 0.2-0.49 0.47-0.49 0.28 0 0.5 0.2 0.5 0.49v2.45c0.86-1.95 2.62-3.02 4.04-3.02 0.3 0 0.52 0.24 0.52 0.53 0 0.28-0.2 0.52-0.52 0.54-2.13 0.19-4.04 1.79-4.04 5.03v3.71c0 0.27-0.2 0.49-0.48 0.49-0.27 0-0.49-0.2-0.49-0.49z"/>
			<path id="&lt;Compound Path&gt;" fill-rule="evenodd" class="s0" d="m102.29 45.59v-0.04c0-2.82 2.19-5.27 5.19-5.27 2.98 0 5.15 2.41 5.15 5.23v0.04c0 2.82-2.19 5.27-5.19 5.27-2.98 0-5.15-2.41-5.15-5.23zm9.29 0v-0.04c0-2.43-1.81-4.36-4.14-4.36-2.39 0-4.1 1.95-4.1 4.32v0.04c0 2.43 1.81 4.36 4.14 4.36 2.39 0 4.1-1.95 4.1-4.32z"/>
			<path id="&lt;Compound Path&gt;" fill-rule="evenodd" class="s0" d="m115.63 52.4q-0.21-0.16-0.22-0.44c0-0.21 0.24-0.45 0.5-0.45q0.17 0.01 0.27 0.08c1.15 0.85 2.47 1.28 3.87 1.28 2.31 0 3.95-1.32 3.95-3.91v-1.45c-0.87 1.24-2.21 2.32-4.2 2.32-2.43 0-4.84-1.85-4.84-4.73v-0.04c0-2.9 2.41-4.78 4.84-4.78 2.01 0 3.37 1.07 4.2 2.25v-1.6c0-0.27 0.2-0.49 0.47-0.49 0.28 0 0.49 0.22 0.49 0.49v8.09c0 1.46-0.47 2.61-1.28 3.42-0.87 0.87-2.17 1.34-3.65 1.34-1.6 0-3.1-0.47-4.4-1.38zm8.43-7.32v-0.04c0-2.33-2.07-3.83-4.17-3.83-2.11 0-3.88 1.46-3.88 3.81v0.04c0 2.27 1.81 3.85 3.88 3.85 2.1 0 4.17-1.54 4.17-3.83z"/>
			<path id="&lt;Compound Path&gt;" class="s0" d="m137.06 50.17c0 0.27-0.2 0.49-0.47 0.49-0.28 0-0.49-0.2-0.49-0.49v-1.46c-0.68 1.18-1.8 2.11-3.64 2.11-2.54 0-4.02-1.74-4.02-4.14v-5.75c0-0.29 0.2-0.49 0.47-0.49 0.28 0 0.5 0.2 0.5 0.49v5.57c0 2.07 1.16 3.43 3.19 3.43 1.98 0 3.5-1.5 3.5-3.59v-5.41c0-0.29 0.19-0.49 0.47-0.49 0.28 0 0.49 0.2 0.49 0.49z"/>
			<path id="&lt;Compound Path&gt;" fill-rule="evenodd" class="s0" d="m144.98 50.82c-2.65 0-4.94-2.11-4.94-5.25v-0.04c0-2.92 2.06-5.25 4.78-5.25 2.82 0 4.62 2.33 4.62 5.21 0 0.24-0.24 0.46-0.48 0.46h-7.89c0.18 2.5 1.97 3.96 3.95 3.96 1.44 0 2.44-0.59 3.25-1.38q0.12-0.13 0.32-0.14c0.25 0 0.47 0.2 0.47 0.46q0.01 0.15-0.16 0.33c-0.98 0.99-2.11 1.64-3.92 1.64zm3.41-5.74c-0.14-2.03-1.3-3.91-3.61-3.91-1.99 0-3.53 1.68-3.71 3.91z"/>
			<path id="&lt;Compound Path&gt;" class="s0" d="m152.26 40.93c0-0.27 0.2-0.49 0.47-0.49 0.28 0 0.5 0.2 0.5 0.49v2.45c0.87-1.95 2.62-3.02 4.04-3.02 0.3 0 0.51 0.24 0.51 0.53 0 0.28-0.19 0.52-0.51 0.54-2.13 0.19-4.04 1.79-4.04 5.03v3.71c0 0.27-0.2 0.49-0.48 0.49-0.27 0-0.49-0.2-0.49-0.49z"/>
			<path id="&lt;Compound Path&gt;" class="s0" d="m160.29 40.93c0-0.27 0.2-0.49 0.48-0.49 0.27 0 0.49 0.2 0.49 0.49v9.24c0 0.29-0.2 0.49-0.48 0.49-0.27 0-0.49-0.2-0.49-0.49zm0.2-2.21q0.01-0.12 0.08-0.22l1.22-1.83c0.16-0.24 0.32-0.36 0.55-0.36 0.38 0 0.83 0.26 0.83 0.46 0 0.11-0.1 0.23-0.21 0.35l-1.58 1.52c-0.24 0.22-0.38 0.26-0.63 0.26-0.14 0-0.26-0.08-0.26-0.18z"/>
			<path id="&lt;Compound Path&gt;" fill-rule="evenodd" class="s0" d="m164.24 47.66v-0.04c0-2.09 1.79-3.27 4.4-3.27 1.4 0 2.37 0.18 3.34 0.43v-0.43c0-2.03-1.25-3.08-3.32-3.08-1.11 0-2.03 0.28-2.86 0.67q-0.13 0.06-0.22 0.06c-0.24 0-0.45-0.22-0.45-0.45 0-0.24 0.18-0.4 0.27-0.44 1.03-0.45 2.04-0.75 3.32-0.75 1.36 0 2.45 0.38 3.18 1.11 0.67 0.67 1.02 1.6 1.02 2.84v5.86c0 0.29-0.2 0.49-0.47 0.49-0.28 0-0.47-0.2-0.47-0.49v-1.26c-0.7 0.96-1.94 1.91-3.85 1.91-1.88 0-3.89-1.07-3.89-3.16zm7.75-0.85v-1.14c-0.84-0.22-1.97-0.45-3.41-0.45-2.13 0-3.31 0.94-3.31 2.34v0.04c0 1.46 1.38 2.31 2.92 2.31 2.05 0 3.8-1.26 3.8-3.1z"/>
			<path id="&lt;Compound Path&gt;" class="s0" d="m175.9 41.39c0-0.83 0.67-1.5 1.5-1.5 0.83 0 1.5 0.67 1.5 1.5v0.47c0.44-1.02 1.15-1.97 2.04-1.97 0.92 0 1.45 0.61 1.45 1.46 0 0.79-0.51 1.26-1.12 1.4-1.52 0.35-2.37 1.52-2.37 3.65v2.8c0 0.83-0.67 1.5-1.5 1.5-0.83 0-1.5-0.67-1.5-1.5z"/>
			<path id="&lt;Compound Path&gt;" fill-rule="evenodd" class="s0" d="m183.34 45.35v-0.04c0-3.03 2.45-5.5 5.75-5.5 3.27 0 5.7 2.43 5.7 5.47v0.03c0 3.04-2.45 5.51-5.74 5.51-3.28 0-5.71-2.43-5.71-5.47zm8.49 0v-0.04c0-1.55-1.13-2.92-2.78-2.92-1.72 0-2.75 1.33-2.75 2.89v0.03c0 1.56 1.13 2.92 2.79 2.92 1.71 0 2.74-1.32 2.74-2.88z"/>
			<path id="&lt;Compound Path&gt;" fill-rule="evenodd" class="s0" d="m196.96 37.56c0-0.83 0.67-1.5 1.5-1.5 0.83 0 1.5 0.67 1.5 1.5v3.97c0.73-0.99 1.74-1.72 3.3-1.72 2.46 0 4.81 1.93 4.81 5.47v0.03c0 3.54-2.31 5.47-4.81 5.47-1.6 0-2.59-0.73-3.3-1.58v0.02c0 0.81-0.67 1.48-1.5 1.48-0.83 0-1.5-0.67-1.5-1.5zm8.11 7.76v-0.04c0-1.76-1.18-2.92-2.58-2.92-1.41 0-2.57 1.16-2.57 2.92v0.04c0 1.75 1.16 2.92 2.57 2.92 1.4 0 2.58-1.15 2.58-2.92z"/>
			<path id="&lt;Compound Path&gt;" class="s0" d="m210.42 37.56c0-0.83 0.67-1.5 1.5-1.5 0.83 0 1.5 0.67 1.5 1.5v11.64c0 0.83-0.67 1.5-1.5 1.5-0.83 0-1.5-0.67-1.5-1.5z"/>
			<path id="&lt;Compound Path&gt;" fill-rule="evenodd" class="s0" d="m221.25 50.82c-3.17 0-5.52-2.23-5.52-5.47v-0.04c0-3.01 2.15-5.5 5.23-5.5 3.53 0 5.09 2.9 5.09 5.09 0 0.87-0.61 1.44-1.4 1.44h-5.94c0.29 1.36 1.24 2.07 2.58 2.07 0.83 0 1.52-0.25 2.13-0.71 0.22-0.16 0.42-0.23 0.73-0.23 0.68 0 1.17 0.51 1.17 1.18 0 0.39-0.18 0.69-0.4 0.89-0.92 0.79-2.13 1.28-3.67 1.28zm1.94-6.35c-0.18-1.35-0.97-2.25-2.23-2.25-1.24 0-2.05 0.88-2.29 2.25z"/>
			<path id="&lt;Compound Path&gt;" class="s0" d="m228.06 49.58c-0.31-0.2-0.57-0.56-0.57-1.03 0-0.67 0.51-1.18 1.18-1.18q0.35 0 0.6 0.15c1 0.64 2.01 0.95 2.86 0.95 0.87 0 1.26-0.31 1.26-0.79v-0.04c0-0.65-1.03-0.87-2.19-1.22-1.48-0.43-3.16-1.12-3.16-3.18v-0.04c0-2.15 1.74-3.35 3.87-3.35 1.11 0 2.25 0.29 3.28 0.81 0.43 0.21 0.71 0.61 0.71 1.12 0 0.67-0.54 1.19-1.21 1.19-0.21 0-0.35-0.04-0.55-0.14-0.85-0.42-1.66-0.67-2.29-0.67-0.73 0-1.1 0.31-1.1 0.73v0.04c0 0.59 1 0.86 2.15 1.26 1.48 0.49 3.19 1.2 3.19 3.14v0.04c0 2.35-1.75 3.41-4.04 3.41-1.3 0-2.7-0.37-3.99-1.2z"/>
		</g>
		<g id="&lt;Group&gt;">
			<g id="&lt;Group&gt;">
				<path id="&lt;Compound Path&gt;" fill-rule="evenodd" class="s0" d="m55.05 24.86c-0.03-9.44 0.01-12.02-0.08-21.68l6.05 0.01c0 0 0 0.36-0.01 0.96v40.8c-2.49 21.96-24.63 35.9-44.54 23.98-26.55-15.9-13.92-56.6 17.1-54.76 9.73 0.58 13.59 3.25 20.85 10.69 0.11 0.11 0.61 0.67 0.61 0.67 0.02-0.21 0.02-0.46 0.02-0.67zm0.18 18.72c0-13.12-10.64-23.76-23.77-23.76-13.12 0-23.76 10.64-23.76 23.76 0 13.12 10.64 23.76 23.76 23.76 13.13 0 23.77-10.64 23.77-23.76z"/>
			</g>
		</g>
		<g id="&lt;Group&gt;">
			<path id="&lt;Path&gt;" class="s0" d="m54.72 72.87l5.66 0.01v-15.69c-0.94 1.73-1.15 2.13-2.88 4.49-0.5 0.69-2.24 2.93-2.7 3.26z"/>
		</g>
		<path id="&lt;Path&gt;" class="s0" d="m63.2 33.88c4.22-8.23 13.59-13.22 22.82-10.68v-6.28c-6.19-0.9-12.17-0.32-17.55 3.01-1.23 0.75-4.73 3.6-5.28 4.77z"/>
		<path id="&lt;Path&gt;" class="s0" d="m74.74 67.23c0 2.91-2.36 5.28-5.27 5.28-2.92 0-5.28-2.37-5.28-5.28 0-2.91 2.36-5.28 5.28-5.28 2.91 0 5.27 2.37 5.27 5.28z"/>
	</g>
</svg>