<svg version="1.2" xmlns="http://www.w3.org/2000/svg" viewBox="0 0 215 64" width="215" height="64">
	<style>
		.s0 { fill: #bbbdb2 } 
		.s1 { fill: #9cb8c7 } 
		.s2 { fill: #fefefe } 
	</style>
	<g id="&lt;Group&gt;">
		<g id="&lt;Group&gt;">
			<g id="&lt;Group&gt;">
				<path id="&lt;Path&gt;" class="s0" d="m16.71 47.24h15.11c0-8.32-6.76-15.28-15.06-15.28z"/>
			</g>
			<g id="&lt;Group&gt;">
				<path id="&lt;Path&gt;" class="s1" d="m0.65 47.22l16.08 0.03c0 8.36-7.23 15.13-16.14 15.13z"/>
			</g>
			<g id="&lt;Group&gt;">
				<path id="&lt;Path&gt;" class="s2" d="m32.63 2.41h-32v14.94h0.04c0.27 8.13 7.37 14.61 16.09 14.61l-0.1-14.61h15.11v0.08h0.87c8.22 0.07 14.86 6.75 14.86 14.98 0 8.28-6.7 14.98-14.98 14.98q-0.38 0-0.75-0.02v15.03q0.31 0.01 0.62 0.02c16.57 0 30-13.44 30-30.01 0-16.49-13.3-29.87-29.76-30z"/>
			</g>
		</g>
		<g id="&lt;Group&gt;">
			<path id="&lt;Compound Path&gt;" fill-rule="evenodd" class="s2" d="m76.01 25.01h6.38c7 0.01 9.89 1.83 9.89 8.88-0.01 6.93-3 8.89-10 8.89l-6.28-0.01zm6.48 14.34c4.84 0.01 5.83-1.46 5.83-5.46 0-4-0.81-5.35-5.89-5.35h-2.5v10.81z"/>
			<path id="&lt;Compound Path&gt;" fill-rule="evenodd" class="s2" d="m99.85 24.91h3.98l7.16 17.89h-4.08l-1.15-2.93-8.05-0.01-1.16 2.93-3.83-0.01zm4.66 11.73l-2.77-7.07-2.79 7.07z"/>
			<path id="&lt;Compound Path&gt;" class="s2" d="m120.26 36.4l-4.22 6.4h-4.34l6.52-9.32-5.84-8.44h4.41l3.81 5.47 3.6-5.46h4.34l-5.93 8.36 6.56 9.4h-4.46z"/>
			<path id="&lt;Compound Path&gt;" class="s2" d="m130.65 40.94l1.22-1.87c2.07 1.35 4.2 1.85 6.36 1.85 3.62 0.01 4.98-0.93 4.98-3.08 0.01-2.21-1.94-2.57-5-3.08-4.08-0.67-6.62-1.37-6.62-5.06 0.01-3.57 2.24-4.94 6.67-4.93 3 0 5.06 0.7 6.47 1.63l-1.32 1.99c-1.22-0.82-3.16-1.39-5.15-1.39-3.07 0-4.27 0.79-4.27 2.65 0 2.02 1.75 2.4 4.82 2.93 3.98 0.68 6.8 1.28 6.8 5.14 0 3.54-2.18 5.34-7.31 5.34-2.9 0-5.44-0.63-7.65-2.12z"/>
			<path id="&lt;Compound Path&gt;" fill-rule="evenodd" class="s2" d="m153.81 24.95h2.47l7.11 17.89-2.5-0.01-1.46-3.74h-8.87l-1.46 3.74-2.42-0.01zm4.76 11.92l-3.59-9.01-3.6 9.01z"/>
			<path id="&lt;Compound Path&gt;" class="s2" d="m165.93 25.08h2.42l-0.01 15.53 9.25 0.01v2.23l-11.67-0.01z"/>
			<path id="&lt;Compound Path&gt;" class="s2" d="m179.53 36.33l0.01-11.24h2.42l-0.01 10.95c0 2.9 0.89 4.84 5.13 4.85 4.27 0 5.23-1.89 5.23-4.84l0.01-10.96 2.35 0.01-0.01 11.24c0 3.5-0.99 6.83-7.6 6.83-6.62-0.01-7.53-3.37-7.53-6.84z"/>
			<path id="&lt;Compound Path&gt;" fill-rule="evenodd" class="s2" d="m198.54 25.1h5.95c6.76 0.01 9.32 1.98 9.32 8.88-0.01 6.78-2.82 8.89-9.6 8.89l-5.68-0.01zm5.79 15.54c5.39 0 7.02-1.77 7.03-6.66 0-4.96-1.36-6.57-6.85-6.57l-3.55-0.01-0.01 13.24z"/>
		</g>
	</g>
</svg>