<svg xmlns="http://www.w3.org/2000/svg" viewBox="0 0 256.2 56.14"><defs><style>.cls-1{fill:#fff;}</style></defs><g id="Layer_2" data-name="Layer 2"><g id="Layer_1-2" data-name="Layer 1"><path class="cls-1" d="M25.21,52.63a1.55,1.55,0,0,0,1.19-.44,1.89,1.89,0,0,0,.46-1.25h.72a2.51,2.51,0,0,1-.72,1.75,2.26,2.26,0,0,1-1.65.64,2.39,2.39,0,0,1-2-.83A4,4,0,0,1,22.57,50v-.89a4.07,4.07,0,0,1,.66-2.52,2.36,2.36,0,0,1,2-.85,2.2,2.2,0,0,1,1.71.69,2.86,2.86,0,0,1,.67,1.91h-.72A2.27,2.27,0,0,0,26.4,47a1.5,1.5,0,0,0-1.2-.5,1.62,1.62,0,0,0-1.43.66,3.54,3.54,0,0,0-.45,2V50a3.48,3.48,0,0,0,.46,2A1.62,1.62,0,0,0,25.21,52.63Z"/><path class="cls-1" d="M30,49.18a4,4,0,0,1,.71-2.49,2.54,2.54,0,0,1,3.9,0,3.93,3.93,0,0,1,.71,2.48v.77a3.94,3.94,0,0,1-.71,2.5,2.55,2.55,0,0,1-3.87,0A3.79,3.79,0,0,1,30,50Zm.75.75a3.37,3.37,0,0,0,.51,2,1.63,1.63,0,0,0,1.41.72,1.61,1.61,0,0,0,1.41-.69,3.5,3.5,0,0,0,.5-2v-.77a3.3,3.3,0,0,0-.52-2,1.7,1.7,0,0,0-2.78,0,3.33,3.33,0,0,0-.53,1.94Z"/><path class="cls-1" d="M39,53.19h-.76V42.85H39Z"/><path class="cls-1" d="M41.85,49.18a3.92,3.92,0,0,1,.72-2.49,2.52,2.52,0,0,1,3.89,0,3.93,3.93,0,0,1,.72,2.48v.77a3.88,3.88,0,0,1-.72,2.5,2.55,2.55,0,0,1-3.87,0A3.85,3.85,0,0,1,41.85,50Zm.76.75a3.37,3.37,0,0,0,.51,2,1.61,1.61,0,0,0,1.41.72,1.63,1.63,0,0,0,1.41-.69,3.5,3.5,0,0,0,.49-2v-.77a3.37,3.37,0,0,0-.51-2,1.71,1.71,0,0,0-2.79,0,3.33,3.33,0,0,0-.52,1.94Z"/><path class="cls-1" d="M50.72,45.91l0,1.16a2.83,2.83,0,0,1,.82-1,2,2,0,0,1,1.15-.35c1.27,0,1.92.85,1.95,2.54v4.88h-.74v-4.8A2.5,2.5,0,0,0,53.57,47a1.2,1.2,0,0,0-1-.46,1.5,1.5,0,0,0-1.06.44,2.7,2.7,0,0,0-.71,1.21v5H50V45.91Z"/><path class="cls-1" d="M57.72,43.81a.59.59,0,0,1,.13-.39.41.41,0,0,1,.36-.16.44.44,0,0,1,.37.16.65.65,0,0,1,0,.78.47.47,0,0,1-.37.15.43.43,0,0,1-.36-.15A.59.59,0,0,1,57.72,43.81Zm.86,9.38h-.75V45.91h.75Z"/><path class="cls-1" d="M65.6,53.19a5.1,5.1,0,0,1-.13-1,2.29,2.29,0,0,1-.87.85,2.26,2.26,0,0,1-1.14.3A2,2,0,0,1,62,52.8a2.08,2.08,0,0,1-.53-1.52,2.16,2.16,0,0,1,.73-1.7,3.11,3.11,0,0,1,2-.63h1.25v-1a1.47,1.47,0,0,0-.38-1.13,1.72,1.72,0,0,0-1.14-.34,1.64,1.64,0,0,0-1.14.41,1.37,1.37,0,0,0-.44,1h-.75a2,2,0,0,1,.67-1.51A2.39,2.39,0,0,1,64,45.77a2.29,2.29,0,0,1,1.67.56,2.16,2.16,0,0,1,.56,1.61v3.57a4.9,4.9,0,0,0,.2,1.6v.08Zm-2-.58a2,2,0,0,0,1.17-.35,1.89,1.89,0,0,0,.74-.91V49.58H64.28a2.39,2.39,0,0,0-1.54.45,1.48,1.48,0,0,0-.52,1.19C62.22,52.15,62.66,52.61,63.55,52.61Z"/><path class="cls-1" d="M73.28,49.21a4.52,4.52,0,0,1,.6-2.57,2.17,2.17,0,0,1,3.63.24v-4h.74V53.19h-.7l0-.93a2.18,2.18,0,0,1-3.63.19A4.43,4.43,0,0,1,73.28,50Zm.76.68A4,4,0,0,0,74.46,52a1.49,1.49,0,0,0,1.34.65,1.78,1.78,0,0,0,1.71-1.12V47.71a1.76,1.76,0,0,0-1.71-1.22,1.46,1.46,0,0,0-1.33.66,3.79,3.79,0,0,0-.43,2Z"/><path class="cls-1" d="M83.78,53.33a2.5,2.5,0,0,1-2-.84,3.53,3.53,0,0,1-.74-2.4V49.2a4,4,0,0,1,.7-2.51,2.27,2.27,0,0,1,1.92-.92,2.19,2.19,0,0,1,1.81.78,3.81,3.81,0,0,1,.64,2.37v.7H81.77V50A3,3,0,0,0,82.3,52a1.82,1.82,0,0,0,1.51.68,2.18,2.18,0,0,0,1.75-.79l.39.5A2.52,2.52,0,0,1,83.78,53.33Zm-.13-6.86a1.61,1.61,0,0,0-1.36.63,3.2,3.2,0,0,0-.52,1.82h3.58v-.2C85.31,47.22,84.75,46.47,83.65,46.47Z"/><path class="cls-1" d="M89.62,53.19h-.75V42.85h.75Z"/><path class="cls-1" d="M100.64,51.4a1.06,1.06,0,0,0-.39-.82,5.45,5.45,0,0,0-1.33-.78,7.31,7.31,0,0,1-1.3-.7,1.84,1.84,0,0,1-.55-.61,1.73,1.73,0,0,1-.17-.78,1.81,1.81,0,0,1,.6-1.39,2.29,2.29,0,0,1,1.57-.55,2.32,2.32,0,0,1,1.66.59,2,2,0,0,1,.62,1.55h-.75a1.38,1.38,0,0,0-.42-1A1.73,1.73,0,0,0,98,46.81a1.12,1.12,0,0,0-.39.88.93.93,0,0,0,.3.71,6.06,6.06,0,0,0,1.27.75,7.76,7.76,0,0,1,1.41.73,2.12,2.12,0,0,1,.57.64,1.74,1.74,0,0,1,.2.84,1.8,1.8,0,0,1-.63,1.44,2.46,2.46,0,0,1-1.65.53,2.57,2.57,0,0,1-1.75-.59,2,2,0,0,1-.67-1.53h.75a1.47,1.47,0,0,0,.46,1,1.8,1.8,0,0,0,1.21.37,1.69,1.69,0,0,0,1.11-.34A1.08,1.08,0,0,0,100.64,51.4Z"/><path class="cls-1" d="M108.1,53.19a4.44,4.44,0,0,1-.13-1,2.44,2.44,0,0,1-.87.85,2.27,2.27,0,0,1-1.15.3,2,2,0,0,1-1.46-.53,2.08,2.08,0,0,1-.53-1.52,2.12,2.12,0,0,1,.73-1.7,3.11,3.11,0,0,1,2-.63H108v-1a1.43,1.43,0,0,0-.39-1.13,1.69,1.69,0,0,0-1.13-.34,1.64,1.64,0,0,0-1.14.41,1.33,1.33,0,0,0-.44,1h-.75a2,2,0,0,1,.67-1.51,2.38,2.38,0,0,1,1.69-.63,2.31,2.31,0,0,1,1.67.56,2.16,2.16,0,0,1,.56,1.61v3.57a4.9,4.9,0,0,0,.2,1.6v.08Zm-2-.58a2,2,0,0,0,1.17-.35,2,2,0,0,0,.74-.91V49.58h-1.18a2.43,2.43,0,0,0-1.55.45,1.51,1.51,0,0,0-.52,1.19C104.71,52.15,105.16,52.61,106.05,52.61Z"/><path class="cls-1" d="M114.15,52.63a1.59,1.59,0,0,0,1.2-.44,1.94,1.94,0,0,0,.45-1.25h.72a2.51,2.51,0,0,1-.72,1.75,2.26,2.26,0,0,1-1.65.64,2.39,2.39,0,0,1-2-.83,4,4,0,0,1-.67-2.47v-.89a4.07,4.07,0,0,1,.66-2.52,2.36,2.36,0,0,1,2-.85,2.2,2.2,0,0,1,1.71.69,2.86,2.86,0,0,1,.67,1.91h-.72a2.27,2.27,0,0,0-.46-1.4,1.49,1.49,0,0,0-1.2-.5,1.59,1.59,0,0,0-1.42.66,3.46,3.46,0,0,0-.46,2V50a3.48,3.48,0,0,0,.46,2A1.62,1.62,0,0,0,114.15,52.63Z"/><path class="cls-1" d="M122.06,46.61a3,3,0,0,0-.47,0,1.37,1.37,0,0,0-1,.43,2.33,2.33,0,0,0-.6,1.17v5h-.75V45.91h.74V47a1.75,1.75,0,0,1,1.67-1.23.89.89,0,0,1,.45.09Z"/><path class="cls-1" d="M128.05,53.19a5.1,5.1,0,0,1-.13-1,2.29,2.29,0,0,1-.87.85,2.26,2.26,0,0,1-1.14.3,2,2,0,0,1-1.47-.53,2.08,2.08,0,0,1-.53-1.52,2.16,2.16,0,0,1,.73-1.7,3.11,3.11,0,0,1,2-.63h1.25v-1a1.47,1.47,0,0,0-.38-1.13,1.72,1.72,0,0,0-1.14-.34,1.64,1.64,0,0,0-1.14.41,1.37,1.37,0,0,0-.44,1h-.75a2,2,0,0,1,.68-1.51,2.36,2.36,0,0,1,1.69-.63,2.28,2.28,0,0,1,1.66.56,2.12,2.12,0,0,1,.56,1.61v3.57a4.9,4.9,0,0,0,.2,1.6v.08ZM126,52.61a2,2,0,0,0,1.17-.35,1.89,1.89,0,0,0,.74-.91V49.58h-1.18a2.39,2.39,0,0,0-1.54.45,1.48,1.48,0,0,0-.52,1.19C124.67,52.15,125.11,52.61,126,52.61Z"/><path class="cls-1" d="M132.48,45.91l0,1.09a2.15,2.15,0,0,1,2-1.23,1.73,1.73,0,0,1,1.81,1.34,2.5,2.5,0,0,1,.89-1,2.25,2.25,0,0,1,1.18-.34c1.31,0,2,.85,2,2.53v4.89h-.74V48.35a2.48,2.48,0,0,0-.35-1.4,1.28,1.28,0,0,0-1.11-.46A1.58,1.58,0,0,0,137,47a2.13,2.13,0,0,0-.54,1.32v4.84h-.76V48.37a2.39,2.39,0,0,0-.35-1.42,1.29,1.29,0,0,0-1.1-.46,1.5,1.5,0,0,0-1.06.42,2.43,2.43,0,0,0-.65,1.21v5.07h-.75V45.91Z"/><path class="cls-1" d="M145.81,53.33a2.53,2.53,0,0,1-2-.84,3.64,3.64,0,0,1-.74-2.4V49.2a4,4,0,0,1,.7-2.51,2.3,2.3,0,0,1,1.93-.92,2.15,2.15,0,0,1,1.8.78,3.75,3.75,0,0,1,.64,2.37v.7H143.8V50a3,3,0,0,0,.54,1.93,1.81,1.81,0,0,0,1.51.68,2.15,2.15,0,0,0,1.74-.79l.39.5A2.51,2.51,0,0,1,145.81,53.33Zm-.12-6.86a1.61,1.61,0,0,0-1.36.63,3.13,3.13,0,0,0-.52,1.82h3.57v-.2C147.35,47.22,146.78,46.47,145.69,46.47Z"/><path class="cls-1" d="M151.54,45.91l0,1.16a2.72,2.72,0,0,1,.82-1,2,2,0,0,1,1.14-.35c1.27,0,1.92.85,2,2.54v4.88h-.75v-4.8a2.43,2.43,0,0,0-.34-1.44,1.21,1.21,0,0,0-1.06-.46,1.46,1.46,0,0,0-1.05.44,2.7,2.7,0,0,0-.71,1.21v5h-.75V45.91Z"/><path class="cls-1" d="M159.69,44.05v1.86h1.24v.67h-1.24v4.84a1.72,1.72,0,0,0,.18.89.63.63,0,0,0,.59.3,4,4,0,0,0,.54-.07l0,.67a1.75,1.75,0,0,1-.73.12c-.88,0-1.33-.6-1.35-1.81V46.58h-1.12v-.67h1.12V44.05Z"/><path class="cls-1" d="M163.25,49.18a4,4,0,0,1,.71-2.49,2.54,2.54,0,0,1,3.9,0,4,4,0,0,1,.72,2.48v.77a3.88,3.88,0,0,1-.72,2.5,2.55,2.55,0,0,1-3.87,0,3.79,3.79,0,0,1-.74-2.41Zm.75.75a3.37,3.37,0,0,0,.51,2,1.63,1.63,0,0,0,1.41.72,1.61,1.61,0,0,0,1.41-.69,3.5,3.5,0,0,0,.5-2v-.77a3.37,3.37,0,0,0-.51-2,1.71,1.71,0,0,0-2.79,0,3.33,3.33,0,0,0-.53,1.94Z"/><path class="cls-1" d="M177.72,49.23H175v-.7h2.72Z"/><path class="cls-1" d="M188.37,52.32a2.09,2.09,0,0,1-1.92,1,1.73,1.73,0,0,1-1.49-.69,3.36,3.36,0,0,1-.51-2V45.91h.74V50.6a2.6,2.6,0,0,0,.35,1.5,1.15,1.15,0,0,0,1,.51,1.72,1.72,0,0,0,1.81-1.37V45.91h.75v7.28h-.72Z"/><path class="cls-1" d="M195.06,46.61a2.9,2.9,0,0,0-.47,0,1.39,1.39,0,0,0-1,.43,2.32,2.32,0,0,0-.59,1.17v5h-.75V45.91h.73L193,47a1.75,1.75,0,0,1,1.67-1.23,1,1,0,0,1,.45.09Z"/><path class="cls-1" d="M201.38,52.32a2.09,2.09,0,0,1-1.91,1,1.75,1.75,0,0,1-1.5-.69,3.36,3.36,0,0,1-.51-2V45.91h.74V50.6a2.68,2.68,0,0,0,.35,1.5,1.15,1.15,0,0,0,1,.51,1.72,1.72,0,0,0,1.81-1.37V45.91h.76v7.28h-.73Z"/><path class="cls-1" d="M205,49.21a4.62,4.62,0,0,1,.59-2.58,2,2,0,0,1,1.78-.86,2,2,0,0,1,1.87,1.15l0-1h.7V53.4a3,3,0,0,1-.63,2,2.33,2.33,0,0,1-1.82.69,2.73,2.73,0,0,1-1.21-.3,2.55,2.55,0,0,1-.92-.72l.35-.54a2.23,2.23,0,0,0,1.73.85,1.67,1.67,0,0,0,1.32-.48,2.19,2.19,0,0,0,.42-1.47V52.28a2.18,2.18,0,0,1-3.6.19A4.34,4.34,0,0,1,205,50Zm.75.68a3.87,3.87,0,0,0,.43,2.07,1.47,1.47,0,0,0,1.33.65,1.73,1.73,0,0,0,1.71-1.15V47.74a1.75,1.75,0,0,0-1.7-1.25,1.49,1.49,0,0,0-1.34.66,3.89,3.89,0,0,0-.43,2Z"/><path class="cls-1" d="M216.94,52.32a2.11,2.11,0,0,1-1.92,1,1.75,1.75,0,0,1-1.5-.69,3.51,3.51,0,0,1-.51-2V45.91h.74V50.6a2.68,2.68,0,0,0,.35,1.5,1.15,1.15,0,0,0,1,.51,1.72,1.72,0,0,0,1.81-1.37V45.91h.76v7.28H217Z"/><path class="cls-1" d="M224.62,53.19a5.1,5.1,0,0,1-.13-1,2.29,2.29,0,0,1-.87.85,2.26,2.26,0,0,1-1.14.3A2,2,0,0,1,221,52.8a2.08,2.08,0,0,1-.53-1.52,2.16,2.16,0,0,1,.73-1.7,3.11,3.11,0,0,1,2-.63h1.25v-1a1.47,1.47,0,0,0-.38-1.13,1.72,1.72,0,0,0-1.14-.34,1.64,1.64,0,0,0-1.14.41,1.37,1.37,0,0,0-.44,1h-.75a2,2,0,0,1,.67-1.51,2.39,2.39,0,0,1,1.69-.63,2.29,2.29,0,0,1,1.67.56,2.16,2.16,0,0,1,.56,1.61v3.57a4.9,4.9,0,0,0,.2,1.6v.08Zm-2.05-.58a2,2,0,0,0,1.17-.35,1.89,1.89,0,0,0,.74-.91V49.58H223.3a2.39,2.39,0,0,0-1.54.45,1.48,1.48,0,0,0-.52,1.19C221.24,52.15,221.68,52.61,222.57,52.61Z"/><path class="cls-1" d="M230.2,52l1.74-6.05h.8l-2.56,8.45-.14.4q-.53,1.38-1.59,1.38a1.82,1.82,0,0,1-.54-.1v-.69a1,1,0,0,0,.35,0,1.13,1.13,0,0,0,.79-.29,2,2,0,0,0,.51-.93l.31-1-2.29-7.24h.82Z"/><path class="cls-1" d="M25.9.78l.69,10.3H25.9q-1.39-4.62-4-6.66a9.66,9.66,0,0,0-6.17-2,10,10,0,0,0-5.45,1.53A10.15,10.15,0,0,0,6.49,8.8a21.82,21.82,0,0,0-1.4,8.34,17.72,17.72,0,0,0,1.32,7.13,9.84,9.84,0,0,0,4,4.62,11.41,11.41,0,0,0,6,1.61,10.52,10.52,0,0,0,5.21-1.26,17.22,17.22,0,0,0,5-5l.69.45A15.92,15.92,0,0,1,22,30.59a13.45,13.45,0,0,1-7.21,1.88q-7.53,0-11.67-5.59A16,16,0,0,1,0,17.09,17.43,17.43,0,0,1,2,8.76a14.72,14.72,0,0,1,5.6-5.89A15.16,15.16,0,0,1,15.42.78,14.3,14.3,0,0,1,21.9,2.39a3.42,3.42,0,0,0,1.34.49,1.49,1.49,0,0,0,1.05-.42A3.45,3.45,0,0,0,25.11.78Z"/><path class="cls-1" d="M41.9,28.82a33.17,33.17,0,0,1-4,2.82,6.06,6.06,0,0,1-2.57.56,4.65,4.65,0,0,1-3.5-1.45,5.38,5.38,0,0,1-1.37-3.83,4.85,4.85,0,0,1,.67-2.59,9,9,0,0,1,3.18-2.86,50.23,50.23,0,0,1,7.55-3.26v-.8c0-2-.33-3.45-1-4.2a3.49,3.49,0,0,0-2.82-1.14,3.17,3.17,0,0,0-2.24.76A2.28,2.28,0,0,0,35,14.57l.05,1.29a2.23,2.23,0,0,1-.53,1.59,1.81,1.81,0,0,1-1.37.56,1.73,1.73,0,0,1-1.35-.58,2.3,2.3,0,0,1-.53-1.59,4.58,4.58,0,0,1,2-3.53,8.5,8.5,0,0,1,5.52-1.61,9.63,9.63,0,0,1,4.47.92,4.23,4.23,0,0,1,1.94,2.17,12.16,12.16,0,0,1,.4,3.93v7a33.12,33.12,0,0,0,.11,3.58,1.58,1.58,0,0,0,.37.89.87.87,0,0,0,.59.22,1.18,1.18,0,0,0,.63-.16,13.11,13.11,0,0,0,1.81-1.63v1.25q-2.51,3.36-4.78,3.36a2.18,2.18,0,0,1-1.74-.76A4.06,4.06,0,0,1,41.9,28.82Zm0-1.45v-7.8a45.76,45.76,0,0,0-4.36,1.9A7.55,7.55,0,0,0,35,23.53a4,4,0,0,0-.76,2.34,3.8,3.8,0,0,0,1,2.67,2.92,2.92,0,0,0,2.22,1.07Q39.13,29.61,41.9,27.37Z"/><path class="cls-1" d="M63.84,10.7v7H63.1a9,9,0,0,0-2.18-4.46A4.89,4.89,0,0,0,57.54,12a3.74,3.74,0,0,0-2.53.83,2.39,2.39,0,0,0-1,1.83,3.3,3.3,0,0,0,.72,2.14,7.89,7.89,0,0,0,2.81,1.95l3.26,1.59q4.54,2.2,4.54,5.83a5.53,5.53,0,0,1-2.11,4.5,7.34,7.34,0,0,1-4.73,1.71,16.14,16.14,0,0,1-4.29-.67A4.33,4.33,0,0,0,53,31.5a.89.89,0,0,0-.8.59H51.5V24.78h.74a8.26,8.26,0,0,0,2.39,4.71,5.78,5.78,0,0,0,4,1.59,3.56,3.56,0,0,0,2.51-.9,2.87,2.87,0,0,0,1-2.18A3.5,3.5,0,0,0,61,25.4a19.29,19.29,0,0,0-4.33-2.65,12.78,12.78,0,0,1-4.24-2.91,5,5,0,0,1-1-3.22,5.66,5.66,0,0,1,1.74-4.22,6.12,6.12,0,0,1,4.48-1.7,10.24,10.24,0,0,1,2.92.52,7.05,7.05,0,0,0,1.52.33.85.85,0,0,0,.56-.16,2.13,2.13,0,0,0,.47-.69Z"/><path class="cls-1" d="M80,28.82a32.57,32.57,0,0,1-4,2.82,6.1,6.1,0,0,1-2.57.56A4.64,4.64,0,0,1,70,30.75a5.38,5.38,0,0,1-1.37-3.83,4.85,4.85,0,0,1,.67-2.59,9,9,0,0,1,3.18-2.86A50,50,0,0,1,80,18.21v-.8c0-2-.32-3.45-1-4.2a3.51,3.51,0,0,0-2.82-1.14,3.17,3.17,0,0,0-2.24.76,2.28,2.28,0,0,0-.85,1.74l.05,1.29a2.23,2.23,0,0,1-.53,1.59,1.81,1.81,0,0,1-1.37.56,1.73,1.73,0,0,1-1.35-.58,2.3,2.3,0,0,1-.53-1.59,4.58,4.58,0,0,1,2-3.53,8.5,8.5,0,0,1,5.52-1.61,9.56,9.56,0,0,1,4.46.92,4.2,4.2,0,0,1,2,2.17,12.16,12.16,0,0,1,.4,3.93v7a33.12,33.12,0,0,0,.11,3.58,1.58,1.58,0,0,0,.37.89.87.87,0,0,0,.59.22,1.18,1.18,0,0,0,.63-.16,13.11,13.11,0,0,0,1.81-1.63v1.25q-2.5,3.36-4.78,3.36a2.22,2.22,0,0,1-1.75-.76A4.19,4.19,0,0,1,80,28.82Zm0-1.45v-7.8a46.4,46.4,0,0,0-4.35,1.9,7.55,7.55,0,0,0-2.53,2.06,4,4,0,0,0-.76,2.34,3.8,3.8,0,0,0,1,2.67,2.92,2.92,0,0,0,2.22,1.07Q77.25,29.61,80,27.37Z"/><path class="cls-1" d="M126.82.78l.79,9.57h-.79A13,13,0,0,0,123.76,5a9.59,9.59,0,0,0-7-2.61A9.87,9.87,0,0,0,108,6.93a16.45,16.45,0,0,0-2.52,9.2A18.35,18.35,0,0,0,107.16,24a11.75,11.75,0,0,0,4.39,5.24A10.55,10.55,0,0,0,117.13,31a12.53,12.53,0,0,0,3.24-.43,12.7,12.7,0,0,0,3-1.25V20.51a8.14,8.14,0,0,0-.34-3A2.29,2.29,0,0,0,122,16.46a6.07,6.07,0,0,0-2.55-.37v-.85h11.73v.85h-.56a2.48,2.48,0,0,0-2.39,1.16,7.79,7.79,0,0,0-.45,3.26v9.27a22.24,22.24,0,0,1-5.07,2,22.29,22.29,0,0,1-5.57.65q-8.77,0-13.33-5.64a15,15,0,0,1-3.42-9.74,16.29,16.29,0,0,1,1.92-7.66,16.34,16.34,0,0,1,6.25-6.7A15.31,15.31,0,0,1,116.39.78a15.52,15.52,0,0,1,3,.27,27.91,27.91,0,0,1,3.83,1.18,5.9,5.9,0,0,0,1.67.47.89.89,0,0,0,.73-.39A3,3,0,0,0,126,.78Z"/><path class="cls-1" d="M144.81,28.82a33.43,33.43,0,0,1-3.95,2.82,6.1,6.1,0,0,1-2.57.56,4.64,4.64,0,0,1-3.5-1.45,5.34,5.34,0,0,1-1.37-3.83,4.85,4.85,0,0,1,.67-2.59,9,9,0,0,1,3.18-2.86,50,50,0,0,1,7.54-3.26v-.8c0-2-.32-3.45-1-4.2A3.51,3.51,0,0,0,141,12.07a3.14,3.14,0,0,0-2.23.76,2.25,2.25,0,0,0-.85,1.74l0,1.29a2.22,2.22,0,0,1-.52,1.59,1.81,1.81,0,0,1-1.37.56,1.73,1.73,0,0,1-1.36-.58,2.29,2.29,0,0,1-.52-1.59,4.56,4.56,0,0,1,2-3.53,8.52,8.52,0,0,1,5.52-1.61,9.57,9.57,0,0,1,4.47.92,4.2,4.2,0,0,1,1.95,2.17,12.46,12.46,0,0,1,.4,3.93v7a33.12,33.12,0,0,0,.11,3.58,1.51,1.51,0,0,0,.37.89.87.87,0,0,0,.59.22,1.18,1.18,0,0,0,.63-.16A13.75,13.75,0,0,0,152,27.57v1.25c-1.67,2.24-3.27,3.36-4.78,3.36a2.21,2.21,0,0,1-1.75-.76A4.19,4.19,0,0,1,144.81,28.82Zm0-1.45v-7.8a47,47,0,0,0-4.36,1.9,7.61,7.61,0,0,0-2.52,2.06,3.94,3.94,0,0,0-.76,2.34,3.8,3.8,0,0,0,1,2.67,2.91,2.91,0,0,0,2.21,1.07Q142,29.61,144.81,27.37Z"/><path class="cls-1" d="M159.49,15q3.6-4.33,6.86-4.34a4.89,4.89,0,0,1,2.88.84,5.62,5.62,0,0,1,1.93,2.76,13,13,0,0,1,.49,4.11v8.74a7.32,7.32,0,0,0,.31,2.63,1.83,1.83,0,0,0,.79.88,4.52,4.52,0,0,0,2,.31v.8H164.65V31h.43a3.41,3.41,0,0,0,2-.44,2.29,2.29,0,0,0,.79-1.28,13.08,13.08,0,0,0,.09-2.1V18.77a8.45,8.45,0,0,0-.73-4.06,2.59,2.59,0,0,0-2.44-1.26c-1.78,0-3.54,1-5.3,2.91V27.15a7.53,7.53,0,0,0,.25,2.57,2.05,2.05,0,0,0,.86,1,5.31,5.31,0,0,0,2.22.3v.8H152.7V31h.45a2.43,2.43,0,0,0,2.11-.79,5.85,5.85,0,0,0,.55-3v-7.6a33.14,33.14,0,0,0-.17-4.49,2,2,0,0,0-.52-1.1,1.41,1.41,0,0,0-.92-.29,4.39,4.39,0,0,0-1.5.34l-.34-.8,6.17-2.51h1Z"/><path class="cls-1" d="M179.85,19a10.47,10.47,0,0,0,2.21,7.15,6.75,6.75,0,0,0,5.25,2.6,5.69,5.69,0,0,0,3.5-1.11,8.17,8.17,0,0,0,2.49-3.79l.69.45a10.62,10.62,0,0,1-2.72,5.57,7.29,7.29,0,0,1-5.66,2.52,8.26,8.26,0,0,1-6.31-2.87,11,11,0,0,1-2.63-7.72q0-5.25,2.7-8.19a8.77,8.77,0,0,1,6.76-2.94A7.57,7.57,0,0,1,191.78,13,8.32,8.32,0,0,1,194,19Zm0-1.29h9.47a8.54,8.54,0,0,0-.47-2.77,4.46,4.46,0,0,0-1.66-2,4.17,4.17,0,0,0-2.31-.71,4.6,4.6,0,0,0-3.32,1.44A6.22,6.22,0,0,0,179.85,17.72Z"/><path class="cls-1" d="M209.94,10.7v7h-.73A9,9,0,0,0,207,13.21,4.92,4.92,0,0,0,203.64,12a3.73,3.73,0,0,0-2.52.83,2.39,2.39,0,0,0-1,1.83,3.34,3.34,0,0,0,.71,2.14,7.86,7.86,0,0,0,2.82,1.95L207,20.36c3,1.47,4.54,3.41,4.54,5.83a5.53,5.53,0,0,1-2.11,4.5,7.34,7.34,0,0,1-4.73,1.71,16.14,16.14,0,0,1-4.29-.67,4.33,4.33,0,0,0-1.21-.23.89.89,0,0,0-.8.59h-.74V24.78h.74a8.26,8.26,0,0,0,2.39,4.71,5.76,5.76,0,0,0,3.95,1.59,3.57,3.57,0,0,0,2.52-.9,2.87,2.87,0,0,0,1-2.18,3.5,3.5,0,0,0-1.08-2.6,19.53,19.53,0,0,0-4.33-2.65,12.78,12.78,0,0,1-4.24-2.91,5,5,0,0,1-1-3.22,5.69,5.69,0,0,1,1.73-4.22,6.15,6.15,0,0,1,4.48-1.7,10.3,10.3,0,0,1,2.93.52,7.05,7.05,0,0,0,1.52.33.87.87,0,0,0,.56-.16,2.13,2.13,0,0,0,.47-.69Z"/><path class="cls-1" d="M220.54,0V15a17.23,17.23,0,0,1,3.93-3.5,6.17,6.17,0,0,1,2.9-.77,4.79,4.79,0,0,1,3,1,5.69,5.69,0,0,1,1.85,3,21.45,21.45,0,0,1,.43,5.23v7.24a7.59,7.59,0,0,0,.31,2.66,1.78,1.78,0,0,0,.76.85,4.27,4.27,0,0,0,2,.31v.8H225.63V31h.47a3.36,3.36,0,0,0,2-.44,2.34,2.34,0,0,0,.78-1.28,16.31,16.31,0,0,0,.07-2.1V19.91a17.33,17.33,0,0,0-.35-4.4,3,3,0,0,0-1.11-1.58,3.11,3.11,0,0,0-1.83-.52,5.14,5.14,0,0,0-2.28.58,11,11,0,0,0-2.83,2.34V27.15a8.32,8.32,0,0,0,.23,2.61,1.9,1.9,0,0,0,.87.86,5,5,0,0,0,2.2.35v.8H213.7V31a4.41,4.41,0,0,0,2.14-.43,1.57,1.57,0,0,0,.72-.84,7.7,7.7,0,0,0,.27-2.55V8.62a31.1,31.1,0,0,0-.17-4.31,1.91,1.91,0,0,0-.51-1.09,1.4,1.4,0,0,0-.93-.29,5.71,5.71,0,0,0-1.52.35l-.31-.78L219.51,0Z"/><path class="cls-1" d="M249,28.82a33.43,33.43,0,0,1-3.95,2.82,6.1,6.1,0,0,1-2.57.56,4.64,4.64,0,0,1-3.5-1.45,5.34,5.34,0,0,1-1.37-3.83,4.85,4.85,0,0,1,.67-2.59,9,9,0,0,1,3.18-2.86A50,50,0,0,1,249,18.21v-.8c0-2-.32-3.45-1-4.2a3.51,3.51,0,0,0-2.83-1.14,3.16,3.16,0,0,0-2.23.76,2.25,2.25,0,0,0-.85,1.74l0,1.29a2.23,2.23,0,0,1-.53,1.59,1.81,1.81,0,0,1-1.37.56,1.73,1.73,0,0,1-1.36-.58,2.29,2.29,0,0,1-.52-1.59,4.56,4.56,0,0,1,2-3.53,8.54,8.54,0,0,1,5.52-1.61,9.57,9.57,0,0,1,4.47.92,4.2,4.2,0,0,1,1.95,2.17,12.46,12.46,0,0,1,.4,3.93v7a33.12,33.12,0,0,0,.11,3.58,1.58,1.58,0,0,0,.37.89.87.87,0,0,0,.59.22,1.18,1.18,0,0,0,.63-.16,13.75,13.75,0,0,0,1.81-1.63v1.25c-1.67,2.24-3.27,3.36-4.78,3.36a2.21,2.21,0,0,1-1.75-.76A4.19,4.19,0,0,1,249,28.82Zm0-1.45v-7.8a45.16,45.16,0,0,0-4.35,1.9,7.55,7.55,0,0,0-2.53,2.06,3.94,3.94,0,0,0-.76,2.34,3.8,3.8,0,0,0,1,2.67,2.91,2.91,0,0,0,2.21,1.07C245.67,29.61,247.15,28.86,249,27.37Z"/></g></g></svg>