<svg version="1.2" xmlns="http://www.w3.org/2000/svg" viewBox="0 0 210 210" width="210" height="210">
	<title>Proyecto nuevo</title>
	<style>
		.s0 { fill: #88499c } 
		.s1 { fill: #fefefe } 
	</style>
	<g id="&lt;Group&gt; copy 26">
		<g id="&lt;Group&gt;">
			<g id="&lt;Group&gt;">
				<path id="&lt;Path&gt;" class="s0" d="m113.8 199.1c0.5 0.6 0.5 1.5-0.1 2-0.6 0.6-1.6 0.5-2.1-0.1-0.5-0.6-0.5-1.5 0.1-2.1 0.6-0.5 1.6-0.4 2.1 0.2z"/>
				<path id="&lt;Path&gt;" class="s0" d="m101.7 195.3c0.6 0.6 0.5 1.5-0.1 2.1-0.6 0.5-1.5 0.4-2.1-0.2-0.5-0.6-0.4-1.5 0.2-2 0.6-0.6 1.5-0.5 2 0.1z"/>
				<path id="&lt;Path&gt;" class="s0" d="m100.3 176.9c0.5 0.6 0.4 1.6-0.2 2.1-0.6 0.5-1.5 0.5-2-0.2-0.6-0.6-0.5-1.5 0.1-2 0.6-0.5 1.5-0.5 2.1 0.1z"/>
				<path id="&lt;Path&gt;" class="s0" d="m90 191.7c0.5 0.6 0.5 1.5-0.1 2.1-0.7 0.5-1.6 0.4-2.1-0.2-0.5-0.6-0.5-1.5 0.1-2 0.6-0.6 1.6-0.5 2.1 0.1z"/>
				<path id="&lt;Path&gt;" class="s0" d="m95 197.6c0.5 0.6 0.4 1.6-0.2 2.1-0.6 0.5-1.5 0.5-2-0.2-0.6-0.6-0.5-1.5 0.1-2 0.6-0.5 1.5-0.5 2.1 0.1z"/>
				<path id="&lt;Path&gt;" class="s0" d="m93.5 184.3c0.5 0.6 0.5 1.5-0.1 2.1-0.7 0.5-1.6 0.4-2.1-0.2-0.5-0.6-0.5-1.5 0.1-2 0.6-0.6 1.6-0.5 2.1 0.1z"/>
				<path id="&lt;Path&gt;" class="s0" d="m107.5 191.3c0.8 0.8 0.7 2.2-0.2 3-0.9 0.8-2.2 0.7-3-0.2-0.8-0.9-0.7-2.3 0.2-3 0.9-0.8 2.3-0.7 3 0.2z"/>
				<path id="&lt;Path&gt;" class="s0" d="m107.5 183.9c0.8 0.9 0.7 2.2-0.2 3-0.9 0.8-2.2 0.7-3-0.2-0.8-0.9-0.7-2.3 0.2-3 0.9-0.8 2.3-0.7 3 0.2z"/>
				<path id="&lt;Path&gt;" class="s0" d="m96.1 189.1c0.8 0.9 0.7 2.3-0.2 3-0.8 0.8-2.2 0.7-3-0.2-0.8-0.9-0.7-2.2 0.2-3 0.9-0.8 2.3-0.7 3 0.2z"/>
				<path id="&lt;Path&gt;" class="s0" d="m90.5 168.8c0.8 0.9 0.7 2.2-0.2 3-0.9 0.8-2.2 0.7-3-0.2-0.8-0.9-0.7-2.2 0.2-3 0.9-0.8 2.2-0.7 3 0.2z"/>
				<path id="&lt;Path&gt;" class="s0" d="m101.3 183.4c1 1.2 0.9 3-0.3 4-1.2 1-2.9 0.9-4-0.3-1-1.1-0.9-2.9 0.3-3.9 1.2-1.1 3-1 4 0.2z"/>
				<path id="&lt;Path&gt;" class="s0" d="m89.1 182.4c1.1 1.1 0.9 2.9-0.2 3.9-1.2 1.1-3 0.9-4-0.2-1-1.2-0.9-3 0.3-4 1.1-1 2.9-0.9 3.9 0.3z"/>
				<path id="&lt;Path&gt;" class="s0" d="m95 175.6c1.3 1.4 1.2 3.7-0.3 4.9-1.5 1.3-3.7 1.1-4.9-0.3-1.3-1.5-1.2-3.7 0.3-4.9 1.5-1.3 3.7-1.2 4.9 0.3z"/>
				<path id="&lt;Path&gt;" class="s0" d="m86 171.6c1.5 1.8 1.3 4.4-0.4 5.9-1.8 1.6-4.4 1.4-5.9-0.4-1.5-1.7-1.3-4.3 0.4-5.9 1.7-1.5 4.4-1.3 5.9 0.4z"/>
				<path id="&lt;Path&gt;" class="s0" d="m80.2 161c1.8 2 1.6 5.1-0.4 6.9-2 1.7-5.1 1.5-6.9-0.5-1.7-2-1.5-5.1 0.5-6.9 2-1.7 5.1-1.5 6.8 0.5z"/>
				<path id="&lt;Path&gt;" class="s0" d="m74.6 150.2c-2-2.4-5.5-2.6-7.8-0.6-2.3 2-2.6 5.5-0.6 7.8 2 2.3 5.5 2.6 7.8 0.6 2.4-2 2.6-5.5 0.6-7.8z"/>
			</g>
			<g id="&lt;Group&gt;">
				<path id="&lt;Path&gt;" class="s0" d="m82.9 198.2c0.3 0.7-0.1 1.6-0.8 1.9-0.7 0.3-1.6 0-1.9-0.8-0.3-0.7 0-1.6 0.7-1.9 0.8-0.3 1.6 0 2 0.8z"/>
				<path id="&lt;Path&gt;" class="s0" d="m72.5 190.8c0.4 0.8 0 1.6-0.7 2-0.8 0.3-1.6-0.1-1.9-0.8-0.4-0.8 0-1.6 0.7-1.9 0.8-0.3 1.6 0 1.9 0.7z"/>
				<path id="&lt;Path&gt;" class="s0" d="m76.8 172.9c0.4 0.8 0 1.6-0.7 1.9-0.8 0.3-1.6 0-1.9-0.7-0.4-0.8 0-1.6 0.7-2 0.8-0.3 1.6 0.1 1.9 0.8z"/>
				<path id="&lt;Path&gt;" class="s0" d="m62.5 183.8c0.3 0.7 0 1.6-0.8 1.9-0.7 0.3-1.6 0-1.9-0.8-0.3-0.7 0.1-1.6 0.8-1.9 0.7-0.3 1.6 0.1 1.9 0.8z"/>
				<path id="&lt;Path&gt;" class="s0" d="m65.4 191c0.3 0.7 0 1.6-0.8 1.9-0.7 0.3-1.6 0-1.9-0.8-0.3-0.7 0-1.6 0.8-1.9 0.7-0.3 1.6 0 1.9 0.8z"/>
				<path id="&lt;Path&gt;" class="s0" d="m68.1 177.9c0.3 0.7 0 1.5-0.8 1.9-0.7 0.3-1.5-0.1-1.9-0.8-0.3-0.7 0.1-1.6 0.8-1.9 0.7-0.3 1.6 0 1.9 0.8z"/>
				<path id="&lt;Path&gt;" class="s0" d="m79.3 188.8c0.5 1.1 0 2.3-1.1 2.8-1.1 0.5-2.3 0-2.8-1.1-0.5-1.1 0-2.4 1.1-2.8 1.1-0.5 2.4 0 2.8 1.1z"/>
				<path id="&lt;Path&gt;" class="s0" d="m81.6 181.8c0.5 1.1 0 2.3-1.1 2.8-1.1 0.4-2.4-0.1-2.8-1.2-0.5-1 0-2.3 1.1-2.8 1.1-0.4 2.4 0.1 2.8 1.2z"/>
				<path id="&lt;Path&gt;" class="s0" d="m69.2 183.2c0.4 1.1-0.1 2.4-1.2 2.8-1.1 0.5-2.3 0-2.8-1.1-0.4-1.1 0.1-2.3 1.2-2.8 1-0.5 2.3 0 2.8 1.1z"/>
				<path id="&lt;Path&gt;" class="s0" d="m70.1 162.2c0.4 1.1-0.1 2.3-1.2 2.8-1 0.4-2.3-0.1-2.8-1.1-0.4-1.1 0.1-2.4 1.2-2.9 1.1-0.4 2.3 0.1 2.8 1.2z"/>
				<path id="&lt;Path&gt;" class="s0" d="m75.8 179.4c0.6 1.4 0 3.1-1.5 3.7-1.4 0.6-3.1 0-3.7-1.5-0.6-1.4 0.1-3.1 1.5-3.7 1.4-0.6 3.1 0.1 3.7 1.5z"/>
				<path id="&lt;Path&gt;" class="s0" d="m64.6 174.6c0.6 1.5-0.1 3.1-1.5 3.7-1.4 0.7-3.1 0-3.7-1.4-0.6-1.5 0.1-3.1 1.5-3.7 1.4-0.7 3.1 0 3.7 1.4z"/>
				<path id="&lt;Path&gt;" class="s0" d="m72.3 170c0.7 1.8-0.1 3.9-1.9 4.6-1.7 0.8-3.8 0-4.6-1.8-0.7-1.8 0.1-3.9 1.9-4.6 1.8-0.8 3.8 0 4.6 1.8z"/>
				<path id="&lt;Path&gt;" class="s0" d="m64.9 163.5c0.9 2.1-0.1 4.6-2.2 5.5-2.1 0.9-4.6-0.1-5.5-2.2-0.9-2.2 0.1-4.6 2.2-5.5 2.1-0.9 4.6 0.1 5.5 2.2z"/>
				<path id="&lt;Path&gt;" class="s0" d="m62.7 151.6c1.1 2.5-0.1 5.3-2.5 6.4-2.5 1-5.4-0.1-6.4-2.6-1.1-2.5 0.1-5.3 2.5-6.4 2.5-1 5.4 0.1 6.4 2.6z"/>
				<path id="&lt;Path&gt;" class="s0" d="m60.7 139.5c-1.2-2.8-4.5-4.1-7.3-2.9-2.8 1.2-4.1 4.4-2.9 7.3 1.2 2.8 4.4 4.1 7.3 2.9 2.8-1.2 4.1-4.5 2.9-7.3z"/>
			</g>
			<g id="&lt;Group&gt;">
				<path id="&lt;Path&gt;" class="s0" d="m53.7 187.7c0.1 0.8-0.5 1.6-1.3 1.6-0.8 0.1-1.5-0.5-1.6-1.3-0.1-0.8 0.5-1.5 1.3-1.6 0.8 0 1.6 0.5 1.6 1.3z"/>
				<path id="&lt;Path&gt;" class="s0" d="m46.2 177.6c0.1 0.8-0.5 1.5-1.3 1.6-0.8 0-1.6-0.6-1.6-1.4-0.1-0.8 0.5-1.5 1.3-1.5 0.8-0.1 1.5 0.5 1.6 1.3z"/>
				<path id="&lt;Path&gt;" class="s0" d="m55.8 161.9c0.1 0.8-0.5 1.5-1.3 1.5-0.8 0.1-1.5-0.5-1.6-1.3-0.1-0.8 0.5-1.5 1.3-1.6 0.8 0 1.5 0.6 1.6 1.4z"/>
				<path id="&lt;Path&gt;" class="s0" d="m38.8 167.8c0.1 0.8-0.5 1.5-1.3 1.6-0.8 0-1.5-0.6-1.6-1.4-0.1-0.8 0.5-1.5 1.3-1.5 0.8-0.1 1.5 0.5 1.6 1.3z"/>
				<path id="&lt;Path&gt;" class="s0" d="m39.3 175.5c0.1 0.8-0.5 1.5-1.3 1.6-0.8 0-1.5-0.5-1.6-1.3 0-0.9 0.6-1.6 1.4-1.6 0.8-0.1 1.5 0.5 1.5 1.3z"/>
				<path id="&lt;Path&gt;" class="s0" d="m46 163.9c0.1 0.8-0.5 1.5-1.3 1.5-0.8 0.1-1.6-0.5-1.6-1.3-0.1-0.8 0.5-1.5 1.3-1.6 0.8 0 1.5 0.6 1.6 1.4z"/>
				<path id="&lt;Path&gt;" class="s0" d="m53.3 177.7c0.1 1.2-0.8 2.2-2 2.4-1.1 0.1-2.2-0.8-2.3-2-0.1-1.2 0.8-2.2 1.9-2.3 1.2-0.1 2.3 0.8 2.4 1.9z"/>
				<path id="&lt;Path&gt;" class="s0" d="m57.6 171.8c0.1 1.1-0.8 2.2-1.9 2.3-1.2 0.1-2.2-0.8-2.4-2-0.1-1.1 0.8-2.2 2-2.3 1.2-0.1 2.2 0.8 2.3 2z"/>
				<path id="&lt;Path&gt;" class="s0" d="m45.3 169.3c0.1 1.2-0.8 2.2-1.9 2.3-1.2 0.1-2.3-0.7-2.4-1.9-0.1-1.2 0.8-2.2 2-2.3 1.2-0.1 2.2 0.7 2.3 1.9z"/>
				<path id="&lt;Path&gt;" class="s0" d="m52.7 149.6c0.1 1.1-0.8 2.2-2 2.3-1.1 0.1-2.2-0.8-2.3-2-0.1-1.1 0.8-2.2 2-2.3 1.1-0.1 2.2 0.8 2.3 2z"/>
				<path id="&lt;Path&gt;" class="s0" d="m52.8 167.7c0.2 1.6-1 2.9-2.5 3.1-1.6 0.1-3-1-3.1-2.6-0.1-1.5 1-2.9 2.6-3 1.5-0.2 2.9 1 3 2.5z"/>
				<path id="&lt;Path&gt;" class="s0" d="m43.6 159.7c0.2 1.6-1 2.9-2.5 3.1-1.6 0.1-3-1-3.1-2.6-0.1-1.5 1-2.9 2.6-3 1.5-0.2 2.9 1 3 2.5z"/>
				<path id="&lt;Path&gt;" class="s0" d="m52.4 157.7c0.1 1.9-1.3 3.6-3.2 3.8-1.9 0.2-3.6-1.2-3.8-3.2-0.2-1.9 1.2-3.6 3.2-3.8 1.9-0.1 3.6 1.3 3.8 3.2z"/>
				<path id="&lt;Path&gt;" class="s0" d="m47.4 149.2c0.2 2.3-1.5 4.3-3.8 4.5-2.3 0.2-4.4-1.5-4.6-3.8-0.2-2.3 1.5-4.3 3.8-4.5 2.3-0.2 4.4 1.5 4.6 3.8z"/>
				<path id="&lt;Path&gt;" class="s0" d="m49 137.2c0.2 2.7-1.8 5.1-4.4 5.3-2.7 0.2-5.1-1.7-5.3-4.4-0.3-2.7 1.7-5.1 4.4-5.3 2.7-0.2 5 1.7 5.3 4.4z"/>
				<path id="&lt;Path&gt;" class="s0" d="m50.8 125.1c-0.3-3-3-5.3-6.1-5-3 0.2-5.3 2.9-5 6 0.3 3 3 5.3 6 5 3.1-0.3 5.3-2.9 5.1-6z"/>
			</g>
			<g id="&lt;Group&gt;">
				<path id="&lt;Path&gt;" class="s0" d="m29.2 168.8c-0.1 0.8-0.9 1.3-1.7 1.1-0.8-0.2-1.3-0.9-1.1-1.7 0.2-0.8 1-1.3 1.7-1.1 0.8 0.2 1.3 0.9 1.1 1.7z"/>
				<path id="&lt;Path&gt;" class="s0" d="m25.2 156.8c-0.2 0.8-1 1.3-1.7 1.1-0.8-0.2-1.3-0.9-1.1-1.7 0.1-0.8 0.9-1.3 1.7-1.1 0.8 0.2 1.3 0.9 1.1 1.7z"/>
				<path id="&lt;Path&gt;" class="s0" d="m39.2 144.8c-0.2 0.8-1 1.3-1.7 1.1-0.8-0.1-1.3-0.9-1.1-1.7 0.1-0.8 0.9-1.3 1.7-1.1 0.8 0.2 1.3 1 1.1 1.7z"/>
				<path id="&lt;Path&gt;" class="s0" d="m21.2 145.2c-0.2 0.8-0.9 1.3-1.7 1.1-0.8-0.2-1.3-0.9-1.1-1.7 0.2-0.8 0.9-1.3 1.7-1.1 0.8 0.2 1.3 0.9 1.1 1.7z"/>
				<path id="&lt;Path&gt;" class="s0" d="m19.3 152.7c-0.1 0.8-0.9 1.3-1.7 1.1-0.8-0.2-1.3-0.9-1.1-1.7 0.2-0.8 1-1.3 1.7-1.1 0.8 0.2 1.3 0.9 1.1 1.7z"/>
				<path id="&lt;Path&gt;" class="s0" d="m29.3 143.7c-0.2 0.8-1 1.3-1.8 1.1-0.8-0.2-1.3-1-1.1-1.7 0.2-0.8 1-1.3 1.8-1.1 0.7 0.1 1.2 0.9 1.1 1.7z"/>
				<path id="&lt;Path&gt;" class="s0" d="m31.9 159.2c-0.3 1.1-1.4 1.8-2.6 1.6-1.1-0.3-1.8-1.4-1.6-2.6 0.3-1.1 1.4-1.9 2.6-1.6 1.1 0.3 1.9 1.4 1.6 2.6z"/>
				<path id="&lt;Path&gt;" class="s0" d="m37.9 154.8c-0.3 1.2-1.4 1.9-2.6 1.6-1.1-0.2-1.9-1.4-1.6-2.5 0.3-1.2 1.4-1.9 2.6-1.6 1.1 0.2 1.8 1.4 1.6 2.5z"/>
				<path id="&lt;Path&gt;" class="s0" d="m26.9 148.7c-0.2 1.1-1.4 1.9-2.5 1.6-1.2-0.3-1.9-1.4-1.6-2.6 0.2-1.1 1.4-1.8 2.5-1.6 1.2 0.3 1.9 1.4 1.6 2.6z"/>
				<path id="&lt;Path&gt;" class="s0" d="m40 132.2c-0.2 1.1-1.4 1.9-2.5 1.6-1.2-0.3-1.9-1.4-1.6-2.6 0.2-1.1 1.4-1.8 2.5-1.6 1.2 0.3 1.9 1.4 1.6 2.6z"/>
				<path id="&lt;Path&gt;" class="s0" d="m34.6 149.5c-0.4 1.5-1.9 2.5-3.4 2.1-1.5-0.3-2.5-1.8-2.1-3.4 0.3-1.5 1.8-2.4 3.3-2.1 1.6 0.4 2.5 1.9 2.2 3.4z"/>
				<path id="&lt;Path&gt;" class="s0" d="m28.3 139c-0.4 1.6-1.9 2.5-3.4 2.2-1.5-0.4-2.5-1.9-2.1-3.4 0.3-1.5 1.8-2.5 3.4-2.1 1.5 0.3 2.4 1.8 2.1 3.3z"/>
				<path id="&lt;Path&gt;" class="s0" d="m37.2 139.8c-0.4 1.9-2.3 3.1-4.2 2.7-1.9-0.5-3-2.3-2.6-4.2 0.4-1.9 2.3-3.1 4.2-2.7 1.9 0.5 3 2.3 2.6 4.2z"/>
				<path id="&lt;Path&gt;" class="s0" d="m35.1 130.2c-0.5 2.2-2.8 3.7-5 3.1-2.3-0.5-3.7-2.7-3.2-5 0.6-2.2 2.8-3.6 5.1-3.1 2.2 0.5 3.6 2.7 3.1 5z"/>
				<path id="&lt;Path&gt;" class="s0" d="m40.3 119.3c-0.6 2.6-3.2 4.2-5.8 3.6-2.6-0.5-4.3-3.2-3.7-5.8 0.6-2.6 3.3-4.2 5.9-3.6 2.6 0.6 4.2 3.2 3.6 5.8z"/>
				<path id="&lt;Path&gt;" class="s0" d="m45.8 108.3c0.7-3-1.2-5.9-4.2-6.6-3-0.7-5.9 1.2-6.6 4.2-0.7 2.9 1.2 5.9 4.1 6.6 3 0.7 6-1.2 6.7-4.2z"/>
			</g>
			<g id="&lt;Group&gt;">
				<path id="&lt;Path&gt;" class="s0" d="m11.8 143.3c-0.4 0.7-1.3 0.9-2 0.5-0.7-0.5-0.9-1.3-0.5-2 0.4-0.7 1.3-1 2-0.5 0.7 0.4 0.9 1.3 0.5 2z"/>
				<path id="&lt;Path&gt;" class="s0" d="m11.7 130.6c-0.5 0.7-1.3 0.9-2 0.5-0.7-0.4-1-1.3-0.5-2 0.4-0.7 1.3-0.9 2-0.5 0.6 0.4 0.9 1.3 0.5 2z"/>
				<path id="&lt;Path&gt;" class="s0" d="m28.7 123.5c-0.4 0.7-1.3 1-2 0.5-0.7-0.4-0.9-1.3-0.5-2 0.4-0.6 1.3-0.9 2-0.5 0.7 0.5 0.9 1.3 0.5 2z"/>
				<path id="&lt;Path&gt;" class="s0" d="m11.5 118.3c-0.5 0.7-1.4 1-2 0.5-0.7-0.4-1-1.3-0.5-2 0.4-0.7 1.3-0.9 2-0.5 0.6 0.5 0.9 1.3 0.5 2z"/>
				<path id="&lt;Path&gt;" class="s0" d="m7.4 124.9c-0.5 0.7-1.4 0.9-2 0.5-0.7-0.4-1-1.3-0.5-2 0.4-0.7 1.3-0.9 2-0.5 0.6 0.4 0.9 1.3 0.5 2z"/>
				<path id="&lt;Path&gt;" class="s0" d="m19.6 119.4c-0.4 0.7-1.3 0.9-2 0.5-0.7-0.4-1-1.3-0.5-2 0.4-0.7 1.3-0.9 2-0.5 0.7 0.4 0.9 1.3 0.5 2z"/>
				<path id="&lt;Path&gt;" class="s0" d="m17.3 134.9c-0.6 1-1.9 1.3-2.9 0.7-1-0.6-1.4-1.9-0.8-2.9 0.6-1 2-1.4 3-0.7 1 0.6 1.3 1.9 0.7 2.9z"/>
				<path id="&lt;Path&gt;" class="s0" d="m24.3 132.6c-0.6 1-1.9 1.4-2.9 0.7-1-0.6-1.3-1.9-0.7-2.9 0.6-1 1.9-1.3 2.9-0.7 1 0.6 1.3 1.9 0.7 2.9z"/>
				<path id="&lt;Path&gt;" class="s0" d="m15.8 123.4c-0.6 1-1.9 1.3-2.9 0.7-1-0.6-1.4-1.9-0.8-2.9 0.7-1 2-1.3 3-0.7 1 0.6 1.3 1.9 0.7 2.9z"/>
				<path id="&lt;Path&gt;" class="s0" d="m33.4 111.7c-0.6 1.1-1.9 1.4-2.9 0.8-1-0.6-1.4-1.9-0.8-2.9 0.6-1.1 1.9-1.4 3-0.8 1 0.6 1.3 1.9 0.7 2.9z"/>
				<path id="&lt;Path&gt;" class="s0" d="m22.8 126.5c-0.8 1.4-2.5 1.8-3.8 1-1.4-0.8-1.8-2.5-1-3.9 0.8-1.3 2.5-1.7 3.9-0.9 1.3 0.8 1.7 2.5 0.9 3.8z"/>
				<path id="&lt;Path&gt;" class="s0" d="m20.1 114.6c-0.8 1.4-2.5 1.8-3.9 1-1.3-0.8-1.8-2.5-1-3.9 0.8-1.3 2.6-1.7 3.9-0.9 1.4 0.8 1.8 2.5 1 3.8z"/>
				<path id="&lt;Path&gt;" class="s0" d="m28.3 118.2c-0.9 1.6-3.1 2.2-4.8 1.2-1.6-1-2.2-3.2-1.2-4.8 1-1.7 3.2-2.2 4.8-1.2 1.7 0.9 2.2 3.1 1.2 4.8z"/>
				<path id="&lt;Path&gt;" class="s0" d="m29.3 108.3c-1.2 2-3.7 2.7-5.7 1.5-2-1.2-2.7-3.8-1.5-5.8 1.2-1.9 3.8-2.6 5.8-1.4 1.9 1.2 2.6 3.8 1.4 5.7z"/>
				<path id="&lt;Path&gt;" class="s0" d="m37.6 99.6c-1.3 2.3-4.3 3-6.6 1.7-2.3-1.4-3.1-4.4-1.7-6.7 1.4-2.3 4.4-3.1 6.7-1.7 2.3 1.4 3 4.4 1.6 6.7z"/>
				<path id="&lt;Path&gt;" class="s0" d="m46.2 90.8c1.6-2.6 0.7-6-1.9-7.6-2.6-1.5-6-0.7-7.6 1.9-1.6 2.7-0.7 6.1 1.9 7.7 2.6 1.5 6 0.7 7.6-2z"/>
			</g>
			<g id="&lt;Group&gt;">
				<path id="&lt;Path&gt;" class="s0" d="m3.1 113.6c-0.6 0.5-1.5 0.4-2.1-0.2-0.5-0.6-0.4-1.5 0.2-2 0.6-0.6 1.5-0.5 2 0.1 0.6 0.6 0.5 1.5-0.1 2.1z"/>
				<path id="&lt;Path&gt;" class="s0" d="m6.9 101.5c-0.6 0.5-1.5 0.4-2.1-0.2-0.5-0.6-0.4-1.5 0.2-2 0.6-0.5 1.5-0.5 2 0.1 0.6 0.6 0.5 1.5-0.1 2.1z"/>
				<path id="&lt;Path&gt;" class="s0" d="m25.3 100c-0.6 0.6-1.6 0.5-2.1-0.1-0.5-0.6-0.5-1.5 0.1-2.1 0.6-0.5 1.6-0.4 2.1 0.2 0.5 0.6 0.5 1.5-0.1 2z"/>
				<path id="&lt;Path&gt;" class="s0" d="m10.5 89.8c-0.6 0.5-1.5 0.4-2.1-0.2-0.5-0.6-0.4-1.5 0.2-2 0.6-0.6 1.5-0.5 2 0.1 0.6 0.6 0.5 1.5-0.1 2.1z"/>
				<path id="&lt;Path&gt;" class="s0" d="m4.6 94.7c-0.6 0.5-1.6 0.5-2.1-0.1-0.5-0.6-0.5-1.6 0.1-2.1 0.6-0.5 1.6-0.5 2.1 0.2 0.5 0.6 0.5 1.5-0.1 2z"/>
				<path id="&lt;Path&gt;" class="s0" d="m17.9 93.3c-0.6 0.5-1.6 0.4-2.1-0.2-0.5-0.6-0.5-1.5 0.2-2 0.6-0.6 1.5-0.5 2 0.1 0.5 0.6 0.5 1.5-0.1 2.1z"/>
				<path id="&lt;Path&gt;" class="s0" d="m10.9 107.3c-0.9 0.8-2.2 0.7-3-0.2-0.8-0.9-0.7-2.2 0.2-3 0.9-0.8 2.3-0.7 3 0.2 0.8 0.9 0.7 2.2-0.2 3z"/>
				<path id="&lt;Path&gt;" class="s0" d="m18.3 107.3c-0.9 0.8-2.2 0.7-3-0.2-0.8-0.9-0.7-2.2 0.2-3 0.9-0.8 2.2-0.7 3 0.2 0.8 0.9 0.7 2.2-0.2 3z"/>
				<path id="&lt;Path&gt;" class="s0" d="m13.1 95.9c-0.9 0.8-2.3 0.7-3-0.2-0.8-0.9-0.7-2.2 0.2-3 0.9-0.8 2.2-0.7 3 0.2 0.8 0.9 0.7 2.2-0.2 3z"/>
				<path id="&lt;Path&gt;" class="s0" d="m33.4 90.3c-0.9 0.7-2.3 0.7-3-0.2-0.8-0.9-0.7-2.3 0.2-3.1 0.9-0.7 2.2-0.6 3 0.2 0.8 0.9 0.7 2.3-0.2 3.1z"/>
				<path id="&lt;Path&gt;" class="s0" d="m18.8 101c-1.2 1.1-3 0.9-4-0.2-1-1.2-0.9-3 0.3-4 1.1-1 2.9-0.9 3.9 0.3 1.1 1.1 0.9 2.9-0.2 3.9z"/>
				<path id="&lt;Path&gt;" class="s0" d="m19.8 88.9c-1.1 1-2.9 0.9-3.9-0.3-1.1-1.1-0.9-2.9 0.2-3.9 1.2-1.1 3-0.9 4 0.2 1 1.2 0.9 3-0.3 4z"/>
				<path id="&lt;Path&gt;" class="s0" d="m26.6 94.8c-1.5 1.3-3.7 1.1-4.9-0.3-1.3-1.5-1.2-3.7 0.3-5 1.5-1.3 3.7-1.1 4.9 0.4 1.3 1.4 1.2 3.6-0.3 4.9z"/>
				<path id="&lt;Path&gt;" class="s0" d="m30.5 85.7c-1.7 1.6-4.3 1.4-5.8-0.4-1.6-1.7-1.4-4.3 0.4-5.9 1.7-1.5 4.3-1.3 5.9 0.5 1.5 1.7 1.3 4.3-0.5 5.8z"/>
				<path id="&lt;Path&gt;" class="s0" d="m41.2 80c-2 1.8-5.1 1.6-6.9-0.5-1.7-2-1.5-5.1 0.5-6.8 2-1.8 5.1-1.6 6.9 0.4 1.7 2.1 1.5 5.1-0.5 6.9z"/>
				<path id="&lt;Path&gt;" class="s0" d="m52 74.3c2.3-2 2.6-5.5 0.6-7.8-2-2.3-5.5-2.5-7.8-0.5-2.4 2-2.6 5.5-0.6 7.8 2 2.3 5.5 2.6 7.8 0.5z"/>
			</g>
			<g id="&lt;Group&gt;">
				<path id="&lt;Path&gt;" class="s0" d="m4 82.6c-0.7 0.3-1.6 0-1.9-0.7-0.3-0.8 0-1.6 0.8-2 0.7-0.3 1.6 0.1 1.9 0.8 0.3 0.7 0 1.6-0.8 1.9z"/>
				<path id="&lt;Path&gt;" class="s0" d="m11.3 72.3c-0.7 0.3-1.5 0-1.9-0.8-0.3-0.7 0.1-1.6 0.8-1.9 0.7-0.3 1.6 0.1 1.9 0.8 0.3 0.7 0 1.6-0.8 1.9z"/>
				<path id="&lt;Path&gt;" class="s0" d="m29.3 76.6c-0.8 0.3-1.6 0-1.9-0.8-0.4-0.7 0-1.6 0.7-1.9 0.8-0.3 1.6 0 1.9 0.8 0.4 0.7 0 1.6-0.7 1.9z"/>
				<path id="&lt;Path&gt;" class="s0" d="m18.4 62.3c-0.7 0.3-1.6-0.1-1.9-0.8-0.3-0.7 0-1.6 0.7-1.9 0.8-0.3 1.6 0 2 0.8 0.3 0.7-0.1 1.5-0.8 1.9z"/>
				<path id="&lt;Path&gt;" class="s0" d="m11.2 65.1c-0.7 0.4-1.6 0-1.9-0.7-0.3-0.8 0-1.6 0.8-1.9 0.7-0.3 1.6 0 1.9 0.7 0.3 0.8 0 1.6-0.8 1.9z"/>
				<path id="&lt;Path&gt;" class="s0" d="m24.3 67.9c-0.7 0.3-1.6-0.1-1.9-0.8-0.3-0.7 0.1-1.6 0.8-1.9 0.7-0.3 1.6 0 1.9 0.8 0.3 0.7 0 1.6-0.8 1.9z"/>
				<path id="&lt;Path&gt;" class="s0" d="m13.4 79.1c-1.1 0.5-2.3 0-2.8-1.1-0.5-1.1 0-2.4 1.1-2.8 1.1-0.5 2.4 0 2.8 1.1 0.5 1.1 0 2.3-1.1 2.8z"/>
				<path id="&lt;Path&gt;" class="s0" d="m20.4 81.4c-1.1 0.4-2.3-0.1-2.8-1.2-0.4-1 0.1-2.3 1.1-2.8 1.1-0.4 2.4 0.1 2.9 1.2 0.4 1.1-0.1 2.3-1.2 2.8z"/>
				<path id="&lt;Path&gt;" class="s0" d="m19 68.9c-1.1 0.5-2.4 0-2.9-1.1-0.4-1.1 0.1-2.4 1.2-2.8 1.1-0.5 2.3 0 2.8 1.1 0.4 1.1-0.1 2.4-1.1 2.8z"/>
				<path id="&lt;Path&gt;" class="s0" d="m40 69.8c-1.1 0.5-2.3 0-2.8-1.1-0.5-1.1 0.1-2.3 1.1-2.8 1.1-0.5 2.4 0 2.8 1.1 0.5 1.1 0 2.4-1.1 2.8z"/>
				<path id="&lt;Path&gt;" class="s0" d="m22.8 75.6c-1.5 0.6-3.1-0.1-3.7-1.5-0.6-1.5 0-3.1 1.5-3.7 1.4-0.6 3.1 0 3.7 1.5 0.6 1.4-0.1 3.1-1.5 3.7z"/>
				<path id="&lt;Path&gt;" class="s0" d="m27.5 64.3c-1.4 0.7-3 0-3.7-1.4-0.6-1.5 0.1-3.1 1.5-3.7 1.5-0.7 3.1 0 3.7 1.4 0.6 1.5 0 3.1-1.5 3.7z"/>
				<path id="&lt;Path&gt;" class="s0" d="m32.2 72c-1.8 0.8-3.9 0-4.6-1.8-0.8-1.8 0-3.8 1.8-4.6 1.8-0.8 3.9 0.1 4.6 1.8 0.8 1.8-0.1 3.9-1.8 4.6z"/>
				<path id="&lt;Path&gt;" class="s0" d="m38.7 64.7c-2.1 0.9-4.6-0.1-5.5-2.2-0.9-2.2 0.1-4.6 2.2-5.5 2.2-0.9 4.6 0 5.5 2.2 0.9 2.1-0.1 4.6-2.2 5.5z"/>
				<path id="&lt;Path&gt;" class="s0" d="m50.6 62.5c-2.5 1-5.3-0.1-6.4-2.6-1-2.5 0.1-5.3 2.6-6.4 2.5-1 5.3 0.1 6.4 2.6 1 2.5-0.1 5.3-2.6 6.4z"/>
				<path id="&lt;Path&gt;" class="s0" d="m62.7 60.4c2.8-1.2 4.1-4.4 2.9-7.2-1.2-2.8-4.5-4.2-7.3-2.9-2.8 1.2-4.1 4.4-2.9 7.2 1.2 2.8 4.5 4.1 7.3 2.9z"/>
			</g>
			<g id="&lt;Group&gt;">
				<path id="&lt;Path&gt;" class="s0" d="m14.4 53.5c-0.8 0.1-1.5-0.5-1.5-1.3-0.1-0.8 0.5-1.6 1.3-1.6 0.8-0.1 1.5 0.5 1.6 1.3 0 0.8-0.6 1.5-1.4 1.6z"/>
				<path id="&lt;Path&gt;" class="s0" d="m24.6 45.9c-0.8 0.1-1.5-0.5-1.6-1.3 0-0.8 0.5-1.5 1.3-1.6 0.8 0 1.6 0.6 1.6 1.4 0.1 0.8-0.5 1.5-1.3 1.5z"/>
				<path id="&lt;Path&gt;" class="s0" d="m40.3 55.6c-0.8 0-1.5-0.6-1.6-1.4 0-0.8 0.6-1.5 1.4-1.5 0.8-0.1 1.5 0.5 1.5 1.3 0.1 0.8-0.5 1.5-1.3 1.6z"/>
				<path id="&lt;Path&gt;" class="s0" d="m34.4 38.6c-0.8 0-1.5-0.6-1.6-1.4 0-0.8 0.5-1.5 1.3-1.5 0.9-0.1 1.6 0.5 1.6 1.3 0.1 0.8-0.5 1.5-1.3 1.6z"/>
				<path id="&lt;Path&gt;" class="s0" d="m26.7 39.1c-0.8 0.1-1.5-0.5-1.6-1.3-0.1-0.8 0.5-1.5 1.3-1.6 0.8-0.1 1.5 0.5 1.6 1.3 0.1 0.8-0.5 1.5-1.3 1.6z"/>
				<path id="&lt;Path&gt;" class="s0" d="m38.3 45.7c-0.8 0.1-1.5-0.5-1.6-1.3 0-0.8 0.6-1.5 1.4-1.6 0.8 0 1.5 0.6 1.6 1.4 0 0.8-0.6 1.5-1.4 1.5z"/>
				<path id="&lt;Path&gt;" class="s0" d="m24.5 53c-1.2 0.1-2.3-0.7-2.4-1.9-0.1-1.2 0.8-2.2 2-2.3 1.2-0.1 2.2 0.7 2.3 1.9 0.1 1.2-0.8 2.2-1.9 2.3z"/>
				<path id="&lt;Path&gt;" class="s0" d="m30.4 57.4c-1.1 0.1-2.2-0.8-2.3-2-0.1-1.1 0.8-2.2 2-2.3 1.1-0.1 2.2 0.8 2.3 1.9 0.1 1.2-0.8 2.3-2 2.4z"/>
				<path id="&lt;Path&gt;" class="s0" d="m32.9 45.1c-1.2 0.1-2.2-0.8-2.3-2-0.1-1.2 0.7-2.2 1.9-2.3 1.2-0.1 2.2 0.8 2.3 1.9 0.1 1.2-0.7 2.3-1.9 2.4z"/>
				<path id="&lt;Path&gt;" class="s0" d="m52.6 52.4c-1.1 0.1-2.2-0.7-2.3-1.9-0.1-1.2 0.8-2.2 2-2.3 1.1-0.1 2.2 0.7 2.3 1.9 0.1 1.2-0.8 2.2-2 2.3z"/>
				<path id="&lt;Path&gt;" class="s0" d="m34.5 52.6c-1.6 0.1-3-1-3.1-2.6-0.1-1.5 1-2.9 2.6-3 1.5-0.2 2.9 1 3 2.5 0.2 1.6-1 2.9-2.5 3.1z"/>
				<path id="&lt;Path&gt;" class="s0" d="m42.5 43.4c-1.6 0.1-3-1-3.1-2.6-0.1-1.5 1-2.9 2.6-3 1.5-0.2 2.9 1 3 2.5 0.2 1.6-1 2.9-2.5 3.1z"/>
				<path id="&lt;Path&gt;" class="s0" d="m44.5 52.1c-1.9 0.2-3.6-1.2-3.8-3.2-0.2-1.9 1.2-3.6 3.2-3.8 1.9-0.1 3.6 1.3 3.8 3.2 0.1 1.9-1.3 3.6-3.2 3.8z"/>
				<path id="&lt;Path&gt;" class="s0" d="m53 47.1c-2.3 0.2-4.3-1.5-4.5-3.8-0.2-2.3 1.4-4.3 3.7-4.5 2.3-0.2 4.4 1.5 4.6 3.8 0.2 2.3-1.5 4.3-3.8 4.5z"/>
				<path id="&lt;Path&gt;" class="s0" d="m65 48.7c-2.7 0.3-5.1-1.7-5.3-4.4-0.2-2.7 1.7-5 4.4-5.3 2.7-0.2 5 1.8 5.3 4.5 0.2 2.6-1.8 5-4.4 5.2z"/>
				<path id="&lt;Path&gt;" class="s0" d="m77.1 50.5c3-0.3 5.3-2.9 5-6-0.3-3-3-5.3-6-5-3.1 0.3-5.3 2.9-5 6 0.2 3 2.9 5.3 6 5z"/>
			</g>
			<g id="&lt;Group&gt;">
				<path id="&lt;Path&gt;" class="s0" d="m33.4 29c-0.8-0.2-1.3-1-1.1-1.8 0.1-0.7 0.9-1.2 1.7-1.1 0.8 0.2 1.3 1 1.1 1.8-0.2 0.8-0.9 1.3-1.7 1.1z"/>
				<path id="&lt;Path&gt;" class="s0" d="m45.4 25c-0.8-0.2-1.3-1-1.1-1.8 0.1-0.8 0.9-1.3 1.7-1.1 0.8 0.2 1.3 1 1.1 1.8-0.2 0.7-1 1.2-1.7 1.1z"/>
				<path id="&lt;Path&gt;" class="s0" d="m57.3 39c-0.7-0.2-1.2-1-1.1-1.8 0.2-0.8 1-1.3 1.8-1.1 0.8 0.2 1.3 1 1.1 1.8-0.2 0.8-1 1.2-1.8 1.1z"/>
				<path id="&lt;Path&gt;" class="s0" d="m57 21c-0.8-0.2-1.3-1-1.1-1.8 0.1-0.8 0.9-1.2 1.7-1.1 0.8 0.2 1.3 1 1.1 1.8-0.2 0.8-1 1.3-1.7 1.1z"/>
				<path id="&lt;Path&gt;" class="s0" d="m49.5 19.1c-0.8-0.2-1.3-1-1.1-1.8 0.2-0.7 0.9-1.2 1.7-1 0.8 0.1 1.3 0.9 1.1 1.7-0.2 0.8-0.9 1.3-1.7 1.1z"/>
				<path id="&lt;Path&gt;" class="s0" d="m58.5 29c-0.8-0.2-1.3-1-1.1-1.7 0.2-0.8 0.9-1.3 1.7-1.1 0.8 0.1 1.3 0.9 1.1 1.7-0.2 0.8-0.9 1.3-1.7 1.1z"/>
				<path id="&lt;Path&gt;" class="s0" d="m43 31.7c-1.1-0.3-1.8-1.5-1.6-2.6 0.3-1.2 1.4-1.9 2.6-1.6 1.1 0.2 1.9 1.4 1.6 2.5-0.3 1.2-1.4 1.9-2.6 1.7z"/>
				<path id="&lt;Path&gt;" class="s0" d="m47.4 37.6c-1.2-0.2-1.9-1.4-1.6-2.5 0.2-1.2 1.4-1.9 2.5-1.6 1.2 0.2 1.9 1.4 1.6 2.5-0.2 1.2-1.4 1.9-2.5 1.6z"/>
				<path id="&lt;Path&gt;" class="s0" d="m53.5 26.7c-1.1-0.3-1.9-1.4-1.6-2.6 0.3-1.1 1.4-1.8 2.6-1.6 1.1 0.3 1.8 1.4 1.6 2.6-0.3 1.1-1.4 1.8-2.6 1.6z"/>
				<path id="&lt;Path&gt;" class="s0" d="m70 39.8c-1.1-0.3-1.9-1.4-1.6-2.6 0.3-1.1 1.4-1.8 2.6-1.6 1.1 0.3 1.8 1.4 1.6 2.6-0.3 1.2-1.4 1.9-2.6 1.6z"/>
				<path id="&lt;Path&gt;" class="s0" d="m52.7 34.3c-1.5-0.3-2.5-1.8-2.1-3.4 0.3-1.5 1.8-2.4 3.4-2.1 1.5 0.4 2.4 1.9 2.1 3.4-0.4 1.5-1.9 2.5-3.4 2.1z"/>
				<path id="&lt;Path&gt;" class="s0" d="m63.1 28c-1.5-0.3-2.4-1.8-2.1-3.3 0.4-1.6 1.9-2.5 3.4-2.2 1.5 0.4 2.5 1.9 2.1 3.4-0.3 1.5-1.8 2.5-3.4 2.1z"/>
				<path id="&lt;Path&gt;" class="s0" d="m62.4 37c-1.9-0.5-3.1-2.3-2.7-4.2 0.5-1.9 2.3-3.1 4.2-2.6 1.9 0.4 3.1 2.3 2.7 4.1-0.5 1.9-2.4 3.1-4.2 2.7z"/>
				<path id="&lt;Path&gt;" class="s0" d="m72 34.9c-2.3-0.6-3.7-2.8-3.1-5.1 0.5-2.2 2.7-3.6 5-3.1 2.2 0.5 3.6 2.8 3.1 5-0.5 2.3-2.8 3.7-5 3.2z"/>
				<path id="&lt;Path&gt;" class="s0" d="m82.9 40.1c-2.6-0.6-4.3-3.2-3.7-5.8 0.6-2.7 3.2-4.3 5.9-3.7 2.6 0.6 4.2 3.2 3.6 5.8-0.6 2.6-3.2 4.3-5.8 3.7z"/>
				<path id="&lt;Path&gt;" class="s0" d="m93.9 45.5c2.9 0.7 5.9-1.1 6.6-4.1 0.7-3-1.2-6-4.2-6.7-3-0.7-5.9 1.2-6.6 4.2-0.7 3 1.2 6 4.2 6.6z"/>
			</g>
			<g id="&lt;Group&gt;">
				<path id="&lt;Path&gt;" class="s0" d="m58.9 11.5c-0.7-0.4-0.9-1.3-0.5-2 0.4-0.6 1.3-0.9 2-0.5 0.7 0.5 0.9 1.4 0.5 2-0.4 0.7-1.3 1-2 0.5z"/>
				<path id="&lt;Path&gt;" class="s0" d="m71.6 11.4c-0.7-0.4-0.9-1.3-0.5-2 0.4-0.7 1.3-0.9 2-0.5 0.7 0.4 0.9 1.3 0.5 2-0.4 0.7-1.3 0.9-2 0.5z"/>
				<path id="&lt;Path&gt;" class="s0" d="m78.6 28.4c-0.6-0.4-0.9-1.3-0.5-2 0.5-0.7 1.4-0.9 2-0.5 0.7 0.5 1 1.3 0.6 2-0.5 0.7-1.4 1-2.1 0.5z"/>
				<path id="&lt;Path&gt;" class="s0" d="m83.9 11.2c-0.7-0.4-1-1.3-0.6-2 0.5-0.7 1.4-0.9 2-0.5 0.7 0.4 1 1.3 0.6 2-0.5 0.7-1.4 0.9-2 0.5z"/>
				<path id="&lt;Path&gt;" class="s0" d="m77.3 7.1c-0.7-0.4-0.9-1.3-0.5-2 0.4-0.7 1.3-0.9 2-0.5 0.7 0.4 0.9 1.3 0.5 2-0.4 0.7-1.3 0.9-2 0.5z"/>
				<path id="&lt;Path&gt;" class="s0" d="m82.8 19.3c-0.7-0.4-0.9-1.3-0.5-2 0.4-0.7 1.3-0.9 2-0.5 0.7 0.4 0.9 1.3 0.5 2-0.4 0.7-1.3 0.9-2 0.5z"/>
				<path id="&lt;Path&gt;" class="s0" d="m67.3 17.1c-1-0.6-1.3-2-0.7-3 0.6-1 1.9-1.3 2.9-0.7 1 0.6 1.3 1.9 0.7 2.9-0.6 1-1.9 1.4-2.9 0.8z"/>
				<path id="&lt;Path&gt;" class="s0" d="m69.6 24.1c-1-0.6-1.4-1.9-0.8-2.9 0.7-1.1 2-1.4 3-0.8 1 0.6 1.3 1.9 0.7 3-0.6 1-1.9 1.3-2.9 0.7z"/>
				<path id="&lt;Path&gt;" class="s0" d="m78.8 15.6c-1-0.6-1.3-1.9-0.7-3 0.6-1 1.9-1.3 2.9-0.7 1 0.6 1.3 1.9 0.7 2.9-0.6 1.1-1.9 1.4-2.9 0.8z"/>
				<path id="&lt;Path&gt;" class="s0" d="m90.4 33.2c-1-0.6-1.3-2-0.7-3 0.6-1 1.9-1.3 2.9-0.7 1.1 0.6 1.4 1.9 0.8 2.9-0.6 1-1.9 1.4-3 0.8z"/>
				<path id="&lt;Path&gt;" class="s0" d="m75.7 22.6c-1.4-0.8-1.8-2.5-1-3.9 0.8-1.3 2.5-1.8 3.9-1 1.3 0.8 1.7 2.6 0.9 3.9-0.8 1.3-2.5 1.8-3.8 1z"/>
				<path id="&lt;Path&gt;" class="s0" d="m87.5 19.8c-1.3-0.8-1.7-2.5-0.9-3.8 0.8-1.4 2.5-1.8 3.8-1 1.4 0.8 1.8 2.5 1 3.9-0.8 1.3-2.5 1.7-3.9 0.9z"/>
				<path id="&lt;Path&gt;" class="s0" d="m84 28.1c-1.6-1-2.2-3.1-1.2-4.8 1-1.7 3.2-2.2 4.8-1.2 1.7 1 2.2 3.1 1.2 4.8-1 1.7-3.1 2.2-4.8 1.2z"/>
				<path id="&lt;Path&gt;" class="s0" d="m93.9 29.1c-2-1.2-2.7-3.8-1.5-5.8 1.2-2 3.8-2.6 5.8-1.4 1.9 1.2 2.6 3.7 1.4 5.7-1.2 2-3.8 2.6-5.7 1.5z"/>
				<path id="&lt;Path&gt;" class="s0" d="m102.6 37.4c-2.3-1.4-3-4.4-1.7-6.7 1.4-2.3 4.4-3 6.7-1.6 2.3 1.3 3.1 4.3 1.7 6.6-1.4 2.3-4.4 3.1-6.7 1.7z"/>
				<path id="&lt;Path&gt;" class="s0" d="m111.3 46c2.7 1.5 6.1 0.7 7.7-1.9 1.5-2.7 0.7-6.1-2-7.6-2.6-1.6-6-0.8-7.6 1.9-1.5 2.6-0.7 6 1.9 7.6z"/>
			</g>
			<g id="&lt;Group&gt;">
				<path id="&lt;Path&gt;" class="s0" d="m88.6 2.9c-0.5-0.6-0.4-1.6 0.2-2.1 0.6-0.5 1.5-0.5 2 0.1 0.6 0.6 0.5 1.6-0.1 2.1-0.6 0.5-1.5 0.5-2.1-0.1z"/>
				<path id="&lt;Path&gt;" class="s0" d="m100.7 6.6c-0.5-0.6-0.5-1.5 0.1-2 0.7-0.5 1.6-0.5 2.1 0.1 0.5 0.6 0.5 1.6-0.1 2.1-0.6 0.5-1.6 0.5-2.1-0.2z"/>
				<path id="&lt;Path&gt;" class="s0" d="m102.2 25c-0.6-0.6-0.5-1.5 0.1-2 0.6-0.6 1.5-0.5 2.1 0.1 0.5 0.6 0.4 1.5-0.2 2.1-0.6 0.5-1.5 0.4-2-0.2z"/>
				<path id="&lt;Path&gt;" class="s0" d="m112.4 10.2c-0.5-0.6-0.4-1.5 0.2-2 0.6-0.5 1.5-0.5 2 0.1 0.6 0.6 0.5 1.6-0.1 2.1-0.6 0.5-1.5 0.5-2.1-0.2z"/>
				<path id="&lt;Path&gt;" class="s0" d="m107.5 4.3c-0.6-0.6-0.5-1.5 0.1-2 0.6-0.6 1.5-0.5 2.1 0.1 0.5 0.6 0.4 1.5-0.2 2.1-0.6 0.5-1.5 0.4-2-0.2z"/>
				<path id="&lt;Path&gt;" class="s0" d="m108.9 17.6c-0.5-0.6-0.4-1.5 0.2-2 0.6-0.6 1.5-0.5 2 0.1 0.6 0.6 0.5 1.5-0.1 2.1-0.6 0.5-1.5 0.4-2.1-0.2z"/>
				<path id="&lt;Path&gt;" class="s0" d="m94.9 10.7c-0.8-0.9-0.7-2.2 0.2-3 0.9-0.8 2.2-0.7 3 0.2 0.8 0.9 0.7 2.2-0.2 3-0.9 0.8-2.2 0.7-3-0.2z"/>
				<path id="&lt;Path&gt;" class="s0" d="m94.9 18.1c-0.8-0.9-0.7-2.3 0.2-3 0.9-0.8 2.2-0.7 3 0.2 0.8 0.9 0.7 2.2-0.2 3-0.9 0.8-2.2 0.7-3-0.2z"/>
				<path id="&lt;Path&gt;" class="s0" d="m106.3 12.8c-0.8-0.9-0.7-2.2 0.2-3 0.9-0.8 2.2-0.7 3 0.2 0.8 0.9 0.7 2.3-0.2 3-0.9 0.8-2.2 0.7-3-0.2z"/>
				<path id="&lt;Path&gt;" class="s0" d="m111.9 33.1c-0.8-0.8-0.7-2.2 0.2-3 0.9-0.7 2.3-0.7 3 0.2 0.8 0.9 0.7 2.3-0.2 3.1-0.8 0.7-2.2 0.6-3-0.3z"/>
				<path id="&lt;Path&gt;" class="s0" d="m101.1 18.5c-1-1.1-0.9-2.9 0.3-4 1.2-1 3-0.9 4 0.3 1 1.2 0.9 3-0.3 4-1.2 1-2.9 0.9-4-0.3z"/>
				<path id="&lt;Path&gt;" class="s0" d="m113.3 19.6c-1-1.2-0.9-3 0.3-4 1.1-1 2.9-0.9 3.9 0.3 1.1 1.2 0.9 2.9-0.2 4-1.2 1-3 0.9-4-0.3z"/>
				<path id="&lt;Path&gt;" class="s0" d="m107.4 26.4c-1.3-1.5-1.1-3.7 0.3-5 1.5-1.2 3.7-1.1 5 0.4 1.2 1.4 1.1 3.6-0.4 4.9-1.4 1.3-3.6 1.1-4.9-0.3z"/>
				<path id="&lt;Path&gt;" class="s0" d="m116.4 30.3c-1.5-1.7-1.3-4.4 0.4-5.9 1.8-1.5 4.4-1.3 5.9 0.4 1.6 1.8 1.4 4.4-0.4 5.9-1.7 1.5-4.3 1.3-5.9-0.4z"/>
				<path id="&lt;Path&gt;" class="s0" d="m122.2 40.9c-1.8-2-1.6-5 0.4-6.8 2.1-1.8 5.1-1.6 6.9 0.5 1.8 2 1.6 5-0.5 6.8-2 1.8-5.1 1.6-6.8-0.5z"/>
				<path id="&lt;Path&gt;" class="s0" d="m127.8 51.8c2.1 2.3 5.6 2.5 7.9 0.5 2.3-2 2.5-5.5 0.5-7.8-2-2.3-5.5-2.5-7.8-0.5-2.3 2-2.6 5.5-0.6 7.8z"/>
			</g>
			<g id="&lt;Group&gt;">
				<path id="&lt;Path&gt;" class="s0" d="m119.6 3.8c-0.3-0.8 0-1.6 0.7-1.9 0.8-0.4 1.6 0 2 0.7 0.3 0.8-0.1 1.6-0.8 1.9-0.8 0.4-1.6 0-1.9-0.7z"/>
				<path id="&lt;Path&gt;" class="s0" d="m129.9 11.1c-0.3-0.7 0-1.6 0.8-1.9 0.7-0.3 1.5 0 1.9 0.8 0.3 0.7-0.1 1.6-0.8 1.9-0.7 0.3-1.6-0.1-1.9-0.8z"/>
				<path id="&lt;Path&gt;" class="s0" d="m125.6 29c-0.3-0.7 0-1.6 0.8-1.9 0.7-0.3 1.6 0 1.9 0.8 0.3 0.7-0.1 1.6-0.8 1.9-0.7 0.3-1.6 0-1.9-0.8z"/>
				<path id="&lt;Path&gt;" class="s0" d="m139.9 18.2c-0.3-0.8 0.1-1.6 0.8-2 0.7-0.3 1.6 0.1 1.9 0.8 0.3 0.7 0 1.6-0.8 1.9-0.7 0.3-1.6 0-1.9-0.7z"/>
				<path id="&lt;Path&gt;" class="s0" d="m137 11c-0.3-0.8 0.1-1.6 0.8-1.9 0.7-0.3 1.6 0 1.9 0.7 0.3 0.8 0 1.6-0.7 2-0.8 0.3-1.6-0.1-2-0.8z"/>
				<path id="&lt;Path&gt;" class="s0" d="m134.3 24.1c-0.3-0.7 0-1.6 0.8-1.9 0.7-0.3 1.6 0 1.9 0.8 0.3 0.7 0 1.5-0.8 1.9-0.7 0.3-1.6-0.1-1.9-0.8z"/>
				<path id="&lt;Path&gt;" class="s0" d="m123.1 13.2c-0.5-1.1 0-2.4 1.1-2.9 1.1-0.4 2.4 0.1 2.8 1.2 0.5 1.1 0 2.3-1.1 2.8-1.1 0.4-2.3-0.1-2.8-1.1z"/>
				<path id="&lt;Path&gt;" class="s0" d="m120.8 20.2c-0.5-1.1 0.1-2.4 1.1-2.8 1.1-0.5 2.4 0 2.8 1.1 0.5 1.1 0 2.3-1.1 2.8-1.1 0.5-2.3 0-2.8-1.1z"/>
				<path id="&lt;Path&gt;" class="s0" d="m133.3 18.7c-0.5-1.1 0-2.3 1.1-2.8 1.1-0.5 2.3 0 2.8 1.1 0.5 1.1 0 2.4-1.1 2.8-1.1 0.5-2.4 0-2.8-1.1z"/>
				<path id="&lt;Path&gt;" class="s0" d="m132.4 39.8c-0.5-1.1 0-2.4 1.1-2.8 1.1-0.5 2.3 0 2.8 1.1 0.5 1.1 0 2.3-1.1 2.8-1.1 0.5-2.4 0-2.8-1.1z"/>
				<path id="&lt;Path&gt;" class="s0" d="m126.6 22.5c-0.6-1.4 0.1-3 1.5-3.7 1.4-0.6 3.1 0.1 3.7 1.5 0.6 1.5 0 3.1-1.5 3.7-1.4 0.6-3.1 0-3.7-1.5z"/>
				<path id="&lt;Path&gt;" class="s0" d="m137.8 27.3c-0.6-1.4 0.1-3.1 1.5-3.7 1.5-0.6 3.1 0.1 3.7 1.5 0.6 1.4 0 3.1-1.5 3.7-1.4 0.6-3-0.1-3.7-1.5z"/>
				<path id="&lt;Path&gt;" class="s0" d="m130.2 31.9c-0.8-1.8 0-3.8 1.8-4.6 1.8-0.7 3.8 0.1 4.6 1.9 0.7 1.8-0.1 3.8-1.9 4.6-1.7 0.7-3.8-0.1-4.5-1.9z"/>
				<path id="&lt;Path&gt;" class="s0" d="m137.5 38.5c-0.9-2.2 0.1-4.6 2.2-5.5 2.2-0.9 4.6 0.1 5.5 2.2 0.9 2.1-0.1 4.6-2.2 5.5-2.1 0.9-4.6-0.1-5.5-2.2z"/>
				<path id="&lt;Path&gt;" class="s0" d="m139.7 50.4c-1-2.5 0.1-5.4 2.6-6.4 2.4-1.1 5.3 0.1 6.3 2.5 1.1 2.5 0 5.4-2.5 6.4-2.5 1.1-5.3-0.1-6.4-2.5z"/>
				<path id="&lt;Path&gt;" class="s0" d="m141.7 62.4c1.2 2.8 4.5 4.2 7.3 3 2.8-1.2 4.1-4.5 2.9-7.3-1.2-2.8-4.4-4.1-7.2-2.9-2.9 1.2-4.2 4.4-3 7.2z"/>
			</g>
			<g id="&lt;Group&gt;">
				<path id="&lt;Path&gt;" class="s0" d="m148.7 14.2c-0.1-0.8 0.5-1.5 1.3-1.6 0.8-0.1 1.5 0.5 1.6 1.3 0.1 0.8-0.5 1.6-1.3 1.6-0.8 0.1-1.5-0.5-1.6-1.3z"/>
				<path id="&lt;Path&gt;" class="s0" d="m156.3 24.4c-0.1-0.8 0.5-1.5 1.3-1.6 0.8-0.1 1.5 0.5 1.6 1.3 0 0.8-0.6 1.5-1.4 1.6-0.8 0.1-1.5-0.5-1.5-1.3z"/>
				<path id="&lt;Path&gt;" class="s0" d="m146.6 40.1c0-0.8 0.6-1.5 1.4-1.6 0.8-0.1 1.5 0.5 1.5 1.3 0.1 0.8-0.5 1.5-1.3 1.6-0.8 0.1-1.5-0.5-1.6-1.3z"/>
				<path id="&lt;Path&gt;" class="s0" d="m163.6 34.2c0-0.8 0.5-1.5 1.3-1.6 0.8-0.1 1.6 0.5 1.6 1.3 0.1 0.8-0.5 1.5-1.3 1.6-0.8 0.1-1.5-0.5-1.6-1.3z"/>
				<path id="&lt;Path&gt;" class="s0" d="m163.1 26.5c-0.1-0.8 0.5-1.6 1.3-1.6 0.8-0.1 1.5 0.5 1.6 1.3 0.1 0.8-0.5 1.5-1.3 1.6-0.8 0.1-1.5-0.5-1.6-1.3z"/>
				<path id="&lt;Path&gt;" class="s0" d="m156.4 38.1c0-0.8 0.6-1.5 1.4-1.6 0.8-0.1 1.5 0.5 1.6 1.3 0 0.8-0.6 1.5-1.4 1.6-0.8 0.1-1.5-0.5-1.6-1.3z"/>
				<path id="&lt;Path&gt;" class="s0" d="m149.2 24.2c-0.1-1.2 0.7-2.2 1.9-2.3 1.2-0.1 2.2 0.8 2.3 1.9 0.1 1.2-0.7 2.3-1.9 2.4-1.2 0.1-2.2-0.8-2.3-2z"/>
				<path id="&lt;Path&gt;" class="s0" d="m144.8 30.2c-0.1-1.2 0.8-2.2 2-2.3 1.1-0.1 2.2 0.7 2.3 1.9 0.1 1.2-0.8 2.2-2 2.3-1.1 0.1-2.2-0.7-2.3-1.9z"/>
				<path id="&lt;Path&gt;" class="s0" d="m157.1 32.6c-0.1-1.1 0.8-2.2 2-2.3 1.1-0.1 2.2 0.8 2.3 2 0.1 1.1-0.8 2.2-2 2.3-1.1 0.1-2.2-0.8-2.3-2z"/>
				<path id="&lt;Path&gt;" class="s0" d="m149.7 52.4c-0.1-1.2 0.8-2.2 2-2.3 1.2-0.1 2.2 0.7 2.3 1.9 0.1 1.2-0.8 2.2-1.9 2.3-1.2 0.1-2.2-0.7-2.4-1.9z"/>
				<path id="&lt;Path&gt;" class="s0" d="m149.6 34.2c-0.1-1.5 1-2.9 2.6-3 1.5-0.2 2.9 1 3 2.5 0.2 1.6-1 2.9-2.5 3.1-1.6 0.1-2.9-1-3.1-2.6z"/>
				<path id="&lt;Path&gt;" class="s0" d="m158.8 42.2c-0.1-1.5 1-2.9 2.6-3 1.5-0.2 2.9 1 3 2.5 0.2 1.6-1 2.9-2.5 3.1-1.6 0.1-2.9-1-3.1-2.6z"/>
				<path id="&lt;Path&gt;" class="s0" d="m150.1 44.2c-0.2-1.9 1.2-3.6 3.1-3.8 2-0.1 3.7 1.3 3.8 3.2 0.2 1.9-1.2 3.6-3.1 3.8-2 0.2-3.7-1.2-3.8-3.2z"/>
				<path id="&lt;Path&gt;" class="s0" d="m155.1 52.8c-0.2-2.3 1.5-4.4 3.8-4.6 2.3-0.2 4.3 1.5 4.5 3.8 0.2 2.3-1.5 4.3-3.8 4.5-2.3 0.3-4.3-1.4-4.5-3.7z"/>
				<path id="&lt;Path&gt;" class="s0" d="m153.5 64.7c-0.3-2.6 1.7-5 4.4-5.2 2.6-0.3 5 1.7 5.2 4.4 0.3 2.6-1.7 5-4.4 5.2-2.6 0.3-5-1.7-5.2-4.4z"/>
				<path id="&lt;Path&gt;" class="s0" d="m151.7 76.8c0.2 3.1 2.9 5.3 6 5.1 3-0.3 5.3-3 5-6-0.3-3.1-3-5.3-6-5.1-3.1 0.3-5.3 3-5 6z"/>
			</g>
			<g id="&lt;Group&gt;">
				<path id="&lt;Path&gt;" class="s0" d="m173.2 33.1c0.2-0.8 1-1.3 1.7-1.1 0.8 0.2 1.3 1 1.1 1.8-0.1 0.8-0.9 1.3-1.7 1.1-0.8-0.2-1.3-1-1.1-1.8z"/>
				<path id="&lt;Path&gt;" class="s0" d="m177.2 45.1c0.2-0.8 1-1.3 1.8-1.1 0.8 0.2 1.3 1 1.1 1.8-0.2 0.8-1 1.2-1.8 1.1-0.8-0.2-1.2-1-1.1-1.8z"/>
				<path id="&lt;Path&gt;" class="s0" d="m163.2 57.1c0.2-0.8 1-1.3 1.8-1.1 0.8 0.2 1.2 1 1.1 1.8-0.2 0.7-1 1.2-1.8 1-0.8-0.1-1.3-0.9-1.1-1.7z"/>
				<path id="&lt;Path&gt;" class="s0" d="m181.2 56.7c0.2-0.8 1-1.3 1.8-1.1 0.7 0.2 1.2 1 1.1 1.8-0.2 0.8-1 1.2-1.8 1.1-0.8-0.2-1.3-1-1.1-1.8z"/>
				<path id="&lt;Path&gt;" class="s0" d="m183.1 49.2c0.2-0.8 1-1.2 1.7-1.1 0.8 0.2 1.3 1 1.1 1.8-0.1 0.8-0.9 1.3-1.7 1.1-0.8-0.2-1.3-1-1.1-1.8z"/>
				<path id="&lt;Path&gt;" class="s0" d="m173.2 58.2c0.2-0.8 0.9-1.2 1.7-1.1 0.8 0.2 1.3 1 1.1 1.8-0.2 0.8-0.9 1.3-1.7 1.1-0.8-0.2-1.3-1-1.1-1.8z"/>
				<path id="&lt;Path&gt;" class="s0" d="m170.5 42.8c0.3-1.2 1.4-1.9 2.6-1.6 1.1 0.2 1.9 1.4 1.6 2.5-0.3 1.2-1.4 1.9-2.6 1.7-1.1-0.3-1.8-1.5-1.6-2.6z"/>
				<path id="&lt;Path&gt;" class="s0" d="m164.6 47.1c0.2-1.1 1.4-1.8 2.5-1.6 1.2 0.3 1.9 1.4 1.6 2.6-0.2 1.1-1.4 1.9-2.5 1.6-1.2-0.3-1.9-1.4-1.6-2.6z"/>
				<path id="&lt;Path&gt;" class="s0" d="m175.5 53.3c0.3-1.2 1.4-1.9 2.6-1.6 1.1 0.2 1.8 1.4 1.6 2.5-0.3 1.2-1.4 1.9-2.6 1.6-1.1-0.2-1.9-1.4-1.6-2.5z"/>
				<path id="&lt;Path&gt;" class="s0" d="m162.4 69.8c0.2-1.2 1.4-1.9 2.5-1.6 1.2 0.2 1.9 1.4 1.7 2.5-0.3 1.2-1.5 1.9-2.6 1.6-1.2-0.2-1.9-1.4-1.6-2.5z"/>
				<path id="&lt;Path&gt;" class="s0" d="m167.9 52.5c0.3-1.6 1.8-2.5 3.4-2.2 1.5 0.4 2.4 1.9 2.1 3.4-0.4 1.5-1.9 2.5-3.4 2.1-1.5-0.3-2.5-1.8-2.1-3.3z"/>
				<path id="&lt;Path&gt;" class="s0" d="m174.1 62.9c0.4-1.5 1.9-2.5 3.4-2.1 1.5 0.3 2.5 1.8 2.1 3.4-0.3 1.5-1.8 2.4-3.3 2.1-1.6-0.4-2.5-1.9-2.2-3.4z"/>
				<path id="&lt;Path&gt;" class="s0" d="m165.2 62.1c0.4-1.9 2.3-3 4.2-2.6 1.9 0.4 3.1 2.3 2.6 4.2-0.4 1.9-2.3 3-4.2 2.6-1.8-0.4-3-2.3-2.6-4.2z"/>
				<path id="&lt;Path&gt;" class="s0" d="m167.3 71.8c0.5-2.3 2.8-3.7 5-3.2 2.3 0.5 3.7 2.8 3.2 5-0.5 2.3-2.8 3.7-5 3.2-2.3-0.6-3.7-2.8-3.2-5z"/>
				<path id="&lt;Path&gt;" class="s0" d="m162.1 82.7c0.6-2.7 3.2-4.3 5.8-3.7 2.6 0.6 4.3 3.2 3.7 5.8-0.6 2.6-3.2 4.3-5.8 3.7-2.7-0.6-4.3-3.2-3.7-5.8z"/>
				<path id="&lt;Path&gt;" class="s0" d="m156.7 93.6c-0.7 3 1.1 6 4.1 6.7 3 0.6 6-1.2 6.7-4.2 0.6-3-1.2-6-4.2-6.6-3-0.7-6 1.1-6.6 4.1z"/>
			</g>
			<g id="&lt;Group&gt;">
				<path id="&lt;Path&gt;" class="s0" d="m190.6 58.7c0.5-0.7 1.4-0.9 2-0.5 0.7 0.4 1 1.3 0.5 2-0.4 0.7-1.3 0.9-2 0.5-0.6-0.4-0.9-1.3-0.5-2z"/>
				<path id="&lt;Path&gt;" class="s0" d="m190.8 71.3c0.4-0.6 1.3-0.9 2-0.5 0.7 0.5 0.9 1.4 0.5 2-0.4 0.7-1.3 1-2 0.5-0.7-0.4-0.9-1.3-0.5-2z"/>
				<path id="&lt;Path&gt;" class="s0" d="m173.7 78.4c0.5-0.7 1.4-0.9 2-0.5 0.7 0.4 1 1.3 0.6 2-0.5 0.7-1.4 0.9-2 0.5-0.7-0.4-1-1.3-0.6-2z"/>
				<path id="&lt;Path&gt;" class="s0" d="m191 83.6c0.4-0.7 1.3-0.9 2-0.5 0.7 0.4 0.9 1.3 0.5 2-0.4 0.7-1.3 0.9-2 0.5-0.7-0.4-0.9-1.3-0.5-2z"/>
				<path id="&lt;Path&gt;" class="s0" d="m195.1 77.1c0.4-0.7 1.3-1 2-0.5 0.7 0.4 0.9 1.3 0.5 2-0.4 0.6-1.3 0.9-2 0.5-0.7-0.5-0.9-1.3-0.5-2z"/>
				<path id="&lt;Path&gt;" class="s0" d="m182.9 82.6c0.4-0.7 1.3-1 2-0.5 0.7 0.4 0.9 1.3 0.5 2-0.4 0.7-1.3 0.9-2 0.5-0.7-0.5-0.9-1.3-0.5-2z"/>
				<path id="&lt;Path&gt;" class="s0" d="m185.1 67.1c0.6-1.1 1.9-1.4 3-0.8 1 0.6 1.3 1.9 0.7 3-0.6 1-1.9 1.3-2.9 0.7-1.1-0.6-1.4-1.9-0.8-2.9z"/>
				<path id="&lt;Path&gt;" class="s0" d="m178.1 69.3c0.6-1 1.9-1.3 2.9-0.7 1 0.6 1.4 1.9 0.8 2.9-0.6 1.1-2 1.4-3 0.8-1-0.6-1.3-1.9-0.7-3z"/>
				<path id="&lt;Path&gt;" class="s0" d="m186.6 78.6c0.6-1.1 1.9-1.4 2.9-0.8 1.1 0.6 1.4 1.9 0.8 3-0.6 1-1.9 1.3-3 0.7-1-0.6-1.3-1.9-0.7-2.9z"/>
				<path id="&lt;Path&gt;" class="s0" d="m169 90.2c0.6-1 2-1.3 3-0.7 1 0.6 1.3 1.9 0.7 2.9-0.6 1-1.9 1.3-2.9 0.7-1-0.6-1.4-1.9-0.8-2.9z"/>
				<path id="&lt;Path&gt;" class="s0" d="m179.6 75.4c0.8-1.3 2.5-1.7 3.9-0.9 1.3 0.8 1.7 2.5 0.9 3.8-0.8 1.4-2.5 1.8-3.8 1-1.4-0.8-1.8-2.5-1-3.9z"/>
				<path id="&lt;Path&gt;" class="s0" d="m182.3 87.3c0.8-1.3 2.6-1.8 3.9-1 1.3 0.8 1.8 2.6 1 3.9-0.8 1.3-2.5 1.8-3.9 1-1.3-0.8-1.8-2.6-1-3.9z"/>
				<path id="&lt;Path&gt;" class="s0" d="m174.1 83.8c1-1.7 3.1-2.2 4.8-1.2 1.6 1 2.2 3.1 1.2 4.8-1 1.7-3.1 2.2-4.8 1.2-1.7-1-2.2-3.1-1.2-4.8z"/>
				<path id="&lt;Path&gt;" class="s0" d="m173.1 93.6c1.2-2 3.8-2.6 5.8-1.4 1.9 1.2 2.6 3.7 1.4 5.7-1.2 2-3.8 2.6-5.7 1.5-2-1.2-2.7-3.8-1.5-5.8z"/>
				<path id="&lt;Path&gt;" class="s0" d="m164.8 102.4c1.4-2.3 4.3-3.1 6.7-1.7 2.3 1.4 3 4.4 1.6 6.7-1.3 2.3-4.3 3-6.6 1.6-2.3-1.3-3.1-4.3-1.7-6.6z"/>
				<path id="&lt;Path&gt;" class="s0" d="m156.2 111.1c-1.6 2.6-0.7 6 1.9 7.6 2.7 1.6 6.1 0.7 7.6-1.9 1.6-2.6 0.7-6-1.9-7.6-2.6-1.6-6-0.7-7.6 1.9z"/>
			</g>
			<g id="&lt;Group&gt;">
				<path id="&lt;Path&gt;" class="s0" d="m199.3 88.4c0.6-0.5 1.6-0.5 2.1 0.1 0.5 0.6 0.5 1.6-0.2 2.1-0.6 0.5-1.5 0.5-2-0.2-0.5-0.6-0.5-1.5 0.1-2z"/>
				<path id="&lt;Path&gt;" class="s0" d="m195.5 100.5c0.6-0.6 1.6-0.5 2.1 0.1 0.5 0.6 0.5 1.5-0.1 2.1-0.6 0.5-1.6 0.4-2.1-0.2-0.5-0.6-0.5-1.5 0.1-2z"/>
				<path id="&lt;Path&gt;" class="s0" d="m177.2 101.9c0.6-0.5 1.5-0.4 2 0.2 0.6 0.6 0.5 1.5-0.1 2-0.6 0.6-1.5 0.5-2.1-0.1-0.5-0.6-0.4-1.5 0.2-2.1z"/>
				<path id="&lt;Path&gt;" class="s0" d="m191.9 112.2c0.7-0.5 1.6-0.5 2.1 0.1 0.5 0.6 0.5 1.6-0.1 2.1-0.6 0.5-1.6 0.5-2.1-0.1-0.5-0.7-0.5-1.6 0.1-2.1z"/>
				<path id="&lt;Path&gt;" class="s0" d="m197.9 107.2c0.6-0.5 1.5-0.4 2 0.2 0.6 0.6 0.5 1.5-0.1 2-0.6 0.6-1.5 0.5-2.1-0.1-0.5-0.6-0.4-1.5 0.2-2.1z"/>
				<path id="&lt;Path&gt;" class="s0" d="m184.6 108.7c0.6-0.5 1.5-0.5 2 0.1 0.5 0.6 0.5 1.6-0.1 2.1-0.6 0.5-1.6 0.5-2.1-0.1-0.5-0.7-0.4-1.6 0.2-2.1z"/>
				<path id="&lt;Path&gt;" class="s0" d="m191.5 94.6c0.9-0.7 2.2-0.6 3 0.3 0.8 0.8 0.7 2.2-0.2 3-0.9 0.7-2.2 0.7-3-0.2-0.8-0.9-0.7-2.3 0.2-3.1z"/>
				<path id="&lt;Path&gt;" class="s0" d="m184.1 94.6c0.9-0.7 2.3-0.6 3 0.3 0.8 0.8 0.7 2.2-0.2 3-0.9 0.7-2.2 0.7-3-0.2-0.8-0.9-0.7-2.3 0.2-3.1z"/>
				<path id="&lt;Path&gt;" class="s0" d="m189.4 106c0.8-0.7 2.2-0.6 3 0.2 0.8 0.9 0.7 2.3-0.2 3.1-0.9 0.7-2.3 0.7-3-0.2-0.8-0.9-0.7-2.3 0.2-3.1z"/>
				<path id="&lt;Path&gt;" class="s0" d="m169 111.7c0.9-0.8 2.3-0.7 3.1 0.2 0.7 0.9 0.6 2.2-0.2 3-0.9 0.8-2.3 0.7-3.1-0.2-0.7-0.9-0.6-2.2 0.2-3z"/>
				<path id="&lt;Path&gt;" class="s0" d="m183.7 100.9c1.1-1 2.9-0.9 3.9 0.3 1.1 1.1 0.9 2.9-0.2 4-1.2 1-3 0.9-4-0.3-1-1.2-0.9-3 0.3-4z"/>
				<path id="&lt;Path&gt;" class="s0" d="m182.6 113c1.2-1 3-0.9 4 0.3 1 1.2 0.9 3-0.3 4-1.2 1-3 0.9-4-0.3-1-1.2-0.9-2.9 0.3-4z"/>
				<path id="&lt;Path&gt;" class="s0" d="m175.8 107.2c1.5-1.3 3.7-1.2 5 0.3 1.2 1.4 1.1 3.7-0.4 4.9-1.4 1.3-3.6 1.2-4.9-0.3-1.3-1.5-1.1-3.7 0.3-4.9z"/>
				<path id="&lt;Path&gt;" class="s0" d="m171.9 116.2c1.7-1.5 4.4-1.3 5.9 0.4 1.5 1.7 1.3 4.4-0.4 5.9-1.8 1.5-4.4 1.3-5.9-0.4-1.5-1.7-1.4-4.4 0.4-5.9z"/>
				<path id="&lt;Path&gt;" class="s0" d="m161.2 121.9c2.1-1.7 5.1-1.5 6.9 0.5 1.8 2 1.6 5.1-0.5 6.9-2 1.7-5.1 1.5-6.8-0.5-1.8-2-1.6-5.1 0.4-6.9z"/>
				<path id="&lt;Path&gt;" class="s0" d="m150.4 127.6c-2.3 2-2.6 5.5-0.5 7.8 2 2.3 5.5 2.6 7.8 0.6 2.3-2.1 2.5-5.6 0.5-7.9-2-2.3-5.5-2.5-7.8-0.5z"/>
			</g>
			<g id="&lt;Group&gt;">
				<path id="&lt;Path&gt;" class="s0" d="m198.4 119.3c0.8-0.3 1.6 0.1 1.9 0.8 0.3 0.7 0 1.6-0.7 1.9-0.8 0.3-1.6 0-2-0.8-0.3-0.7 0.1-1.6 0.8-1.9z"/>
				<path id="&lt;Path&gt;" class="s0" d="m191.1 129.6c0.7-0.3 1.6 0.1 1.9 0.8 0.3 0.8 0 1.6-0.8 1.9-0.7 0.3-1.6 0-1.9-0.7-0.3-0.8 0-1.6 0.8-2z"/>
				<path id="&lt;Path&gt;" class="s0" d="m173.2 125.4c0.7-0.4 1.6 0 1.9 0.7 0.3 0.8-0.1 1.6-0.8 1.9-0.7 0.4-1.6 0-1.9-0.7-0.3-0.8 0-1.6 0.8-1.9z"/>
				<path id="&lt;Path&gt;" class="s0" d="m184 139.7c0.8-0.3 1.6 0 2 0.8 0.3 0.7-0.1 1.6-0.8 1.9-0.8 0.3-1.6-0.1-1.9-0.8-0.3-0.7 0-1.6 0.7-1.9z"/>
				<path id="&lt;Path&gt;" class="s0" d="m191.2 136.8c0.7-0.3 1.6 0 1.9 0.8 0.3 0.7 0 1.6-0.7 1.9-0.8 0.3-1.6 0-2-0.8-0.3-0.7 0.1-1.6 0.8-1.9z"/>
				<path id="&lt;Path&gt;" class="s0" d="m178.1 134.1c0.7-0.3 1.6 0 1.9 0.7 0.3 0.8 0 1.6-0.8 2-0.7 0.3-1.6-0.1-1.9-0.8-0.3-0.8 0.1-1.6 0.8-1.9z"/>
				<path id="&lt;Path&gt;" class="s0" d="m189 122.9c1.1-0.5 2.4 0 2.8 1.1 0.5 1.1 0 2.3-1.1 2.8-1.1 0.5-2.3-0.1-2.8-1.1-0.5-1.1 0-2.4 1.1-2.8z"/>
				<path id="&lt;Path&gt;" class="s0" d="m182 120.6c1.1-0.5 2.4 0 2.8 1.1 0.5 1.1 0 2.3-1.1 2.8-1.1 0.5-2.4 0-2.8-1.1-0.5-1.1 0-2.4 1.1-2.8z"/>
				<path id="&lt;Path&gt;" class="s0" d="m183.5 133c1.1-0.4 2.3 0.1 2.8 1.2 0.4 1-0.1 2.3-1.1 2.8-1.1 0.4-2.4-0.1-2.9-1.2-0.4-1 0.1-2.3 1.2-2.8z"/>
				<path id="&lt;Path&gt;" class="s0" d="m162.4 132.1c1.1-0.4 2.4 0.1 2.8 1.1 0.5 1.1 0 2.4-1.1 2.9-1.1 0.4-2.4-0.1-2.8-1.2-0.5-1.1 0-2.3 1.1-2.8z"/>
				<path id="&lt;Path&gt;" class="s0" d="m179.7 126.4c1.4-0.6 3 0 3.7 1.5 0.6 1.4-0.1 3.1-1.5 3.7-1.5 0.6-3.1-0.1-3.7-1.5-0.6-1.4 0-3.1 1.5-3.7z"/>
				<path id="&lt;Path&gt;" class="s0" d="m174.9 137.6c1.4-0.6 3.1 0.1 3.7 1.5 0.6 1.4-0.1 3.1-1.5 3.7-1.4 0.6-3.1-0.1-3.7-1.5-0.6-1.4 0.1-3.1 1.5-3.7z"/>
				<path id="&lt;Path&gt;" class="s0" d="m170.3 129.9c1.7-0.7 3.8 0.1 4.6 1.9 0.7 1.7-0.1 3.8-1.9 4.5-1.8 0.8-3.8 0-4.6-1.8-0.7-1.8 0.1-3.8 1.9-4.6z"/>
				<path id="&lt;Path&gt;" class="s0" d="m163.7 137.3c2.1-0.9 4.6 0.1 5.5 2.2 0.9 2.1-0.1 4.6-2.2 5.5-2.1 0.9-4.6-0.1-5.5-2.2-0.9-2.1 0.1-4.6 2.2-5.5z"/>
				<path id="&lt;Path&gt;" class="s0" d="m151.8 139.5c2.5-1.1 5.4 0.1 6.4 2.5 1.1 2.5-0.1 5.4-2.6 6.4-2.4 1.1-5.3-0.1-6.3-2.6-1.1-2.4 0.1-5.3 2.5-6.3z"/>
				<path id="&lt;Path&gt;" class="s0" d="m139.8 141.5c-2.9 1.2-4.2 4.5-3 7.3 1.2 2.8 4.5 4.1 7.3 2.9 2.8-1.2 4.1-4.5 2.9-7.3-1.2-2.8-4.4-4.1-7.2-2.9z"/>
			</g>
			<g id="&lt;Group&gt;">
				<path id="&lt;Path&gt;" class="s0" d="m188 148.5c0.8-0.1 1.5 0.5 1.6 1.3 0 0.8-0.5 1.5-1.4 1.6-0.8 0-1.5-0.5-1.5-1.4-0.1-0.8 0.5-1.5 1.3-1.5z"/>
				<path id="&lt;Path&gt;" class="s0" d="m177.8 156c0.8-0.1 1.5 0.5 1.6 1.3 0.1 0.8-0.5 1.5-1.3 1.6-0.8 0.1-1.5-0.5-1.6-1.3-0.1-0.8 0.5-1.5 1.3-1.6z"/>
				<path id="&lt;Path&gt;" class="s0" d="m162.1 146.4c0.8-0.1 1.5 0.5 1.6 1.3 0.1 0.8-0.5 1.5-1.3 1.6-0.8 0.1-1.5-0.5-1.6-1.3-0.1-0.8 0.5-1.5 1.3-1.6z"/>
				<path id="&lt;Path&gt;" class="s0" d="m168 163.4c0.8-0.1 1.5 0.5 1.6 1.3 0.1 0.8-0.5 1.5-1.3 1.6-0.8 0.1-1.5-0.5-1.6-1.3-0.1-0.8 0.5-1.5 1.3-1.6z"/>
				<path id="&lt;Path&gt;" class="s0" d="m175.7 162.9c0.8-0.1 1.5 0.5 1.6 1.3 0.1 0.8-0.5 1.5-1.3 1.6-0.8 0-1.5-0.6-1.6-1.4-0.1-0.8 0.5-1.5 1.3-1.5z"/>
				<path id="&lt;Path&gt;" class="s0" d="m164.1 156.2c0.8-0.1 1.5 0.5 1.6 1.3 0.1 0.8-0.5 1.5-1.3 1.6-0.8 0.1-1.5-0.5-1.6-1.3-0.1-0.8 0.5-1.5 1.3-1.6z"/>
				<path id="&lt;Path&gt;" class="s0" d="m178 148.9c1.2-0.1 2.2 0.8 2.3 2 0.1 1.1-0.8 2.2-1.9 2.3-1.2 0.1-2.3-0.8-2.4-2-0.1-1.1 0.8-2.2 2-2.3z"/>
				<path id="&lt;Path&gt;" class="s0" d="m172 144.6c1.2-0.1 2.2 0.7 2.3 1.9 0.1 1.2-0.7 2.2-1.9 2.3-1.2 0.1-2.2-0.7-2.3-1.9-0.1-1.2 0.7-2.2 1.9-2.3z"/>
				<path id="&lt;Path&gt;" class="s0" d="m169.5 156.9c1.2-0.1 2.3 0.7 2.4 1.9 0.1 1.2-0.8 2.2-2 2.3-1.2 0.2-2.2-0.7-2.3-1.9-0.1-1.2 0.8-2.2 1.9-2.3z"/>
				<path id="&lt;Path&gt;" class="s0" d="m149.8 149.5c1.2-0.1 2.2 0.8 2.3 1.9 0.1 1.2-0.7 2.3-1.9 2.4-1.2 0.1-2.2-0.8-2.3-2-0.2-1.2 0.7-2.2 1.9-2.3z"/>
				<path id="&lt;Path&gt;" class="s0" d="m168 149.4c1.5-0.2 2.9 1 3 2.5 0.2 1.6-1 3-2.5 3.1-1.6 0.1-3-1-3.1-2.6-0.1-1.5 1-2.9 2.6-3z"/>
				<path id="&lt;Path&gt;" class="s0" d="m160 158.6c1.5-0.2 2.9 1 3 2.5 0.2 1.6-1 3-2.5 3.1-1.6 0.1-3-1-3.1-2.6-0.1-1.5 1-2.9 2.6-3z"/>
				<path id="&lt;Path&gt;" class="s0" d="m157.9 149.8c2-0.1 3.7 1.3 3.8 3.2 0.2 1.9-1.2 3.6-3.1 3.8-2 0.2-3.7-1.2-3.8-3.2-0.2-1.9 1.2-3.6 3.1-3.8z"/>
				<path id="&lt;Path&gt;" class="s0" d="m149.4 154.8c2.3-0.2 4.4 1.5 4.6 3.8 0.2 2.3-1.5 4.3-3.8 4.6-2.3 0.2-4.4-1.5-4.6-3.8-0.2-2.3 1.5-4.4 3.8-4.6z"/>
				<path id="&lt;Path&gt;" class="s0" d="m137.5 153.2c2.6-0.2 5 1.8 5.2 4.4 0.3 2.7-1.7 5.1-4.4 5.3-2.7 0.2-5-1.7-5.3-4.4-0.2-2.7 1.8-5 4.5-5.3z"/>
				<path id="&lt;Path&gt;" class="s0" d="m125.3 151.4c-3 0.3-5.3 3-5 6 0.3 3.1 3 5.3 6 5.1 3.1-0.3 5.3-3 5.1-6-0.3-3.1-3-5.3-6.1-5.1z"/>
			</g>
			<g id="&lt;Group&gt;">
				<path id="&lt;Path&gt;" class="s0" d="m169.1 173c0.8 0.1 1.2 0.9 1.1 1.7-0.2 0.8-1 1.3-1.8 1.1-0.8-0.2-1.3-1-1.1-1.7 0.2-0.8 1-1.3 1.8-1.1z"/>
				<path id="&lt;Path&gt;" class="s0" d="m157.1 177c0.8 0.2 1.2 1 1.1 1.7-0.2 0.8-1 1.3-1.8 1.1-0.8-0.1-1.3-0.9-1.1-1.7 0.2-0.8 1-1.3 1.8-1.1z"/>
				<path id="&lt;Path&gt;" class="s0" d="m145.1 163c0.8 0.2 1.3 0.9 1.1 1.7-0.2 0.8-1 1.3-1.8 1.1-0.7-0.2-1.2-0.9-1.1-1.7 0.2-0.8 1-1.3 1.8-1.1z"/>
				<path id="&lt;Path&gt;" class="s0" d="m145.5 181c0.8 0.2 1.2 0.9 1.1 1.7-0.2 0.8-1 1.3-1.8 1.1-0.8-0.2-1.3-0.9-1.1-1.7 0.2-0.8 1-1.3 1.8-1.1z"/>
				<path id="&lt;Path&gt;" class="s0" d="m153 182.9c0.7 0.1 1.2 0.9 1.1 1.7-0.2 0.8-1 1.3-1.8 1.1-0.8-0.2-1.3-1-1.1-1.8 0.2-0.7 1-1.2 1.8-1z"/>
				<path id="&lt;Path&gt;" class="s0" d="m144 172.9c0.7 0.2 1.2 1 1.1 1.8-0.2 0.8-1 1.3-1.8 1.1-0.8-0.2-1.3-1-1.1-1.8 0.2-0.8 1-1.2 1.8-1.1z"/>
				<path id="&lt;Path&gt;" class="s0" d="m159.4 170.3c1.2 0.3 1.9 1.4 1.6 2.6-0.3 1.1-1.4 1.8-2.6 1.6-1.1-0.3-1.8-1.4-1.6-2.6 0.3-1.1 1.4-1.9 2.6-1.6z"/>
				<path id="&lt;Path&gt;" class="s0" d="m155.1 164.3c1.1 0.3 1.8 1.4 1.6 2.6-0.3 1.1-1.4 1.9-2.6 1.6-1.1-0.3-1.9-1.4-1.6-2.6 0.3-1.1 1.4-1.8 2.6-1.6z"/>
				<path id="&lt;Path&gt;" class="s0" d="m148.9 175.3c1.2 0.2 1.9 1.4 1.6 2.5-0.2 1.2-1.4 1.9-2.5 1.6-1.2-0.2-1.9-1.4-1.6-2.5 0.2-1.2 1.4-1.9 2.5-1.6z"/>
				<path id="&lt;Path&gt;" class="s0" d="m132.4 162.1c1.2 0.3 1.9 1.5 1.6 2.6-0.2 1.2-1.4 1.9-2.5 1.6-1.2-0.3-1.9-1.4-1.6-2.6 0.2-1.1 1.4-1.8 2.5-1.6z"/>
				<path id="&lt;Path&gt;" class="s0" d="m149.7 167.6c1.6 0.4 2.5 1.9 2.2 3.4-0.4 1.5-1.9 2.5-3.4 2.1-1.5-0.3-2.5-1.8-2.1-3.3 0.3-1.6 1.8-2.5 3.3-2.2z"/>
				<path id="&lt;Path&gt;" class="s0" d="m139.3 173.9c1.5 0.4 2.5 1.9 2.1 3.4-0.3 1.5-1.9 2.5-3.4 2.1-1.5-0.3-2.4-1.9-2.1-3.4 0.4-1.5 1.9-2.4 3.4-2.1z"/>
				<path id="&lt;Path&gt;" class="s0" d="m140.1 165c1.9 0.4 3 2.3 2.6 4.2-0.4 1.8-2.3 3-4.2 2.6-1.9-0.4-3.1-2.3-2.6-4.2 0.4-1.9 2.3-3.1 4.2-2.6z"/>
				<path id="&lt;Path&gt;" class="s0" d="m130.4 167.1c2.3 0.5 3.7 2.7 3.2 5-0.5 2.3-2.8 3.7-5 3.1-2.3-0.5-3.7-2.7-3.2-5 0.5-2.2 2.8-3.6 5-3.1z"/>
				<path id="&lt;Path&gt;" class="s0" d="m119.5 161.9c2.7 0.6 4.3 3.2 3.7 5.8-0.6 2.6-3.2 4.2-5.8 3.6-2.7-0.6-4.3-3.2-3.7-5.8 0.6-2.6 3.2-4.2 5.8-3.6z"/>
				<path id="&lt;Path&gt;" class="s0" d="m108.6 156.4c-3-0.7-6 1.2-6.7 4.2-0.6 3 1.2 5.9 4.2 6.6 3 0.7 6-1.2 6.6-4.1 0.7-3-1.1-6-4.1-6.7z"/>
			</g>
			<g id="&lt;Group&gt;">
				<path id="&lt;Path&gt;" class="s0" d="m143.5 190.4c0.7 0.4 0.9 1.3 0.5 2-0.4 0.7-1.3 0.9-2 0.5-0.7-0.4-0.9-1.3-0.5-2 0.4-0.7 1.3-0.9 2-0.5z"/>
				<path id="&lt;Path&gt;" class="s0" d="m130.8 190.5c0.7 0.4 1 1.3 0.5 2-0.4 0.7-1.3 0.9-2 0.5-0.6-0.4-0.9-1.3-0.5-2 0.5-0.7 1.4-0.9 2-0.5z"/>
				<path id="&lt;Path&gt;" class="s0" d="m123.8 173.5c0.7 0.4 0.9 1.3 0.5 2-0.4 0.7-1.3 0.9-2 0.5-0.7-0.4-0.9-1.3-0.5-2 0.4-0.7 1.3-0.9 2-0.5z"/>
				<path id="&lt;Path&gt;" class="s0" d="m118.6 190.7c0.7 0.4 0.9 1.3 0.5 2-0.4 0.7-1.3 0.9-2 0.5-0.7-0.4-0.9-1.3-0.5-2 0.4-0.7 1.3-0.9 2-0.5z"/>
				<path id="&lt;Path&gt;" class="s0" d="m125.1 194.8c0.7 0.4 0.9 1.3 0.5 2-0.4 0.7-1.3 1-2 0.5-0.7-0.4-0.9-1.3-0.5-2 0.4-0.7 1.3-0.9 2-0.5z"/>
				<path id="&lt;Path&gt;" class="s0" d="m119.6 182.6c0.7 0.4 0.9 1.3 0.5 2-0.4 0.7-1.3 0.9-2 0.5-0.7-0.4-0.9-1.3-0.5-2 0.4-0.7 1.3-0.9 2-0.5z"/>
				<path id="&lt;Path&gt;" class="s0" d="m135.1 184.9c1 0.6 1.4 1.9 0.8 2.9-0.6 1-2 1.4-3 0.8-1-0.7-1.3-2-0.7-3 0.6-1 1.9-1.3 2.9-0.7z"/>
				<path id="&lt;Path&gt;" class="s0" d="m132.8 177.9c1.1 0.6 1.4 1.9 0.8 2.9-0.6 1-1.9 1.3-2.9 0.7-1.1-0.6-1.4-1.9-0.8-2.9 0.6-1 1.9-1.3 2.9-0.7z"/>
				<path id="&lt;Path&gt;" class="s0" d="m123.6 186.4c1 0.6 1.4 1.9 0.8 2.9-0.6 1-2 1.3-3 0.7-1-0.6-1.3-1.9-0.7-2.9 0.6-1 1.9-1.3 2.9-0.7z"/>
				<path id="&lt;Path&gt;" class="s0" d="m112 168.8c1 0.6 1.3 1.9 0.7 2.9-0.6 1-1.9 1.4-2.9 0.8-1-0.6-1.3-2-0.7-3 0.6-1 1.9-1.3 2.9-0.7z"/>
				<path id="&lt;Path&gt;" class="s0" d="m126.8 179.4c1.3 0.8 1.7 2.5 0.9 3.8-0.8 1.4-2.5 1.8-3.8 1-1.4-0.8-1.8-2.5-1-3.9 0.8-1.3 2.5-1.7 3.9-0.9z"/>
				<path id="&lt;Path&gt;" class="s0" d="m114.9 182.1c1.3 0.8 1.8 2.5 1 3.9-0.8 1.3-2.6 1.7-3.9 0.9-1.3-0.8-1.8-2.5-1-3.8 0.8-1.4 2.5-1.8 3.9-1z"/>
				<path id="&lt;Path&gt;" class="s0" d="m118.4 173.8c1.7 1 2.2 3.2 1.2 4.8-1 1.7-3.1 2.2-4.8 1.3-1.7-1-2.2-3.2-1.2-4.8 1-1.7 3.1-2.2 4.8-1.3z"/>
				<path id="&lt;Path&gt;" class="s0" d="m108.6 172.9c2 1.2 2.6 3.7 1.4 5.7-1.2 2-3.7 2.6-5.7 1.5-2-1.2-2.6-3.8-1.5-5.8 1.2-2 3.8-2.6 5.8-1.4z"/>
				<path id="&lt;Path&gt;" class="s0" d="m99.8 164.5c2.3 1.4 3.1 4.4 1.7 6.7-1.4 2.3-4.4 3.1-6.7 1.7-2.3-1.4-3-4.4-1.6-6.7 1.3-2.3 4.3-3 6.6-1.7z"/>
				<path id="&lt;Path&gt;" class="s0" d="m91.1 156c-2.6-1.6-6-0.7-7.6 1.9-1.6 2.6-0.7 6 1.9 7.6 2.6 1.6 6 0.7 7.6-1.9 1.6-2.6 0.7-6.1-1.9-7.6z"/>
			</g>
			<g id="&lt;Group&gt;">
				<path id="&lt;Path&gt;" class="s0" d="m113.8 199.1c0.5 0.6 0.5 1.5-0.1 2-0.6 0.6-1.6 0.5-2.1-0.1-0.5-0.6-0.5-1.5 0.1-2.1 0.6-0.5 1.6-0.4 2.1 0.2z"/>
				<path id="&lt;Path&gt;" class="s0" d="m101.7 195.3c0.6 0.6 0.5 1.5-0.1 2.1-0.6 0.5-1.5 0.4-2.1-0.2-0.5-0.6-0.4-1.5 0.2-2 0.6-0.6 1.5-0.5 2 0.1z"/>
				<path id="&lt;Path&gt;" class="s0" d="m100.3 176.9c0.5 0.6 0.4 1.6-0.2 2.1-0.6 0.5-1.5 0.5-2-0.2-0.6-0.6-0.5-1.5 0.1-2 0.6-0.5 1.5-0.5 2.1 0.1z"/>
				<path id="&lt;Path&gt;" class="s0" d="m90 191.7c0.5 0.6 0.5 1.5-0.1 2.1-0.7 0.5-1.6 0.4-2.1-0.2-0.5-0.6-0.5-1.5 0.1-2 0.6-0.6 1.6-0.5 2.1 0.1z"/>
				<path id="&lt;Path&gt;" class="s0" d="m95 197.6c0.5 0.6 0.4 1.6-0.2 2.1-0.6 0.5-1.5 0.5-2-0.2-0.6-0.6-0.5-1.5 0.1-2 0.6-0.5 1.5-0.5 2.1 0.1z"/>
				<path id="&lt;Path&gt;" class="s0" d="m93.5 184.3c0.5 0.6 0.5 1.5-0.1 2.1-0.7 0.5-1.6 0.4-2.1-0.2-0.5-0.6-0.5-1.5 0.1-2 0.6-0.6 1.6-0.5 2.1 0.1z"/>
				<path id="&lt;Path&gt;" class="s0" d="m107.5 191.3c0.8 0.8 0.7 2.2-0.2 3-0.9 0.8-2.2 0.7-3-0.2-0.8-0.9-0.7-2.3 0.2-3 0.9-0.8 2.3-0.7 3 0.2z"/>
				<path id="&lt;Path&gt;" class="s0" d="m107.5 183.9c0.8 0.9 0.7 2.2-0.2 3-0.9 0.8-2.2 0.7-3-0.2-0.8-0.9-0.7-2.3 0.2-3 0.9-0.8 2.3-0.7 3 0.2z"/>
				<path id="&lt;Path&gt;" class="s0" d="m96.1 189.1c0.8 0.9 0.7 2.3-0.2 3-0.8 0.8-2.2 0.7-3-0.2-0.8-0.9-0.7-2.2 0.2-3 0.9-0.8 2.3-0.7 3 0.2z"/>
				<path id="&lt;Path&gt;" class="s0" d="m90.5 168.8c0.8 0.9 0.7 2.2-0.2 3-0.9 0.8-2.2 0.7-3-0.2-0.8-0.9-0.7-2.2 0.2-3 0.9-0.8 2.2-0.7 3 0.2z"/>
				<path id="&lt;Path&gt;" class="s0" d="m101.3 183.4c1 1.2 0.9 3-0.3 4-1.2 1-2.9 0.9-4-0.3-1-1.1-0.9-2.9 0.3-3.9 1.2-1.1 3-1 4 0.2z"/>
				<path id="&lt;Path&gt;" class="s0" d="m89.1 182.4c1.1 1.1 0.9 2.9-0.2 3.9-1.2 1.1-3 0.9-4-0.2-1-1.2-0.9-3 0.3-4 1.1-1 2.9-0.9 3.9 0.3z"/>
				<path id="&lt;Path&gt;" class="s0" d="m95 175.6c1.3 1.4 1.2 3.7-0.3 4.9-1.5 1.3-3.7 1.1-4.9-0.3-1.3-1.5-1.2-3.7 0.3-4.9 1.5-1.3 3.7-1.2 4.9 0.3z"/>
				<path id="&lt;Path&gt;" class="s0" d="m86 171.6c1.5 1.8 1.3 4.4-0.4 5.9-1.8 1.6-4.4 1.4-5.9-0.4-1.5-1.7-1.3-4.3 0.4-5.9 1.7-1.5 4.4-1.3 5.9 0.4z"/>
				<path id="&lt;Path&gt;" class="s0" d="m80.2 161c1.8 2 1.6 5.1-0.4 6.9-2 1.7-5.1 1.5-6.9-0.5-1.7-2-1.5-5.1 0.5-6.9 2-1.7 5.1-1.5 6.8 0.5z"/>
				<path id="&lt;Path&gt;" class="s0" d="m74.6 150.2c-2-2.4-5.5-2.6-7.8-0.6-2.3 2-2.6 5.5-0.6 7.8 2 2.3 5.5 2.6 7.8 0.6 2.4-2 2.6-5.5 0.6-7.8z"/>
			</g>
		</g>
		<g id="&lt;Group&gt;">
			<path id="&lt;Compound Path&gt;" fill-rule="evenodd" class="s0" d="m85.3 113.7h-4.1l-0.7 1.5h-1.6l3.6-8h1.6l3.5 8h-1.6zm-2.1-4.8l-1.4 3.4h2.9z"/>
			<path id="&lt;Compound Path&gt;" class="s0" d="m93.1 109.2c-0.3-0.5-1-0.9-1.9-0.9-1.1 0-1.6 0.4-1.6 1 0 0.7 0.8 0.9 1.7 1 1.7 0.2 3.2 0.7 3.2 2.5 0 1.8-1.6 2.6-3.3 2.6-1.6 0-2.9-0.5-3.5-2l1.3-0.6c0.3 0.8 1.2 1.2 2.2 1.2 0.9 0 1.8-0.3 1.8-1.2 0-0.7-0.8-1-1.8-1.1-1.6-0.2-3.1-0.6-3.1-2.4 0-1.7 1.6-2.3 3-2.3 1.3 0 2.6 0.3 3.2 1.5z"/>
			<path id="&lt;Compound Path&gt;" class="s0" d="m97.7 108.6h-2.5v-1.4c2.3 0 4.2 0 6.5 0v1.4h-2.5v6.6h-1.5z"/>
			<path id="&lt;Compound Path&gt;" fill-rule="evenodd" class="s0" d="m109.6 115.2h-1.7l-2.3-2.7h-1.5v2.7h-1.5v-8q1.9 0 3.8 0c1.9 0.1 2.8 1.3 2.8 2.7 0 1.1-0.5 2.1-2 2.5l2.4 2.7zm-5.5-6.6v2.6h2.3c0.9 0 1.3-0.7 1.3-1.3 0-0.6-0.4-1.3-1.3-1.3z"/>
			<path id="&lt;Compound Path&gt;" fill-rule="evenodd" class="s0" d="m115.9 113.7h-4.2l-0.7 1.5h-1.6l3.6-8h1.6l3.6 8h-1.7zm-2-4.8l-1.5 3.4h2.9z"/>
			<path id="&lt;Compound Path&gt;" class="s0" d="m120.4 107.2v6.6h4.1v1.4h-5.6v-8z"/>
		</g>
		<g id="&lt;Group&gt;">
			<path id="&lt;Compound Path&gt;" class="s1" d="m63.1 101.2c-1.1 1.1-2.3 1.5-3.7 1.5-2.9 0-5.2-1.7-5.2-5.2 0-3.4 2.3-5.1 5.2-5.1 1.3 0 2.4 0.4 3.5 1.4l-1.5 1.6c-0.6-0.5-1.3-0.8-2-0.8-1.6 0-2.8 1.2-2.8 2.9 0 1.9 1.2 2.9 2.8 2.9 0.7 0 1.5-0.2 2.1-0.8z"/>
			<path id="&lt;Compound Path&gt;" fill-rule="evenodd" class="s1" d="m74.1 97.5c0 2.8-1.9 5.1-5.1 5.1-3.2 0-5.1-2.3-5.1-5.1 0-2.8 2-5.1 5.1-5.1 3.1 0 5.1 2.3 5.1 5.1zm-7.8 0c0 1.5 0.9 2.9 2.7 2.9 1.8 0 2.7-1.4 2.7-2.9 0-1.4-1.1-2.9-2.7-2.9-1.7 0-2.7 1.5-2.7 2.9z"/>
			<path id="&lt;Compound Path&gt;" class="s1" d="m82.9 102.4v-5.1c0-1.5-0.8-2.6-2.3-2.6-1.5 0-2.5 1.2-2.5 2.7v5h-2.4v-9.8h2.2l0.1 1.4c1-1 2-1.5 3.2-1.5 2.3 0 4.2 1.7 4.2 4.8v5.1z"/>
			<path id="&lt;Compound Path&gt;" class="s1" d="m95.8 101.2c-1.1 1.1-2.3 1.5-3.7 1.5-2.9 0-5.2-1.7-5.2-5.2 0-3.4 2.3-5.1 5.2-5.1 1.3 0 2.4 0.4 3.5 1.4l-1.5 1.6c-0.6-0.5-1.3-0.8-2-0.8-1.6 0-2.8 1.2-2.8 2.9 0 1.9 1.3 2.9 2.8 2.9 0.7 0 1.5-0.2 2.1-0.8z"/>
			<path id="&lt;Compound Path&gt;" fill-rule="evenodd" class="s1" d="m96.7 89.9c0 1.9 2.8 1.9 2.8 0 0-1.9-2.8-1.9-2.8 0zm0.2 2.7v9.8h2.4v-9.8z"/>
			<path id="&lt;Compound Path&gt;" fill-rule="evenodd" class="s1" d="m103.6 98.4c0.1 1.2 1.2 2.1 2.9 2.1 0.9 0 2-0.4 2.6-0.9l1.5 1.5c-1 1.1-2.7 1.6-4.2 1.6-3.3 0-5.3-2.1-5.3-5.2 0-3 2-5.2 5.1-5.2 3.3 0 5.4 2.1 5 6.1zm5.3-2c-0.2-1.3-1.2-1.9-2.5-1.9-1.4 0-2.4 0.6-2.8 1.9z"/>
			<path id="&lt;Compound Path&gt;" class="s1" d="m120.2 102.4v-5.1c0-1.5-0.8-2.6-2.3-2.6-1.5 0-2.5 1.2-2.5 2.7v5h-2.4v-9.8h2.1l0.2 1.4c1-1 2-1.5 3.2-1.5 2.3 0 4.1 1.7 4.1 4.8v5.1z"/>
			<path id="&lt;Compound Path&gt;" class="s1" d="m133.1 101.2c-1.1 1.1-2.3 1.5-3.8 1.5-2.8 0-5.1-1.7-5.1-5.2 0-3.4 2.3-5.1 5.1-5.1 1.4 0 2.5 0.4 3.6 1.4l-1.6 1.6c-0.5-0.5-1.2-0.8-1.9-0.8-1.6 0-2.8 1.2-2.8 2.9 0 1.9 1.2 2.9 2.7 2.9 0.8 0 1.6-0.2 2.2-0.8z"/>
			<path id="&lt;Compound Path&gt;" fill-rule="evenodd" class="s1" d="m134 89.9c0 1.9 2.8 1.9 2.8 0 0-1.9-2.8-1.9-2.8 0zm0.2 2.7v9.8h2.4v-9.8z"/>
			<path id="&lt;Compound Path&gt;" fill-rule="evenodd" class="s1" d="m146.5 92.6h2.3v9.8h-2.2l-0.2-1.4c-0.5 1.1-2 1.7-3.1 1.7-2.9 0-5.1-1.8-5.1-5.2 0-3.4 2.3-5.1 5.1-5.1 1.3 0 2.6 0.6 3.1 1.6zm-5.8 4.9c0 1.8 1.3 2.9 2.9 2.9 3.8 0 3.8-5.9 0-5.9-1.6 0-2.9 1.1-2.9 3z"/>
		</g>
	</g>
</svg>