<?xml version="1.0" encoding="UTF-8"?>
<svg id="Layer_2" data-name="Layer 2" xmlns="http://www.w3.org/2000/svg" xmlns:xlink="http://www.w3.org/1999/xlink" viewBox="0 0 159.21 78.91">
  <defs>
    <style>
      .cls-1 {
        filter: url(#drop-shadow-1);
      }

      .cls-2, .cls-3 {
        fill: #fff;
      }

      .cls-2, .cls-4 {
        fill-rule: evenodd;
      }

      .cls-4 {
        fill: #001f60;
      }
    </style>
    <filter id="drop-shadow-1" x="-9.45" y="5.33" width="179" height="84" filterUnits="userSpaceOnUse">
      <feOffset dx="0" dy="0"/>
      <feGaussianBlur result="blur" stdDeviation="3.04"/>
      <feFlood flood-color="#000" flood-opacity=".47"/>
      <feComposite in2="blur" operator="in"/>
      <feComposite in="SourceGraphic"/>
    </filter>
  </defs>
  <g id="Layer_1-2" data-name="Layer 1">
    <g>
      <g class="cls-1">
        <g>
          <path class="cls-4" d="M159.21,61.26h-4.86l-.22,1.33c-.03.19-.81,4.64-4.03,4.6h-1.93v-24.11c.01-.07.12-1.9.98-2h0s.55-.05,1.35.16l2,.55v-4.8l-1.2-.3s-.15-.04-.38-.1c.93-.71,1.53-1.83,1.53-3.09,0-2.13-1.73-3.86-3.86-3.86-1.06,0-2.01.42-2.71,1.12l.23-7.02s-.07,0-.07,0c0-.27.32-8.33.32-8.33l-4.97-.06s-.02.35-.04.68c-2.08-1.04-5.6-1.92-9.54-.47-5.21,1.92-6.59,6.64-6.59,9.13,0,2.74.92,5.1,2.66,6.89-3.08-.58-6.27-1.14-9.43-1.64l-1.72-.27v.17c-.61-.07-1.18-.13-1.67-.17.85-.41,1.63-.94,2.3-1.58,1.47-1.42,2.31-3.28,2.34-5.22.04-1.95-.73-3.84-2.14-5.32-1.65-1.71-4.04-2.72-6.57-2.77-2.52-.05-4.95.87-6.67,2.52-.25.24-.48.49-.69.76v-2.75h-5.04v.34c-.91-.29-2.15-.5-4.01-.5s-3.34.58-4.59,1.46v-1.4h-11.27v.67c-.59-.26-1.29-.42-2.11-.46-2.62-.12-22.64-.15-23.49-.15h-1.59v1.67c-.88-.53-1.9-.92-3.04-1.17-.02,0-1.82-.38-2.96-.27,0,0,.04-.01.04-.01h-17.21c-.65,0-13.09-.24-18.01,0-5.72.29-8.46,4.16-9.38,5.82-1.11,2.02-1.79,5.97.86,8.62,1.22,1.22,2.69,1.87,4.24,1.85,1.51-.01,3.01-.68,4.12-1.82.19-.2.34-.41.48-.61v8.61c0,2.52-1.29,3.03-1.44,3.08-.08.02-1.08.31-1.08.31l-.05,1.18-.03,2.48c-4.23,2.17-9.38,6.71-6.71,12.03.98,1.95,2.95,3.19,5.41,3.39,1.6.13,2.92-.39,3.85-1.48,0,.83,0,1.66,0,2.46,0,2.22-.02,4.17-.07,5.05-.03.38-.15.49-.21.54-.34.29-1.14.33-1.57.29l-1.73-.05-.06,1.62v3.02h10.52s26.81,0,26.81,0c5.65,5.9,11.96,6.65,12.44,6.69,9.87,1.02,14.51-4.66,14.71-4.91l.07-.09.06-.1c.35-.6.46-1.09.51-1.47h23.87c1.14,2.2,2.89,4.05,4.95,5.1,3.5,1.77,8,2.29,11.75,1.34,3.33-.85,6.47-3.39,8.49-6.59h24.11s11.58,0,11.58,0l2.34-10.59Z"/>
          <path class="cls-2" d="M52.41,19.78c-2.23-2.97-6.83-2.72-6.83-2.72h-17.22s-12.97-.24-17.92,0c-4.95.25-7.28,3.56-8.07,5-.79,1.44-1.48,4.65.6,6.73,2.08,2.08,4.6,1.58,6.09.05,1.48-1.54.6-4.16.6-4.16-1.39,2.03-3.12,1.69-3.76,1.14-.64-.54-.74-1.63-.74-2.08s.59-4.25,3.86-4.95c3.27-.69,3.27,3.41,3.27,3.41v15.74c0,3.92-2.58,4.61-2.58,4.61l-.02,1.54,10.88-4.38v-1.61s-.45.42-1.61.42c-1.58,0-1.58-1.63-1.58-1.63v-7.91c1.13-.27,2.08-.14,2.08-.14,2.03.29,1.74,3.12,1.74,3.12l1.54-.35v-7.47h-1.64c.05,1.78-.29,2.37-.99,2.82-.69.45-2.72.49-2.72.49v-9.01s1.83-.09,3.96,0c2.13.1,2.08,3.22,2.08,3.22h1.53v-3.31c1.63.35,1.73,1.93,1.73,1.93v12.67s.1,1.48-.6,2.57c-.69,1.09-2.03,1.24-2.03,1.24l-.05,1.64s11.51-4.44,21.38-6.73c3.3-.77,5.89-2.67,7.08-4.11,1.18-1.44,2.18-4.8-.05-7.77ZM40.5,30.03c-.06,1.81-1.89,1.97-1.89,1.97l.03-2.68h-1.38s.03.57-.03,1.16c-.06.6-.76,1.67-1.64,2.21-.88.53-4.41,1.46-4.41,1.46v-7.55s.79-.17,2.12-.11c1.33.05.99,2.31.99,2.31l1.32-.31v-5.96h-1.35s.03,1.41-.6,2.01c-.62.59-2.46.51-2.46.51v-6.64s2.88-.03,4.44.08c1.55.11,1.67,2.6,1.67,2.6h1.41v-2.8c1.89.2,1.78,1.75,1.78,1.75,0,0,.06,8.17,0,9.97ZM49.43,26.38c-.45,3.11-4.89,3.98-4.89,3.98v-11.92s1.58-.31,3.11.45c2.23,1.32,2.23,4.38,1.78,7.49Z"/>
          <path class="cls-2" d="M88.41,18.28v-1.5h-8.1v1.5c0-.12,1.26.08,1.38.13.36.17.73.5.78.92.09.75,0,5.13,0,5.13,0,0,.02,1.26-1.08,1.35-1.11.09-5.72-2.79-6.08-3.08,0,0-.45-.39-.03-.36.42.03,2.04.21,3.17-.42,1.14-.63,1.56-1.83,1.44-2.49-.12-.66-.75-2.34-3.35-2.46-2.61-.12-23.41-.15-23.41-.15v1.57s1.18-.13,1.69.26c.51.39.87.69.87,1.29v6.2s.09,1.32-.93,1.8c-1.02.48-1.41.48-1.41.48v1.23s9.86-1.92,19.81-2.4v-1.23s-1.56.06-1.62-.87c-.06-.93,0-2.67,0-2.67,0,0,.15-.24.3.03.15.27,2.52,4.7,6.2,4.73,2.61.09,3.78-.3,3.78-.3h6.51v-1.32s-1.04-.01-1.18-.06c-.74-.28-.87-1.07-.91-1.76-.05-1,0-2,0-3,0-.7-.06-1.58.42-2.16.43-.52,1.16-.4,1.76-.4ZM67.85,25.38c.03,1.2-2.1,1.14-2.1,1.14v-2.22h-1.29s.12,1.41-.9,2.13c-1.02.72-3.96.75-3.96.75v-3.87s.75-.12,1.59.03c.84.15.84,1.38.84,1.38l1.26-.12v-4.16h-1.29s.06.21-.24,1.02c-.3.81-2.15.72-2.15.72v-3.9s2.34-.06,3.53.03c1.2.09,1.41,2.04,1.41,2.04h1.29v-2.09c1.95,0,2.01,1.35,2.01,1.35,0,0-.04,4.58,0,5.78ZM71.44,21.49v-3.13s2.5-.12,3.3,0c.79.12,1.23.71,1.23,1.27s-.2,1.15-1.07,1.63c-.88.48-3.46.24-3.46.24Z"/>
          <path class="cls-2" d="M102.05,20.86v-3.97h-1.87v.8s0,.52-.67.12c-.67-.4-1.67-1.08-4.93-1.08s-5.55,2.43-5.95,4.45c-.4,2.02.56,4.29,2.82,5.52,2.31,1.26,6.36,1.22,8.51-.34.57-.41,1.11-.9,1.54-1.47.08-.11.87-1.65.63-1.65h-2.3s-.75,2.98-3.97,2.46c-3.21-.52-3.06-2.98-3.06-4.13s1.03-3.3,3.33-3.26c1.88.03,3.16.97,4.01,2.58.63-.02,1.28-.03,1.9-.04Z"/>
          <path class="cls-2" d="M110.97,16.36c-4.02-.08-7.33,2.69-7.4,6.18-.06,3.5,3.14,6.39,7.16,6.47,4.02.08,7.33-2.69,7.4-6.19.07-3.49-3.14-6.38-7.16-6.46ZM113.78,22.9c-.05,2.42-1.43,4.35-3.08,4.32-1.65-.03-2.95-2.02-2.91-4.44.05-2.41,1.43-4.35,3.08-4.32,1.65.04,2.95,2.02,2.91,4.43Z"/>
          <path class="cls-2" d="M150.9,33.5c0,1.26-1.02,2.28-2.28,2.28s-2.28-1.02-2.28-2.28,1.02-2.28,2.28-2.28,2.28,1.02,2.28,2.28Z"/>
          <path class="cls-2" d="M144.52,22.36l.21-5.39-1.82-.02-.04.9s-.05,1.09-1.14.24c-1.09-.86-4.84-2.71-9.34-1.05-4.51,1.66-5.55,5.69-5.55,7.64s.53,4.36,2.7,6.26c2.18,1.9,5.89,2.85,9.87,1.99,1.85-.61,1.62-1,2.56-.61.95.38.62,1.89.62,1.89l1.61.34.3-9.32-7.75-.5v1.56s2.09-.09,2.66.61c.57.72.52,3.18-.81,4.08-1.33.9-3.84.9-4.89-.95-1.04-1.85-1.32-5.08-.47-7.35.86-2.28,2.18-4.22,4.89-4.27,2.7-.05,4.32,3.04,4.32,3.98l2.09-.04Z"/>
          <path class="cls-2" d="M69.92,72.63c-4.29,2.6-9.13,2.14-9.13,2.14-6.69-1.1-9.63-4.83-13.03-9.19-3.39-4.35-5.82-11.04-6.41-12.34-.58-1.31,0-1,0-1,4.14-.52,5.97-3.38,6.96-6.22,1.38-3.97.41-13.86-9.09-11.04-11.2,3.32-25.14,8.91-29.39,10.93-1.56.74-3.18,1.56-4.62,2.51-1.44.94-2.75,2.52-3.2,4.19-.73,2.66,1.21,5.94,4.89,6.24,4.2.35,3.51-5.58,3.51-5.58-.98,1.9-3.62,2.01-4.37.52-.75-1.5.52-5.92,3.56-6.21,3.05-.29,2.53,3.68,2.53,3.68,0,0,.17,12.54,0,15.3-.17,2.76-3.57,2.3-3.57,2.3v1.44h13.06v-1.36c-3.65,0-3.44-3.44-3.44-3.44v-8.94s1.27-.26,2.96.16c1.69.42,1.17,3.44,1.17,3.44l1.85-.1v-8.79h-1.75s0,1.27-.37,2.65c-.37,1.38-3.86,1.06-3.86,1.06v-10.8s2.01-.9,4.55-1.7c2.54-.79,2.43,3.76,2.43,3.76l1.53-.53v-4.98c1.85-.8,2.07,1.7,2.07,1.7,0,0,.26,21.55,0,24.19-.26,2.65-3.12,2.22-3.12,2.22v1.48h13.29v-1.48c-3.71-.37-3.61-3.02-3.61-3.02v-11.81c.38-1.11.75.84.75.84,0,0,3.12,8.95,8.68,15.3,5.56,6.35,12.14,6.85,12.14,6.85,9.13.94,13.31-4.32,13.31-4.32.36-.61-.31-.05-.31-.05ZM35.88,51.94s-.53.1-.53-.71v-13.18s-.21-.25.53-.46c.74-.21,4.03-1.16,5.46.8,1.42,1.96,2.06,5.67,1.16,8.58-.9,2.91-2.28,4.87-6.62,4.98Z"/>
          <path class="cls-2" d="M79.18,50.25c0,11.51-6.7,20.85-14.96,20.85s-14.96-9.33-14.96-20.85,6.7-20.84,14.96-20.84,14.96,9.33,14.96,20.84Z"/>
          <path class="cls-2" d="M121.13,57.07c-2.01-5.45-7.68-7.04-8.84-7.41-1.17-.37-.05-.53-.05-.53,5.88-.05,7.25-6.3,7.3-8.68.05-2.38-.37-8.26-10.32-10.11-9.95-1.86-32.99-1.75-32.99-1.75v1.64s.32-.16,2.17,0c2.28.21,2.38,3.02,2.38,3.02v30.92c0,1.49-.21,2.86-1.11,3.82-.9.95-3.39.79-3.39.79v1.54h18.85c-.48-1.27-.64-3.44-.64-3.44-2.11,2.65-6.24,1.69-6.24,1.69v-19.69s.64-.26,3.55.21c2.91.48,2.64,4.07,2.64,4.07h1.75v-10.01h-1.8c0,1.96-.43,2.7-1.28,3.6-.84.9-4.87.69-4.87.69v-17s0-.21,4.23.11c4.24.31,4.02,4.65,4.02,4.65h1.7v-4.39c2.17.37,1.9,2.54,1.9,2.54v34.15h7.41v-17.21s4.39.64,6.62,4.92c.61,1.18,1.01,2.65,1.2,3.96.6,4.23-.18,9.92-3.92,12.45-4.43,2.99-10.11.51-12.84-3.44-1.32-1.91-1.54-3.65-1.69-5.56-.16-1.91-.53.47-.53.47-.21,1.25-.32,2.57-.22,3.85.27,3.47,2.36,7.13,5.52,8.73,3.13,1.59,7.24,2.08,10.64,1.21,3.28-.83,6.16-3.32,7.83-6.21,1.96-3.39,3.02-8.16,1.01-13.61ZM107.73,48.6s-.26.11-.32-.48v-16.2s4.98-.48,5.77,4.61c.79,5.08.26,8.31-.85,9.63-1.11,1.32-2.17,2.44-4.6,2.44Z"/>
          <path class="cls-2" d="M155.7,62.84s-.95,5.98-5.61,5.93h-3.5v-25.73s.05-3.28,2.39-3.55c0,0,.79-.11,1.96.21v-1.48s-16.57-4.18-32.72-6.72l-.1,1.64s4.13.21,4.13,3.23v18.37s3.86,7.25.16,15.51h33.19l1.64-7.41h-1.54ZM139.55,67.71c-.58,1.22-2.43.9-2.43.9v-5.93h-1.54s.05.95-.53,3.65c-1.11,3.29-6.19,2.44-6.19,2.44v-17.42s1.43-.42,3.13,0c2.8.9,2.38,4.24,2.38,4.24h1.53v-9.95h-1.58s0,1.59-.8,2.97c-.8,1.37-4.71.9-4.71.9v-14.51s.43-.05,3.65.69c3.23.75,3.18,5.4,3.18,5.4l1.75.27v-4.77c2.7.59,2.65,4.18,2.65,4.18v21.45c0,4.39.11,4.29-.48,5.5Z"/>
          <path class="cls-4" d="M62.23,67.56c-1.22-.59-2.57-1.02-3.68-1.8-.27-.26-.54-.55-.87-.7-.02-.1-.01-.2,0-.3-.93-.26-1.31-1.56-2.13-1.89-.01-.16,0-.32,0-.47.06-.03.13-.05.21-.07,0-.06,0-.1,0-.15q-.45.17-.55.15c-.71-1.36-1.63-2.9-1.92-4.39-.18-.09-.36-.4-.25-.6.13,0,.28,0,.42.02.18-.24.38-.48.57-.71.47-.31.76-.74,1.21-1.07.07-.57.16-.57.65-.82.02-.71-.53-1.12-1.02-1.53-.22-.43-.44-.85-.64-1.28-.05-.5-.11-1.04-.2-1.51.07-1.11.38-2.26.08-3.35q-.13-.22-.17-.44c.69.13.26,1,.81,1.18.04.15.07.3.14.44h.1s0,.06,0,.11c.55.17.82,1.16,1.16,1.59q.11.06.55.06c.01-.57-.1-1.15-.14-1.72-.16-.02-.32-.04-.48-.06-.43-.45-.94-1.42-.56-2.03q.05-.75,0-1.04s-.07,0-.1,0c-.01-.04-.03-.09-.04-.11-.08,0-.15,0-.22,0-.13.55-.43,1.87,0,2.32.1.23.24.49.18.76-.75-.02-.81-2.02-.8-2.54.18-.86.19-1.09,1.11-1.11,0-.09.02-.18.04-.25-.48-.11-.8-.02-1.22-.06.14-.9.02-2.51,1.15-2.84.06-.16.12-.32.2-.48-.12-.02-.23-.03-.35-.06-.62-1.34.88-3.19,1.29-4.45.03,0,.06,0,.08,0q.58-.96.75-1.35c.57-.34,1.09-.91,1.63-1.32,1.63-.51,3.39-1.07,5.1-.63.18.08.31.14.53.16,1.82-.47,3.74.27,5.26,1.25.82.72.85.82,1,.92q.79,1.01.95,1.14.4.77.53.9c.45,1.18.83,2.35,1.16,3.57.11.91.21,1.81.33,2.73.07.19.08.38.27.47.29,1.32-.18,2.75.1,4.06-.02.59.07,1.46.08,2.53-.13,1-.35,2.31-.77,3.25-.38.14-.38.28-.48.66.2,0,.37-.09.57-.09q.41.28.59.47t.5.2v.09c.07.04.16.09.25.13,0,.03,0,.07,0,.12-.07.03-.13.06-.19.09q.96.05,1.29.13-.03.24-.09.35c-.1,0-.19,0-.28.02.06.03.12.06.17.11,0,.06,0,.13,0,.2-.82.13-1.68.15-2.52.17.52.27,1.65-.02,2.33.1.24,1.09-1.24.52-1.77.77-.05-.03-.12-.04-.18-.06-.03.01-.06.03-.09.06h-3.45q-.19.1-.4.12s.03.06.04.1c1.74.04,3.54.12,5.26-.04.1,0,.2,0,.3.02.04.19,0,.36-.07.55-2.12.47-4.48-.17-6.64.16,0,.03,0,.07,0,.12,2.1.1,4.28.08,6.38.1q.02.19-.05.35c-1.75.38-3.8-.32-5.59,0-.01.03-.03.06-.05.09,1.84.04,3.68.09,5.53.15-.02.06-.03.11-.04.19-.49.22-1.1.11-1.65.15,0,.05,0,.1,0,.16.45.04.92.08,1.38.12,0,.07,0,.16,0,.25-.04,0-.07,0-.1,0,0,.03,0,.06,0,.1-.04,0-.07,0-.1,0,0,.2-.13.38-.22.55-1.11-.04-.83-1.53-1.93-.49-.1.04-.19.08-.28.14-.98,0-1.95.01-2.92.02-.04.01-.07.03-.1.06.81.25,1.94-.05,2.78.12.1.15.08.25.11.43.04.01.1.04.16.07.02.27.05.53.09.79.14-.01.29,0,.45,0q.29.38.32.51c-.27.39-.54.5-1.01.57.06.04.13.07.2.09-.18.25-.4.44-.7.51-.4,1.49-4.02-.1-4.81.65,1.31.03,2.64.06,3.96.11-.05.2-.12.23-.3.34-.31,0-2.75-.11-3.01.13.82.15,1.75.12,2.56.13-.09.12-.17.23-.24.35q-2.48-.05-3.49-.01c-.02.07-.03.14-.04.22.45.01,2.06-.1,2.59.18,0,.05,0,.1.01.16-.83.52-2.42-.19-3.43.04-.5-.02-.98.01-1.44.18.05.02.11.05.17.08,1.2-.01,2.4.09,3.6.18-.21.56-2.19.24-2.44.23.15.32.97.23,1.32.31,0,.04,0,.1,0,.16-.76.2-1.44-.02-2.2-.04-.09.03-.18.07-.25.11,0,.03,0,.07,0,.12.42.03.85.07,1.28.1.01.04.03.11.04.16-1.05.07-2.14.07-3.21.07Z"/>
          <path class="cls-2" d="M62.84,66.85c-.16-.16-.26-.14-.49-.12.2-.57.15-.64-.12-1.2-.14-.15-1.18-1.82-1.35-2-.13-.02-.26-.04-.4-.05.08-.19.1-.26.26-.38,0-.32-.19-.5-.19-.82.4-.22.93-.46,1.17-.83.31,0,.73.37,1.08.51.26,0,.54.01.81.02q1.03-.32,1.13-.32c.33.27.5.38.91.49.07.56-.37,1.07-.52,1.59-.25.11-.56.47-.8.69-.02.58-.7,1.04-.62,1.52.03.02.06.03.1.05,0,.03,0,.06,0,.11-.16.03-.33.08-.49.13,0,.22.08.34.17.53-.23.02-.45.04-.67.09Z"/>
          <path class="cls-2" d="M61.78,66.05v-.1s.06,0,.1,0v.1h-.1Z"/>
          <path class="cls-2" d="M61.74,65.76c-.01-.07-.03-.15-.04-.21.03.02.06.04.1.05.02.04.03.1.04.16h-.1Z"/>
          <path class="cls-2" d="M61.22,65.31s.03-.09.04-.12c.05,0,.09,0,.15,0-.01.03-.03.07-.05.11-.06,0-.1,0-.14,0Z"/>
          <path class="cls-2" d="M65.59,64.98c-.05-.04-.11-.09-.17-.12q.27-.05,1.27-.02s0,.04-1.1.14Z"/>
          <path class="cls-2" d="M67.12,64.91q.03-.05.16-.05c-.06.01-.11.03-.16.05Z"/>
          <path class="cls-2" d="M57.73,64.64c.06-.13.09-.14.25-.2-.09.13-.09.17-.25.2Z"/>
          <path class="cls-2" d="M67,63.79c-.09-.02-.18-.04-.25-.05-.1-.57,2.41-.23,2.88-.15-.86.11-1.75.16-2.63.2Z"/>
          <path class="cls-2" d="M69.24,63.26s-.08-.03-.1-.05c0-.04,0-.07,0-.1-.21,0-.4,0-.58-.01v-.09q1.63,0,2.73-.07c.07-.03.6-.2.6.03-.41.2-1.15-.12-1.42.27-.51-.01-.74-.05-1.22.01Z"/>
          <path class="cls-2" d="M68.22,63.04s0-.03,0-.04c.03,0,.06,0,.1,0v.04s-.06,0-.1,0Z"/>
          <path class="cls-2" d="M69.65,62.69c-.55-.12-1.48.02-1.88-.25,1.61-.02,3.41-.26,4.99,0,0,.03,0,.06,0,.1-1.42.02-1.56.08-3.11.16Z"/>
          <path class="cls-2" d="M59.68,62.29v-.09h.06v.09s-.03,0-.06,0Z"/>
          <path class="cls-2" d="M68.79,62.04s0-.06,0-.1c.07,0,.15,0,.24,0,0,.03,0,.06,0,.1-.07,0-.15-.01-.23-.01Z"/>
          <path class="cls-2" d="M69.32,62.05s0-.06,0-.1c.21,0,.44.01.68.02,0,.03,0,.06,0,.1-.22,0-.45-.01-.68-.01Z"/>
          <path class="cls-2" d="M70.68,62.04s0-.03,0-.06c.04,0,.09,0,.15,0v.06s-.09,0-.15,0Z"/>
          <path class="cls-2" d="M71.42,62.06s.02-.09.03-.12q.45,0,.7.05c-.25.02-.5.04-.73.07Z"/>
          <path class="cls-2" d="M58.39,61.59c-.01-.06-.02-.1-.02-.15.25-.19.44-.2.72-.23-.17.24-.4.34-.7.38Z"/>
          <path class="cls-2" d="M59.56,61.62s0-.06,0-.1h.15s0,.06,0,.1c-.04,0-.09,0-.14,0Z"/>
          <path class="cls-4" d="M73.65,61.82q-.25-.25-.38-.51c-.32-.19-.53-.26-.46-.64.58.01,1.58.29,1.09,1.05-.09.03-.18.05-.25.09Z"/>
          <path class="cls-2" d="M68.16,61.58c-.19-.03-.29-.1-.4-.21,1.14-.1,2.41.02,3.57,0q-.07-.25-.05-.35c.13-.06.18-.09.35-.05.02.03.03.07.04.12-.04,0-.07.01-.1.03-.02.09-.03.18-.05.26.07.02.16.03.25.05-.02.03-.03.06-.05.1-1.11.22-2.41.07-3.56.06Z"/>
          <path class="cls-2" d="M61.96,61.09c-.32-.98-.17-1.96-.13-3,.1-.01.2-.02.32-.02.03.53.28,2.89-.19,3.03Z"/>
          <path class="cls-2" d="M69.78,61.14c-.09-.06-.17-.12-.26-.17.34-.12.7-.04,1.05.03.02.03.03.06.04.1-.39-.11-.5-.01-.83.04Z"/>
          <path class="cls-2" d="M65.19,60.24s-.07-.04-.1-.05c0-.16,0-.32.01-.48.19.03.57.06.53.35-.15.06-.29.11-.44.18Z"/>
          <path class="cls-2" d="M57.47,59.9c.08-.16.16-.24.34-.19.01.03.03.07.04.12-.13.03-.27.05-.38.08Z"/>
          <path class="cls-2" d="M69.17,60.11s-.03-.06-.04-.07c.05-.01.09-.01.15-.01-.05.03-.08.05-.11.08Z"/>
          <path class="cls-2" d="M70.88,60.15s-.07-.06-.1-.09c.05,0,.1.02.16.04-.03.01-.04.03-.06.05Z"/>
          <path class="cls-2" d="M69.29,59.76c-.15-.06-.29-.11-.43-.16,0-.03,0-.06,0-.09,1.54,0,2.04.07,3.27.05.07.02.16.04.25.07v.06c-1.01.09-2.06-.05-3.08.07Z"/>
          <path class="cls-2" d="M57.48,59.24c0-.18.9-.74,1.09-.72q.07.11.05.21c-.21.08-.41.18-.61.28,0,.03,0,.06,0,.1-.18.04-.35.08-.53.14Z"/>
          <path class="cls-2" d="M65.11,59.17c-.1-.09-.2-.16-.3-.24,0-.07,0-.13,0-.19q.26-.08.51-.07c.05.12.02.26,0,.41-.08.03-.15.05-.21.08Z"/>
          <path class="cls-2" d="M58.62,58.09q-.66-1.47-1-2.06c-.13-.63-.17-1.24-.44-1.82q-.15-1.61-.19-2.77s.08-.03.12-.03c.3.37.59,1.5,1.05,1.66.04.18.11.25.22.37.49.87,1.09,1.64,1.75,2.42,0,.1,0,.22,0,.34-1.3.17-.91.81-1.37,1.91-.06,0-.11,0-.15,0Z"/>
          <path class="cls-2" d="M65.62,58.12q-.11-.25-.09-.37c.08,0,.17,0,.26,0,.04.11.04.21-.01.32-.06.01-.12.02-.16.04Z"/>
          <path class="cls-2" d="M68.36,57.46c-.47-1-1.44-.99-2.41-.84.03-.12.06-.23.11-.33.03,0,.06,0,.1,0,.02-.12.04-.23.05-.34-.26.02-.36.08-.59.22v.1c-.4.18-.8.36-1.22.42q-.98-.03-2.24-.17c.05-.16.1-.32.16-.48-.24-.14-.49-.28-.72-.41.01-.57-.37-.94.07-1.5.02-.63.88-.3,1.36-.55,0-.16.22-.24.27-.39-.5-.52-1.6.14-1.89-.42.02-1.02.84-.3,1.55-.63.7.02,1.39.08,2.08.05.16.17.29.39.53.39.01-.34-.01-.51-.17-.84-.14,0-.29,0-.44,0-.02.03-.03.06-.04.1-.89-.02-1.58-.51-2.39-.04-.39-.01-.89-.16-1.31-.19.12-.23.3-.93.7-.68.01.09.04.17.06.26.29.16.39-.13.52-.34.16-.07.72-.26.78-.46.03,0,.06,0,.11,0v-.1c.47-.21,1.66-.5,1.53-1.23q-.1-.08-.19-.08c-.41.51-.85.63-1.48.86,0,.03,0,.06,0,.11-.04,0-.07,0-.1,0-.02.06-.03.12-.05.19-.04,0-.07,0-.11,0,0,.03,0,.06,0,.11-.07,0-.13.03-.19.04,0,.03,0,.06,0,.1-.59.28-1.29.07-1.62-.43.05-2.13.51-4.2.86-6.3-.38-.05-.62-.34-.95-.49-.38-.08-.76-.15-1.12-.21q-.34.03-1.42.37s0,.06,0,.1c-.36-.01-.65.87-.95.76,0-.21.02-.24.14-.39-.02-.1-.05-.17-.15-.21,0-.09,0-.16,0-.23.09-.07.19-.12.3-.18,0-.1,0-.2,0-.31-.12-.06-.23-.11-.34-.15.01-.06.03-.12.05-.16.58-.1.68-.86.46-1.31,0-.09,0-.18.02-.26.06-.03.12-.06.19-.08.12-.67.32-1.09.92-1.46.18-.18.33-.44.58-.51v-.1c1.01-.65,2.17-1.06,3.29-1.46q.05-.13.26-.29c.15-.86.55-1.65.78-2.49.15.05-.05.72-.05.8h-.1c-.08.67-.2,1.21-.46,1.81.18.48,1.32.76,1.81.92.89.02,1.63-.05,2.2.72.74.57,1.59,1.04,2.04,1.93.55.29.3,1.37.29,1.86.26.95.46,1.94.95,2.79,0,.09,0,.19.02.29-.07,0-.15,0-.2,0,.08.35.16.44.2.6-.37.38-.05.57.31.75-.07,1.06-.33,2.11-.36,3.17q-.24.78-.49,1.3c-.23.11-.32.55-.41.78q-1.2,1.43-1.25,1.56s-.09.01-.12.03c0,.23-1.44,1.23-1.84,1.57q-.11.2-.1.3c.13.06.32.04.47,0,.15-.3.76-.43.92-.74.55-.37,1.13-1.01,1.51-1.54h.09c.41-.56.8-1.15,1.15-1.73.77.09-.04,3.05-.79,3.39-.37.63-.79,1.22-1.11,1.89-.12.17-.21.38-.42.42Z"/>
          <path class="cls-2" d="M70.6,57.31c-.17-.02-.35-.04-.53-.06,0-.04.02-.09.03-.12,1.14-.12,2.33-.04,3.47-.02.02.02.03.03.06.06-1.01-.01-2.03.11-3.04.13Z"/>
          <path class="cls-2" d="M70.61,56.79s0-.07,0-.1c.25-.04.32-.05.58.02,0,.02,0,.06,0,.1-.2,0-.39,0-.58-.01Z"/>
          <path class="cls-2" d="M61.58,56.36c-.67-.12-1.51-.94-1.65-1.59.67.02.85,1.01,1.38,1.23.02.03.03.08.04.12.08.03.19.06.29.09-.03.05-.05.09-.07.15Z"/>
          <path class="cls-2" d="M71.64,56.46q-.33-.08-.72-.11c0-.07,0-.14,0-.21,1.6.04,3.21-.06,4.81.04v.09q-2.16.06-4.09.19Z"/>
          <path class="cls-2" d="M73.7,55.79s-.03-.04-.04-.06q-1.42-.05-1.62-.12c0-.06-.03-.11-.03-.16.77.03,1.54.04,2.33.06,0,.04.02.1.03.16.09.03.17.06.26.11-.32,0-.63,0-.93,0Z"/>
          <path class="cls-2" d="M59.49,52.47c-.06-.4-.04-1.31-.11-1.56-.07,0-.13,0-.19,0-.03.06-.06.13-.09.2-.06.01-.12.03-.16.04-.06-.51-.09-1.01-.08-1.51-.3-.31-.13-.87-.05-1.22-.1-.04-.2-.07-.3-.1-.02-.43-.04-.83-.04-1.24-.04-.02-.07-.03-.1-.03q-.03-.13.07-.54c-.08-.36.03-.58-.13-.91.04-.1.11-.19.17-.27.35.04.38.45.75.38.01-.1.03-.2.05-.29-.2-.12-.4-.24-.59-.35,0-.05,0-.09,0-.12.72-.33.67-.45,1.32.07.13-.01.26-.03.41-.02.11-.17.16-.33.22-.54.06,0,.12,0,.18,0,.05.17.14.24.27.34,0,.42-.1.84-.2,1.23-.03.99,0,2.04-.26,3q-.3.43-.41.68c-.04.51-.31,2.63-.73,2.75Z"/>
          <path class="cls-2" d="M71.47,49.96c-.06-.03-.1-.05-.14-.06,0-.03,0-.06,0-.09-.04,0-.07,0-.1,0q.22-1.85.3-2.03c.07.02.16.03.25.05.16.61.51-.09.68-.32q.22-.11.35-.24c.03-.73-.07-1.36.2-2.04.09,0,.19,0,.29,0,.15.92-.46,1.94-.44,2.9.06,0,.11,0,.18,0,.22-.88.47-1.77.7-2.65.01-.36-.09-.63-.19-.97-.46-.22-.49-.26-.32-.71.52-.17.58.11.79.52-.02.92.16,3.67-.89,4.15-.44.44-1,1.42-1.66,1.48Z"/>
          <path class="cls-4" d="M71.77,49.47c-.04-.41.08-.55.31-.87.03,0,.06,0,.1,0,.06-.22.29-.27.46-.36q.1.13.1.22c-.47.37-.6.41-.77.91-.07.03-.15.06-.2.08Z"/>
          <path class="cls-4" d="M65.36,49.27c-.32-.17-.65-.86-.67-1.2.13,0,.27,0,.41.02.18.31.47.74.41,1.14-.06,0-.11.03-.15.04Z"/>
          <path class="cls-4" d="M55.69,48.98c-.12-.25-.41-.46-.34-.75.06,0,.12,0,.19,0,.11.22.22.38.41.54,0,.06,0,.12,0,.17-.09.02-.18.03-.25.04Z"/>
          <path class="cls-4" d="M64.81,46c-.41-.29-.42-.71-.47-1.18-.43-.27-.69-1.14-.59-1.62.42-.21.88-.26,1.32-.35,1.14,0,3.01-.19,3.33,1.24-.26-.1-.46-.26-.68-.44-.4-.04-.87-.05-1.24-.22-.57.03-1.14.07-1.7.12q-.05.16-.03.31c1.28.06,2.1.26,3.24.78.13.03.26.05.39.09,0,.07,0,.16,0,.25-.62.17-.72.26-.99.31-.32-1.41-.69.19-1.46-.42-.09-.18-.17-.36-.25-.52-.08,0-.15,0-.22,0q-.12.21-.14.36h-.1v.08c-.65.12-.49.24-.31.8,0,.12,0,.25,0,.38-.05.01-.07.02-.1.04Z"/>
          <path class="cls-2" d="M57.68,45.28c0-.26.07-.42.19-.63.48.01.09.59-.19.63Z"/>
          <path class="cls-2" d="M60.27,44.57v-.06h.1s0,.03,0,.06c-.03,0-.06,0-.1,0Z"/>
          <path class="cls-2" d="M58.52,44.47c.17-.91,1.47-1.13,2.21-.82,0,.09,0,.19,0,.29-.85,0-1.42.21-2.2.53Z"/>
          <path class="cls-2" d="M71.06,44.78c-.47-.42-.94-2.08-.82-2.57.36.11.41.7.44,1.02.11.31.61,1.21.53,1.52-.06.01-.12.02-.16.04Z"/>
          <path class="cls-2" d="M66.49,44.58s-.02-.06-.04-.07c.04-.01.09-.01.14,0-.04.03-.08.05-.11.08Z"/>
          <path class="cls-2" d="M72.14,44.66c-.11-.28-.24-.38-.5-.53-.18-.43-.59-.9-.68-1.33.06,0,.12.02.18.04.38.63,1.24,1.02,1.3,1.8-.1.01-.21.02-.29.03Z"/>
          <path class="cls-2" d="M67.92,38.2c-.59-.45-1.17-.49-1.88-.57-.33-.18-.65-.44-1.01-.52,0-.19,0-.38,0-.55.85.02,1.29.31,2.01.74q.99.75,1.06.87c-.06.01-.12.03-.17.04Z"/>
          <path class="cls-2" d="M60.26,37.37c-.06-.02-.1-.03-.15-.05-.02-.04-.03-.09-.04-.12q-.25-.07-.44-.04c0-.07,0-.13,0-.19.19-.04.38-.06.59-.09,0-.07,0-.14,0-.2-.12-.02-.23-.03-.35-.05.15-.35.68-.45,1.03-.5.02.23.05.47.07.7q.2.15.49.27c0,.07,0,.16,0,.25-.41-.01-.82-.06-1.21.02Z"/>
          <path class="cls-2" d="M67.88,37.41q-.11-.1-.79-.41c-.57-.5-1.54-.77-2.25-1.1-.01-.06-.03-.12-.03-.16.98.16,1.88.61,2.72,1.13q.43.34.53.49c-.06.01-.12.02-.18.05Z"/>
          <path class="cls-2" d="M67.61,36.68c-.5-.49-1.16-.7-1.69-1.12.39.01,1.34.41,1.46.78.04.02.1.03.16.05v.1q.09.02.18.2s-.07,0-.11,0Z"/>
          <path class="cls-2" d="M59.26,36.38c-.02-.06-.01-.12-.01-.16.05,0,.11,0,.16,0,.01.02.02.05.04.1-.07.01-.13.03-.19.05Z"/>
          <path class="cls-2" d="M68.26,36.36c-.21-.14-.32-.17-.58-.23-.4-.38-.82-.62-1.29-.88v-.1s-.07,0-.1,0v-.1q-.32-.15-.31-.21c.39-.02.99.13,1.38.2v.1s.07.02.11.03c.31.39.87.69.93,1.21-.06,0-.1,0-.15,0Z"/>
          <path class="cls-2" d="M59.95,35.96c-.04-.07-.07-.15-.09-.21.68-.35,1.18-.55,1.95-.58-.15.65-1.31.65-1.86.78Z"/>
          <path class="cls-2" d="M59.09,35.65q0-.05.19-.1v.1c-.07,0-.13,0-.19,0Z"/>
          <path class="cls-2" d="M59.72,35.46q-.07-.26-.03-.38c.66.02,1.31-.65,2.02-.4.02.03.03.06.04.1-.36.2-.8.26-1.19.34-.28.14-.53.28-.84.34Z"/>
          <path class="cls-2" d="M68.22,35.48c-.5-.43-.88-.79-1.53-1-.17-.22-.32-.29-.54-.42.01-.04.03-.07.04-.1.41.01.7-.04,1.06.17,0,.12,0,.24.02.36.37.22.82.52,1.21.7-.03.07-.07.16-.09.25-.06.02-.12.03-.16.04Z"/>
          <path class="cls-2" d="M65.41,35.22c-.13-.05-.26-.08-.39-.11,0-.04,0-.07,0-.1.26,0,.73-.1.83.22-.15,0-.29,0-.44,0Z"/>
          <path class="cls-2" d="M59.74,34.79c0-.08,0-.14,0-.2.29-.11.59-.22.88-.31,0-.07,0-.14,0-.2-.13,0-.39.12-1.23.3,0-.06,0-.1,0-.15q.16-.11,2.27-.83c.13.01.26.05.39.08-.07.22-.17.36-.32.83q-.25.07-1.09.13c-.3.14-.59.28-.92.35Z"/>
          <path class="cls-2" d="M68.1,34.46c-.13-.05-.24-.08-.36-.11-.01-.08-.02-.15-.02-.2.24-.11.59.06.64.32-.09,0-.17,0-.25,0Z"/>
        </g>
      </g>
      <rect class="cls-3" x="19.42" y="1.25" width=".5" height="5.27"/>
      <polygon class="cls-3" points="26.53 5.6 22.04 1.07 22.04 6.52 22.54 6.52 22.54 2.24 27.03 6.8 27.03 1.25 26.53 1.25 26.53 5.6"/>
      <path class="cls-3" d="M30.53,6.59c.95,0,1.75-.71,1.75-1.56,0-.47-.2-.82-.65-1.09l-1.03-.51-.04-.02c-.41-.19-.88-.39-.88-.87,0-.5.41-.9.93-.9.43,0,.77.19,1.02.57l.05.07.36-.29-.04-.06c-.27-.46-.8-.76-1.37-.76-.84,0-1.45.57-1.45,1.37,0,.42.2.75.6.98l.96.49.09.05c.44.2.94.43.94.92,0,.62-.56,1.13-1.24,1.13s-1.05-.48-1.22-.88l-.03-.08-.44.19.03.07c.27.71.9,1.15,1.65,1.15Z"/>
      <polygon class="cls-3" points="34.99 6.52 35.49 6.52 35.49 1.71 36.88 1.71 36.88 1.25 33.61 1.25 33.61 1.71 34.99 1.71 34.99 6.52"/>
      <rect class="cls-3" x="38.47" y="1.25" width=".49" height="5.27"/>
      <polygon class="cls-3" points="40.56 1.71 41.94 1.71 41.94 6.52 42.44 6.52 42.44 1.71 43.82 1.71 43.82 1.25 40.56 1.25 40.56 1.71"/>
      <path class="cls-3" d="M47.26,6.59c.59,0,1.15-.23,1.51-.63.38-.45.38-.91.38-1.45V1.25h-.5v3.17c0,.45,0,.92-.26,1.24-.26.32-.77.47-1.13.47s-.88-.15-1.14-.47c-.26-.32-.26-.79-.26-1.24V1.25h-.5v3.27c0,.54,0,1,.39,1.45.36.39.92.62,1.51.62Z"/>
      <polygon class="cls-3" points="50.7 1.71 52.08 1.71 52.08 6.52 52.58 6.52 52.58 1.71 53.96 1.71 53.96 1.25 50.7 1.25 50.7 1.71"/>
      <path class="cls-3" d="M58.09,1.18c-1.55,0-2.85,1.24-2.85,2.7s1.31,2.7,2.85,2.7,2.85-1.24,2.85-2.7-1.31-2.7-2.85-2.7ZM58.09,6.13c-1.28,0-2.35-1.03-2.35-2.24s1.08-2.24,2.35-2.24,2.35,1.03,2.35,2.24-1.08,2.24-2.35,2.24Z"/>
      <path class="cls-3" d="M70.03,3.89c0-.77-.31-1.47-.88-1.98-.62-.55-1.26-.66-2.04-.66h-1.04v5.27h1.04c.68,0,1.4-.08,2.07-.7.54-.5.84-1.19.84-1.93ZM66.58,1.71h.53c.75,0,1.24.16,1.68.54.48.42.75,1.01.75,1.64,0,.59-.25,1.15-.68,1.57-.45.42-.96.6-1.74.6h-.53V1.71Z"/>
      <polygon class="cls-3" points="74.54 6.06 72.33 6.06 72.33 3.88 74.49 3.88 74.49 3.41 72.33 3.41 72.33 1.71 74.54 1.71 74.54 1.25 71.83 1.25 71.83 6.52 74.54 6.52 74.54 6.06"/>
      <polygon class="cls-3" points="82.6 6.06 80.39 6.06 80.39 3.88 82.55 3.88 82.55 3.41 80.39 3.41 80.39 1.71 82.6 1.71 82.6 1.25 79.9 1.25 79.9 6.52 82.6 6.52 82.6 6.06"/>
      <polygon class="cls-3" points="89.11 5.6 84.62 1.07 84.62 6.52 85.12 6.52 85.12 2.24 89.61 6.8 89.61 1.25 89.11 1.25 89.11 5.6"/>
      <path class="cls-3" d="M93.13,6.13c-.71,0-1.05-.48-1.22-.88l-.03-.08-.44.19.02.07c.27.71.9,1.15,1.65,1.15.95,0,1.75-.71,1.75-1.56,0-.47-.21-.82-.65-1.09l-1.03-.51-.04-.02c-.41-.19-.88-.39-.88-.87,0-.5.41-.9.93-.9.43,0,.77.19,1.02.57l.05.07.36-.29-.03-.06c-.26-.46-.81-.76-1.37-.76-.83,0-1.44.57-1.44,1.37,0,.42.2.75.6.98l.97.49.1.05c.44.2.94.43.94.92,0,.62-.56,1.13-1.24,1.13Z"/>
      <polygon class="cls-3" points="99.43 6.06 97.22 6.06 97.22 3.88 99.38 3.88 99.38 3.41 97.22 3.41 97.22 1.71 99.43 1.71 99.43 1.25 96.72 1.25 96.72 6.52 99.43 6.52 99.43 6.06"/>
      <path class="cls-3" d="M103.21.75c.05-.16.13-.23.24-.23.12,0,.29.06.45.13.18.07.36.14.49.14.3,0,.58-.22.65-.5l.02-.05-.34-.24-.03.1c-.04.11-.13.23-.27.23-.09,0-.2-.04-.32-.09-.03-.02-.07-.03-.11-.05-.16-.06-.34-.13-.52-.13-.31,0-.53.26-.63.48l-.03.06.35.25.04-.1Z"/>
      <polygon class="cls-3" points="106.44 1.25 105.94 1.25 105.94 5.6 101.45 1.07 101.45 6.52 101.96 6.52 101.96 2.24 106.44 6.8 106.44 1.25"/>
      <path class="cls-3" d="M112.18,6.52h.52l-2.35-5.57-2.36,5.57h.52l.72-1.68h2.24l.72,1.68ZM111.27,4.38h-1.85l.93-2.19.92,2.19Z"/>
      <polygon class="cls-3" points="114.74 2.24 119.23 6.8 119.23 1.25 118.73 1.25 118.73 5.6 114.25 1.07 114.25 6.52 114.74 6.52 114.74 2.24"/>
      <polygon class="cls-3" points="121.18 1.25 121.18 1.71 124.06 1.71 120.79 6.52 124.79 6.52 124.79 6.06 121.69 6.06 124.95 1.25 121.18 1.25"/>
      <path class="cls-3" d="M128.3.95l-2.36,5.57h.52l.72-1.68h2.24l.72,1.68h.52l-2.35-5.57ZM129.22,4.38h-1.85l.93-2.19.92,2.19Z"/>
    </g>
  </g>
</svg>