<svg version="1.2" xmlns="http://www.w3.org/2000/svg" viewBox="0 0 131 148" width="131" height="148">
	<style>
		.s0 { fill: #bbbdb2 } 
		.s1 { fill: #9cb8c7 } 
		.s2 { fill: #fefefe } 
	</style>
	<g id="&lt;Group&gt;">
		<g id="&lt;Group&gt;">
			<path id="&lt;Path&gt;" class="s0" d="m34.54 93.68h31.52c0-17.37-14.11-31.89-31.42-31.89z"/>
		</g>
		<g id="&lt;Group&gt;">
			<path id="&lt;Path&gt;" class="s1" d="m1.03 93.63l33.55 0.07c0 17.44-15.08 31.57-33.68 31.57z"/>
		</g>
		<g id="&lt;Group&gt;">
			<path id="&lt;Path&gt;" class="s2" d="m67.75 0.15v-0.02h-66.77v31.18h0.09c0.57 16.96 15.37 30.49 33.57 30.49l-0.2-30.49h31.52v0.17h1.82c17.15 0.14 31.01 14.08 31.01 31.26 0 17.26-14 31.26-31.26 31.26q-0.79-0.01-1.57-0.05v31.35q0.64 0.03 1.29 0.04c34.57 0 62.6-28.03 62.6-62.6 0-34.41-27.76-62.32-62.1-62.59z"/>
		</g>
		<g id="&lt;Group&gt;">
			<path id="&lt;Compound Path&gt;" fill-rule="evenodd" class="s2" d="m1.08 132.84h4.63c5.08 0.01 7.18 1.33 7.18 6.44-0.01 5.03-2.18 6.45-7.26 6.45l-4.56-0.01zm4.71 10.41c3.51 0 4.23-1.06 4.23-3.96 0-2.91-0.59-3.88-4.28-3.89h-1.81v7.85z"/>
			<path id="&lt;Compound Path&gt;" fill-rule="evenodd" class="s2" d="m18.38 132.76l2.89 0.01 5.19 12.97h-2.96l-0.83-2.12-5.84-0.01-0.84 2.13-2.78-0.01zm3.38 8.51l-2.01-5.13-2.02 5.13z"/>
			<path id="&lt;Compound Path&gt;" class="s2" d="m33.19 141.11l-3.07 4.64-3.14-0.01 4.73-6.76-4.24-6.12h3.2l2.77 3.97 2.61-3.97 3.14 0.01-4.3 6.06 4.76 6.82h-3.23z"/>
			<path id="&lt;Compound Path&gt;" class="s2" d="m40.73 144.4l0.89-1.36c1.49 0.98 3.04 1.34 4.6 1.34 2.63 0.01 3.62-0.67 3.62-2.24 0-1.6-1.4-1.86-3.63-2.23-2.96-0.48-4.8-0.99-4.8-3.67 0-2.59 1.62-3.58 4.84-3.58 2.17 0 3.67 0.51 4.69 1.19l-0.95 1.44c-0.89-0.59-2.3-1.01-3.74-1.01-2.23 0-3.1 0.57-3.1 1.93 0 1.46 1.27 1.74 3.5 2.12 2.88 0.49 4.93 0.93 4.93 3.73 0 2.57-1.58 3.87-5.31 3.87-2.1 0-3.94-0.45-5.54-1.53z"/>
			<path id="&lt;Compound Path&gt;" fill-rule="evenodd" class="s2" d="m57.53 132.79h1.79l5.16 12.98h-1.81l-1.06-2.71-6.43-0.01-1.07 2.71h-1.75zm3.45 8.65l-2.6-6.54-2.62 6.53z"/>
			<path id="&lt;Compound Path&gt;" class="s2" d="m66.33 132.89h1.75v11.27h6.71v1.62l-8.47-0.01z"/>
			<path id="&lt;Compound Path&gt;" class="s2" d="m76.2 141.05v-8.16h1.76l-0.01 7.95c0 2.11 0.64 3.51 3.72 3.52 3.1 0 3.79-1.37 3.8-3.51v-7.95h1.71l-0.01 8.16c0 2.54-0.72 4.95-5.52 4.95-4.8 0-5.45-2.44-5.45-4.96z"/>
			<path id="&lt;Compound Path&gt;" fill-rule="evenodd" class="s2" d="m89.99 132.9l4.31 0.01c4.91 0 6.76 1.43 6.76 6.44 0 4.92-2.04 6.45-6.96 6.44h-4.12zm4.2 11.27c3.91 0 5.09-1.28 5.1-4.83 0-3.6-0.99-4.77-4.97-4.77h-2.58v9.6z"/>
		</g>
	</g>
</svg>