<svg version="1.2" xmlns="http://www.w3.org/2000/svg" viewBox="0 0 224 175" width="224" height="175">
	<title>Proyecto nuevo</title>
	<style>
		.s0 { fill: #fefefe } 
		.s1 { fill: #aacf37 } 
	</style>
	<g id="&lt;Group&gt;">
		<g id="&lt;Group&gt;">
			<g id="&lt;Group&gt;">
				<path id="&lt;Compound Path&gt;" class="s0" d="m7.2 136.3l1.2-1.4c2.7 2.5 5.2 3.7 8.9 3.7 3.7 0 6.2-2.1 6.2-4.9v-0.1c0-2.6-1.4-4.1-7-5.2-5.9-1.2-8.3-3.2-8.3-6.9v-0.1c0-3.7 3.4-6.5 7.9-6.5 3.6 0 6 1 8.5 3l-1.2 1.4c-2.3-2-4.6-2.7-7.3-2.7-3.7 0-6 2-6 4.6v0.1c0 2.6 1.3 4.2 7.1 5.4 5.7 1.1 8.1 3.2 8.1 6.8 0 4-3.4 6.8-8.1 6.8-4 0-7-1.3-10-4z"/>
				<path id="&lt;Compound Path&gt;" fill-rule="evenodd" class="s0" d="m30.3 127.7v-0.1c0-6.7 4.9-12.8 12.4-12.8 7.5 0 12.4 6 12.4 12.7v0.1c0 6.7-5 12.7-12.5 12.7-7.4 0-12.3-5.9-12.3-12.6zm22.9 0v-0.1c0-6.1-4.5-11.1-10.6-11.1-6.1 0-10.4 4.9-10.4 11v0.1c0 6.1 4.4 11.1 10.5 11.1 6.1 0 10.5-5 10.5-11z"/>
				<path id="&lt;Compound Path&gt;" class="s0" d="m60.2 127.7v-0.1c0-7 5.2-12.8 12.3-12.8 4.4 0 7.1 1.7 9.6 4l-1.3 1.3c-2.1-2.1-4.6-3.6-8.3-3.6-5.9 0-10.4 4.8-10.4 11v0.1c0 6.2 4.5 11.1 10.4 11.1 3.6 0 6-1.4 8.5-3.9l1.2 1.2c-2.6 2.6-5.4 4.3-9.7 4.3-7.1 0-12.3-5.6-12.3-12.6z"/>
				<path id="&lt;Compound Path&gt;" class="s0" d="m87.5 115.3h1.9v24.6h-1.9z"/>
				<path id="&lt;Compound Path&gt;" fill-rule="evenodd" class="s0" d="m106.3 115.1h1.8l11.4 24.8h-2l-3.1-6.9h-14.5l-3.2 6.9h-1.9zm7.3 16.3l-6.4-14.3-6.5 14.3z"/>
				<path id="&lt;Compound Path&gt;" class="s0" d="m124.8 115.3h1.8v22.9h14.5v1.7h-16.3z"/>
				<path id="&lt;Compound Path&gt;" class="s1" d="m146.4 115.3h2.6l15.5 19.7v-19.7h2.7v24.6h-2.2l-15.9-20.2v20.2h-2.7z"/>
				<path id="&lt;Compound Path&gt;" class="s1" d="m174.2 115.3h17.8v2.5h-15v8.4h13.4v2.5h-13.4v8.7h15.2v2.5h-18z"/>
				<path id="&lt;Compound Path&gt;" class="s1" d="m197.8 115.3h17.7v2.5h-14.9v8.8h13.3v2.6h-13.3v10.7h-2.8z"/>
			</g>
		</g>
		<g id="&lt;Group&gt;">
			<g id="&lt;Group&gt;">
				<path id="&lt;Compound Path&gt;" class="s0" d="m129.3 19.3c-0.4-4.4-3.7-6.6-7.1-7.7-10.4-3.6-23.3-1.2-31.8 2.5-8.8 3.9-15.9 10.3-20.1 20.9-4.2 10.7-3.5 23.7 3.3 32.1 3.8 4.7 9.4 7.7 15.4 7.9 11.1 0.3 19.8-8.2 19.6-17.7 0-1.6 0-3.5 0-5.5 0.1-9.7 5.4-18.7 14-23.1 3.5-1.9 6.8-4.8 6.7-9.4zm-40.2 64.8c0-3.2-2.6-5.7-5.7-5.7-3.2 0-5.7 2.5-5.7 5.7 0 3.1 2.5 5.6 5.7 5.6 3.1 0 5.7-2.5 5.7-5.6z"/>
			</g>
			<g id="&lt;Group&gt;">
				<path id="&lt;Path&gt;" class="s1" d="m100 78.4c8.6-4.5 13.9-13.5 14-23.1 0-2.1 0-4-0.1-5.5-0.1-9.6 8.6-18.1 19.6-17.8 6.1 0.2 11.7 3.2 15.5 7.9 6.8 8.4 7.5 21.4 3.2 32.1-4.2 10.6-11.3 17-20 20.9-8.5 3.8-21.5 6.1-31.9 2.6-3.3-1.2-6.7-3.4-7.1-7.8 0-4.5 3.3-7.5 6.8-9.3z"/>
			</g>
		</g>
		<g id="&lt;Group&gt;">
			<path id="&lt;Compound Path&gt;" class="s0" d="m45.7 160.6h-2.9v-0.6h6.5v0.6h-3v7.7h-0.6z"/>
			<path id="&lt;Compound Path&gt;" class="s0" d="m54.2 160h6v0.6h-5.3v3.2h4.8v0.6h-4.8v3.4h5.4v0.5h-6.1z"/>
			<path id="&lt;Compound Path&gt;" fill-rule="evenodd" class="s0" d="m65.4 160h3.5c1 0 1.8 0.3 2.3 0.8 0.4 0.4 0.7 1 0.7 1.6 0 1.4-1.1 2.2-2.5 2.4l2.8 3.5h-0.8l-2.7-3.4h-2.7v3.4h-0.6zm3.4 4.4c1.4 0 2.4-0.7 2.4-1.9v-0.1c0-1.1-0.9-1.8-2.4-1.8h-2.8v3.8z"/>
			<path id="&lt;Compound Path&gt;" fill-rule="evenodd" class="s0" d="m80.3 159.9h0.6l3.9 8.4h-0.7l-1.1-2.3h-4.9l-1.1 2.3h-0.6zm2.5 5.6l-2.2-4.9-2.2 4.9z"/>
			<path id="&lt;Compound Path&gt;" fill-rule="evenodd" class="s0" d="m89.6 160h3.1c1.8 0 3.1 0.9 3.1 2.5v0.1c0 1.7-1.5 2.6-3.3 2.6h-2.2v3.1h-0.7zm3 4.7c1.5 0 2.6-0.8 2.6-2v-0.1c0-1.3-1.1-2-2.6-2h-2.3v4.1z"/>
			<path id="&lt;Compound Path&gt;" class="s0" d="m100.8 160h0.6v8.3h-0.6z"/>
			<path id="&lt;Compound Path&gt;" fill-rule="evenodd" class="s0" d="m110.3 159.9h0.6l3.9 8.4h-0.7l-1.1-2.3h-4.9l-1.1 2.3h-0.6zm2.5 5.6l-2.2-4.9-2.2 4.9z"/>
			<path id="&lt;Compound Path&gt;" fill-rule="evenodd" class="s0" d="m126.3 160h3.5c1.1 0 1.9 0.3 2.4 0.8 0.4 0.4 0.6 1 0.6 1.6 0 1.4-1 2.2-2.4 2.4l2.7 3.5h-0.7l-2.7-3.4h-2.7v3.4h-0.7zm3.5 4.4c1.4 0 2.4-0.7 2.4-1.9v-0.1c0-1.1-0.9-1.8-2.4-1.8h-2.8v3.8z"/>
			<path id="&lt;Compound Path&gt;" class="s0" d="m138.1 160h5.9v0.6h-5.3v3.2h4.8v0.6h-4.8v3.4h5.4v0.5h-6z"/>
			<path id="&lt;Compound Path&gt;" class="s0" d="m149.2 160h0.6l5.7 7.3v-7.3h0.6v8.3h-0.4l-5.9-7.4v7.4h-0.6z"/>
			<path id="&lt;Compound Path&gt;" fill-rule="evenodd" class="s0" d="m164.9 159.9h0.6l3.9 8.4h-0.7l-1.1-2.3h-4.9l-1 2.3h-0.7zm2.5 5.6l-2.2-4.9-2.2 4.9z"/>
			<path id="&lt;Compound Path&gt;" class="s0" d="m174.3 160h0.6v7.8h4.9v0.5h-5.5z"/>
		</g>
	</g>
</svg>