<svg version="1.2" xmlns="http://www.w3.org/2000/svg" viewBox="0 0 220 70" width="220" height="70">
	<title>Proyecto nuevo</title>
	<style>
		.s0 { fill: #fefefe } 
	</style>
	<g id="&lt;Group&gt;">
		<g id="&lt;Group&gt;">
			<path id="&lt;Compound Path&gt;" class="s0" d="m23.5 32.1c-2.5 2.4-5.1 3.4-8.4 3.4-6.3 0-11.5-3.8-11.5-11.5 0-7.7 5.2-11.5 11.5-11.5 3.1 0 5.5 0.9 7.9 3.2l-3.4 3.6c-1.3-1.2-2.9-1.7-4.4-1.7-3.6 0-6.2 2.6-6.2 6.4 0 4.1 2.8 6.4 6.1 6.4 1.8 0 3.5-0.5 4.8-1.9z"/>
			<path id="&lt;Compound Path&gt;" fill-rule="evenodd" class="s0" d="m48 24c0 6.3-4.3 11.3-11.4 11.3-7 0-11.3-5-11.3-11.3 0-6.2 4.4-11.3 11.3-11.3 6.9 0 11.4 5.1 11.4 11.3zm-17.3 0c0 3.3 2 6.4 5.9 6.4 4 0 6-3.1 6-6.4 0-3.3-2.3-6.4-6-6.4-3.8 0-5.9 3.1-5.9 6.4z"/>
			<path id="&lt;Compound Path&gt;" class="s0" d="m67.7 34.9v-11.4c0-3.3-1.8-5.9-5.2-5.9-3.3 0-5.6 2.8-5.6 6.1v11.2h-5.3v-21.8h4.8l0.3 2.9c2.2-2.2 4.4-3.3 7.2-3.3 5.1 0 9.2 3.9 9.2 10.7v11.5z"/>
			<path id="&lt;Compound Path&gt;" class="s0" d="m96.4 32.1c-2.5 2.4-5.2 3.4-8.4 3.4-6.3 0-11.5-3.8-11.5-11.5 0-7.7 5.2-11.5 11.5-11.5 3.1 0 5.5 0.9 7.9 3.2l-3.4 3.6c-1.3-1.2-2.9-1.7-4.4-1.7-3.6 0-6.3 2.6-6.3 6.4 0 4.1 2.9 6.4 6.2 6.4 1.7 0 3.5-0.5 4.8-1.9z"/>
			<path id="&lt;Compound Path&gt;" fill-rule="evenodd" class="s0" d="m98.3 7c0 4.2 6.4 4.2 6.4 0 0-4.2-6.4-4.2-6.4 0zm0.5 27.9h5.4v-21.9h-5.4z"/>
			<path id="&lt;Compound Path&gt;" fill-rule="evenodd" class="s0" d="m113.6 25.9c0.4 2.7 2.7 4.6 6.5 4.6 2 0 4.6-0.7 5.8-2l3.5 3.4c-2.3 2.4-6.1 3.5-9.4 3.5-7.5 0-11.9-4.6-11.9-11.6 0-6.6 4.5-11.4 11.5-11.4 7.3 0 11.9 4.5 11 13.5zm11.8-4.5c-0.3-2.8-2.5-4.2-5.6-4.2-2.9 0-5.3 1.4-6.1 4.2z"/>
			<path id="&lt;Compound Path&gt;" class="s0" d="m150.8 34.9v-11.4c0-3.3-1.8-5.9-5.3-5.9-3.3 0-5.5 2.8-5.5 6.1v11.2h-5.4v-21.8h4.8l0.4 2.9c2.2-2.2 4.4-3.3 7.2-3.3 5.1 0 9.2 3.9 9.2 10.7v11.5z"/>
			<path id="&lt;Compound Path&gt;" class="s0" d="m179.5 32.1c-2.5 2.4-5.2 3.4-8.4 3.4-6.3 0-11.6-3.8-11.6-11.5 0-7.7 5.3-11.5 11.6-11.5 3.1 0 5.5 0.9 7.9 3.2l-3.4 3.6c-1.3-1.2-2.9-1.7-4.4-1.7-3.6 0-6.3 2.6-6.3 6.4 0 4.1 2.8 6.4 6.2 6.4 1.7 0 3.4-0.5 4.8-1.9z"/>
			<path id="&lt;Compound Path&gt;" fill-rule="evenodd" class="s0" d="m181.4 7c0 4.2 6.3 4.2 6.3 0 0-4.2-6.3-4.2-6.3 0zm0.5 27.9h5.4v-21.9h-5.4z"/>
			<path id="&lt;Compound Path&gt;" fill-rule="evenodd" class="s0" d="m209.4 13.1h5.1v21.8h-5l-0.3-3.2c-1.2 2.5-4.6 3.8-7.1 3.8-6.4 0.1-11.2-3.9-11.2-11.5 0-7.5 5-11.5 11.4-11.4 2.9 0 5.7 1.3 6.9 3.5zm-13.1 10.9c0 4.1 2.9 6.6 6.5 6.6 8.4 0 8.4-13.2 0-13.2-3.6 0-6.5 2.4-6.5 6.6z"/>
		</g>
		<g id="&lt;Group&gt;">
			<path id="&lt;Compound Path&gt;" fill-rule="evenodd" class="s0" d="m73 59.9h-9.2l-1.5 3.4h-3.6l7.9-17.7h3.7l7.9 17.7h-3.7zm-4.6-10.6l-3.3 7.5h6.6z"/>
			<path id="&lt;Compound Path&gt;" class="s0" d="m90.3 49.9c-0.6-1-2.3-2-4.2-2-2.5 0-3.7 1-3.7 2.4 0 1.5 1.9 1.9 4 2.2 3.7 0.4 7.1 1.4 7.1 5.6 0 3.9-3.5 5.6-7.4 5.6-3.6 0-6.4-1.1-7.7-4.3l2.8-1.5c0.7 2 2.8 2.8 4.9 2.8 2.1 0 4.1-0.7 4.1-2.6 0-1.7-1.8-2.4-4.1-2.6-3.6-0.4-6.9-1.4-6.9-5.3 0-3.7 3.5-5.2 6.8-5.2 2.7 0 5.6 0.8 6.9 3.5z"/>
			<path id="&lt;Compound Path&gt;" class="s0" d="m100.6 48.6h-5.6v-3c5.1 0 9.4 0 14.5 0v3h-5.6v14.7h-3.3z"/>
			<path id="&lt;Compound Path&gt;" fill-rule="evenodd" class="s0" d="m127.2 63.3h-4l-5.1-5.9h-3.2v5.9h-3.3v-17.7q4.2 0 8.3 0c4.2 0 6.4 2.8 6.4 5.9 0 2.4-1.1 4.8-4.5 5.5l5.4 6zm-12.3-14.5v5.6h5c2.2 0 3.1-1.4 3.1-2.8 0-1.4-1-2.8-3.1-2.8z"/>
			<path id="&lt;Compound Path&gt;" fill-rule="evenodd" class="s0" d="m141.1 59.9h-9.3l-1.5 3.4h-3.6l7.9-17.7h3.7l7.9 17.7h-3.7zm-4.6-10.6l-3.2 7.5h6.5z"/>
			<path id="&lt;Compound Path&gt;" class="s0" d="m151.3 45.6v14.6h9v3.1h-12.4v-17.7z"/>
		</g>
	</g>
</svg>