<svg version="1.2" xmlns="http://www.w3.org/2000/svg" viewBox="0 0 150 161" width="150" height="161">
	<style>
		.s0 { fill: #fefefe } 
	</style>
	<g id="&lt;Group&gt;">
		<path id="&lt;Compound Path&gt;" fill-rule="evenodd" class="s0" d="m24.76 123.56c0 0.43-0.29 0.72-0.68 0.72-0.4 0-0.72-0.29-0.72-0.72v-2.64c-1.25 1.91-3.09 3.58-5.96 3.58-3.5 0-7.06-2.81-7.06-7.53v-0.06c0-4.72 3.56-7.59 7.06-7.59 2.89 0 4.77 1.65 5.96 3.47v-8.78c0-0.43 0.29-0.71 0.69-0.71 0.39 0 0.71 0.28 0.71 0.71zm-12.91-6.71v0.05c0 3.81 2.65 6.26 5.69 6.26 3.01 0 5.91-2.53 5.91-6.23v-0.05c0-3.73-2.9-6.23-5.91-6.23-3.16 0-5.69 2.3-5.69 6.2z"/>
		<path id="&lt;Compound Path&gt;" class="s0" d="m30.04 110.26c0-0.4 0.29-0.71 0.69-0.71 0.39 0 0.71 0.28 0.71 0.71v3.53c1.25-2.82 3.78-4.35 5.82-4.35 0.43 0 0.74 0.34 0.74 0.76 0 0.4-0.28 0.74-0.74 0.77-3.07 0.29-5.82 2.59-5.82 7.25v5.34c0 0.4-0.29 0.72-0.69 0.72-0.39 0-0.71-0.29-0.71-0.72z"/>
		<path id="&lt;Compound Path&gt;" fill-rule="evenodd" class="s0" d="m39.71 116.97v-0.06c0-4.06 3.16-7.59 7.48-7.59 4.29 0 7.42 3.47 7.42 7.54v0.05c0 4.07-3.16 7.59-7.48 7.59-4.29 0-7.42-3.47-7.42-7.53zm13.39 0v-0.06c0-3.49-2.62-6.28-5.97-6.28-3.44 0-5.91 2.81-5.91 6.23v0.05c0 3.5 2.61 6.29 5.97 6.29 3.44 0 5.91-2.82 5.91-6.23z"/>
		<path id="&lt;Compound Path&gt;" fill-rule="evenodd" class="s0" d="m58.93 126.78c-0.2-0.15-0.32-0.37-0.32-0.63 0-0.31 0.34-0.65 0.71-0.65 0.17 0 0.29 0.05 0.4 0.11 1.65 1.22 3.56 1.85 5.57 1.85 3.33 0 5.69-1.91 5.69-5.63v-2.1c-1.25 1.79-3.19 3.35-6.06 3.35-3.49 0-6.96-2.67-6.96-6.82v-0.06c0-4.18 3.47-6.88 6.96-6.88 2.9 0 4.87 1.54 6.06 3.24v-2.3c0-0.4 0.28-0.71 0.68-0.71 0.4 0 0.71 0.31 0.71 0.71v11.66c0 2.1-0.68 3.75-1.85 4.91-1.25 1.25-3.12 1.94-5.25 1.94-2.31 0-4.47-0.69-6.34-1.99zm12.13-10.55v-0.06c0-3.35-2.98-5.51-5.99-5.51-3.04 0-5.6 2.1-5.6 5.48v0.06c0 3.27 2.61 5.55 5.6 5.55 3.01 0 5.99-2.22 5.99-5.52z"/>
		<path id="&lt;Compound Path&gt;" class="s0" d="m89.8 123.56c0 0.4-0.29 0.72-0.69 0.72-0.39 0-0.71-0.29-0.71-0.72v-2.1c-0.96 1.71-2.58 3.04-5.23 3.04-3.66 0-5.8-2.5-5.8-5.97v-8.27c0-0.43 0.29-0.71 0.69-0.71 0.39 0 0.71 0.28 0.71 0.71v8.02c0 2.98 1.67 4.94 4.6 4.94 2.84 0 5.03-2.16 5.03-5.17v-7.79c0-0.43 0.29-0.71 0.69-0.71 0.39 0 0.71 0.28 0.71 0.71z"/>
		<path id="&lt;Compound Path&gt;" fill-rule="evenodd" class="s0" d="m101.2 124.5c-3.81 0-7.11-3.04-7.11-7.56v-0.06c0-4.2 2.96-7.56 6.88-7.56 4.06 0 6.65 3.36 6.65 7.51 0 0.34-0.34 0.65-0.68 0.65h-11.37c0.25 3.61 2.84 5.72 5.68 5.72 2.08 0 3.53-0.86 4.69-1.99 0.12-0.12 0.26-0.2 0.46-0.2 0.37 0 0.68 0.28 0.68 0.65 0 0.14-0.06 0.31-0.23 0.48-1.42 1.42-3.04 2.36-5.65 2.36zm4.91-8.27c-0.2-2.93-1.87-5.63-5.2-5.63-2.87 0-5.09 2.42-5.34 5.63z"/>
		<path id="&lt;Compound Path&gt;" class="s0" d="m111.68 110.26c0-0.4 0.29-0.71 0.69-0.71 0.4 0 0.71 0.28 0.71 0.71v3.53c1.25-2.82 3.78-4.35 5.83-4.35 0.42 0 0.73 0.34 0.73 0.76 0 0.4-0.28 0.74-0.73 0.77-3.07 0.29-5.83 2.59-5.83 7.25v5.34c0 0.4-0.29 0.72-0.68 0.72-0.4 0-0.72-0.29-0.72-0.72z"/>
		<path id="&lt;Compound Path&gt;" class="s0" d="m123.25 110.26c0-0.4 0.29-0.71 0.69-0.71 0.39 0 0.71 0.28 0.71 0.71v13.3c0 0.43-0.29 0.72-0.68 0.72-0.4 0-0.72-0.29-0.72-0.72zm0.29-3.18c0-0.11 0.06-0.23 0.11-0.31l1.77-2.65c0.22-0.34 0.45-0.51 0.79-0.51 0.54 0 1.19 0.37 1.19 0.66 0 0.17-0.14 0.34-0.31 0.51l-2.27 2.19c-0.34 0.31-0.54 0.37-0.91 0.37-0.2 0-0.37-0.12-0.37-0.26z"/>
		<path id="&lt;Compound Path&gt;" fill-rule="evenodd" class="s0" d="m128.94 119.95v-0.05c0-3.02 2.59-4.72 6.34-4.72 2.02 0 3.41 0.25 4.8 0.62v-0.62c0-2.93-1.79-4.44-4.77-4.44-1.59 0-2.93 0.4-4.12 0.97q-0.18 0.09-0.32 0.09c-0.34 0-0.65-0.32-0.65-0.66 0-0.34 0.26-0.57 0.4-0.62 1.48-0.66 2.93-1.08 4.77-1.08 1.96 0 3.53 0.54 4.58 1.59 0.97 0.96 1.48 2.3 1.48 4.09v8.44c0 0.43-0.29 0.72-0.68 0.72-0.4 0-0.69-0.29-0.69-0.72v-1.81c-0.99 1.39-2.78 2.75-5.54 2.75-2.7 0-5.6-1.53-5.6-4.55zm11.17-1.22v-1.65c-1.22-0.31-2.84-0.65-4.92-0.65-3.07 0-4.77 1.36-4.77 3.38v0.06c0 2.1 1.99 3.33 4.2 3.33 2.96 0 5.49-1.82 5.49-4.47z"/>
		<path id="&lt;Compound Path&gt;" class="s0" d="m10.57 137.5c0-1.19 0.97-2.16 2.16-2.16 1.2 0 2.16 0.97 2.16 2.16v0.69c0.63-1.48 1.65-2.85 2.93-2.85 1.34 0 2.1 0.88 2.1 2.11 0 1.13-0.73 1.82-1.62 2.02-2.18 0.51-3.41 2.18-3.41 5.25v4.04c0 1.19-0.96 2.16-2.16 2.16-1.19 0-2.16-0.97-2.16-2.16z"/>
		<path id="&lt;Compound Path&gt;" fill-rule="evenodd" class="s0" d="m21.29 143.22v-0.06c0-4.38 3.52-7.93 8.27-7.93 4.72 0 8.22 3.5 8.22 7.87v0.06c0 4.38-3.53 7.93-8.28 7.93-4.71 0-8.21-3.49-8.21-7.87zm12.22 0v-0.06c0-2.25-1.62-4.21-4.01-4.21-2.47 0-3.95 1.91-3.95 4.15v0.06c0 2.25 1.62 4.21 4.01 4.21 2.47 0 3.95-1.91 3.95-4.15z"/>
		<path id="&lt;Compound Path&gt;" fill-rule="evenodd" class="s0" d="m40.9 131.99c0-1.2 0.97-2.16 2.16-2.16 1.2 0 2.16 0.96 2.16 2.16v5.71c1.06-1.42 2.51-2.47 4.75-2.47 3.55 0 6.94 2.79 6.94 7.87v0.06c0 5.09-3.33 7.88-6.94 7.88-2.3 0-3.72-1.06-4.75-2.28v0.03c0 1.16-0.96 2.13-2.16 2.13-1.19 0-2.16-0.97-2.16-2.16zm11.69 11.17v-0.05c0-2.53-1.71-4.21-3.73-4.21-2.02 0-3.69 1.68-3.69 4.21v0.05c0 2.53 1.67 4.21 3.69 4.21 2.02 0 3.73-1.65 3.73-4.21z"/>
		<path id="&lt;Compound Path&gt;" class="s0" d="m60.29 131.99c0-1.2 0.97-2.16 2.16-2.16 1.19 0 2.16 0.96 2.16 2.16v16.77c0 1.19-0.97 2.16-2.16 2.16-1.19 0-2.16-0.97-2.16-2.16z"/>
		<path id="&lt;Compound Path&gt;" fill-rule="evenodd" class="s0" d="m75.9 151.09c-4.58 0-7.96-3.21-7.96-7.87v-0.06c0-4.35 3.09-7.93 7.53-7.93 5.09 0 7.33 4.18 7.33 7.33 0 1.25-0.88 2.08-2.02 2.08h-8.55c0.42 1.96 1.79 2.98 3.72 2.98 1.2 0 2.19-0.37 3.07-1.02 0.31-0.23 0.6-0.34 1.05-0.34 0.97 0 1.68 0.74 1.68 1.71 0 0.56-0.25 0.99-0.57 1.27-1.33 1.14-3.07 1.85-5.28 1.85zm2.78-9.15c-0.25-1.93-1.39-3.24-3.21-3.24-1.79 0-2.96 1.28-3.3 3.24z"/>
		<path id="&lt;Compound Path&gt;" class="s0" d="m85.7 149.3c-0.45-0.28-0.82-0.8-0.82-1.48 0-0.96 0.74-1.7 1.7-1.7 0.32 0 0.63 0.08 0.86 0.22 1.45 0.91 2.9 1.37 4.12 1.37 1.25 0 1.82-0.46 1.82-1.14v-0.05c0-0.94-1.48-1.26-3.16-1.77-2.13-0.62-4.55-1.62-4.55-4.57v-0.06c0-3.1 2.51-4.83 5.58-4.83 1.59 0 3.24 0.42 4.72 1.16 0.62 0.31 1.02 0.88 1.02 1.62 0 0.97-0.77 1.71-1.74 1.71-0.31 0-0.51-0.06-0.79-0.2-1.22-0.6-2.39-0.97-3.3-0.97-1.05 0-1.59 0.46-1.59 1.05v0.06c0 0.85 1.45 1.25 3.1 1.82 2.13 0.71 4.6 1.73 4.6 4.52v0.06c0 3.38-2.53 4.92-5.82 4.92-1.88 0-3.9-0.55-5.75-1.74z"/>
		<g id="&lt;Group&gt;">
			<g id="&lt;Group&gt;">
				<path id="&lt;Compound Path&gt;" fill-rule="evenodd" class="s0" d="m75.7 33.96c-0.04-11.44 0.02-14.56-0.1-26.26l7.33 0.01c0 0 0 0.44-0.01 1.16v49.42c-3.02 26.6-29.83 43.48-53.94 29.04-32.15-19.25-16.86-68.54 20.7-66.31 11.79 0.7 16.47 3.92 25.26 12.94 0.13 0.14 0.74 0.8 0.74 0.8 0.02-0.25 0.02-0.55 0.02-0.8zm0.22 22.67c0-15.89-12.89-28.78-28.78-28.78-15.9 0-28.78 12.89-28.78 28.78 0 15.9 12.88 28.78 28.78 28.78 15.89 0 28.78-12.88 28.78-28.78z"/>
			</g>
		</g>
		<g id="&lt;Group&gt;">
			<path id="&lt;Path&gt;" class="s0" d="m75.3 92.1l6.86 0.02v-19.01c-1.14 2.1-1.4 2.58-3.49 5.44-0.61 0.84-2.71 3.55-3.27 3.95z"/>
		</g>
		<path id="&lt;Path&gt;" class="s0" d="m85.57 44.88c5.12-9.96 16.46-16.01 27.64-12.94v-7.6c-7.5-1.09-14.74-0.38-21.26 3.64-1.48 0.92-5.73 4.37-6.38 5.78z"/>
		<path id="&lt;Path&gt;" class="s0" d="m99.55 85.28c0 3.52-2.86 6.39-6.39 6.39-3.53 0-6.39-2.87-6.39-6.39 0-3.53 2.86-6.4 6.39-6.4 3.53 0 6.39 2.87 6.39 6.4z"/>
	</g>
</svg>