<svg xmlns="http://www.w3.org/2000/svg" viewBox="0 0 253.91 56.93"><defs><style>.cls-1{font-size:13.79px;fill:#231f20;font-family:RobotoCondensed-Light, Roboto Condensed;font-weight:300;letter-spacing:0.08em;}.cls-2{letter-spacing:0.06em;}.cls-3{letter-spacing:0.07em;}.cls-4{letter-spacing:0.07em;}.cls-5{letter-spacing:0.08em;}.cls-6{fill:#2a869b;}</style></defs><g id="Layer_2" data-name="Layer 2"><g id="Layer_1-2" data-name="Layer 1"><text class="cls-1" transform="translate(21.91 53.19)">colonia del sac<tspan class="cls-2" x="96.3" y="0">r</tspan><tspan x="101.3" y="0">amen</tspan><tspan class="cls-3" x="135.66" y="0">t</tspan><tspan x="140.63" y="0">o - urugu</tspan><tspan class="cls-4" x="197.87" y="0">a</tspan><tspan class="cls-5" x="205.36" y="0">y</tspan></text><path class="cls-6" d="M27.55,9.28l.69,10.3h-.69Q26.17,15,23.6,12.92a9.62,9.62,0,0,0-6.17-2A10,10,0,0,0,12,12.42,10.16,10.16,0,0,0,8.14,17.3a21.74,21.74,0,0,0-1.39,8.33,17.65,17.65,0,0,0,1.32,7.13,9.9,9.9,0,0,0,4,4.63,11.45,11.45,0,0,0,6,1.61,10.38,10.38,0,0,0,5.2-1.27,17,17,0,0,0,5-5l.7.44a16,16,0,0,1-5.32,5.93A13.48,13.48,0,0,1,16.4,41Q8.87,41,4.74,35.38a16,16,0,0,1-3.09-9.79,17.32,17.32,0,0,1,2-8.33,14.64,14.64,0,0,1,5.59-5.89,15.09,15.09,0,0,1,7.79-2.09,14.18,14.18,0,0,1,6.48,1.61,3.66,3.66,0,0,0,1.34.49A1.46,1.46,0,0,0,25.94,11a3.51,3.51,0,0,0,.83-1.67Z" transform="translate(-1.65 -8.5)"/><path class="cls-6" d="M43.55,37.32a35,35,0,0,1-4,2.82,6.05,6.05,0,0,1-2.57.55,4.58,4.58,0,0,1-3.49-1.45,5.32,5.32,0,0,1-1.38-3.82,4.92,4.92,0,0,1,.67-2.59A8.9,8.9,0,0,1,36,30a49.54,49.54,0,0,1,7.54-3.26V25.9c0-2-.33-3.44-1-4.2a3.51,3.51,0,0,0-2.83-1.14,3.19,3.19,0,0,0-2.23.76,2.28,2.28,0,0,0-.85,1.74l0,1.3A2.24,2.24,0,0,1,36.19,26a1.82,1.82,0,0,1-1.38.56,1.74,1.74,0,0,1-1.35-.59,2.25,2.25,0,0,1-.52-1.58,4.56,4.56,0,0,1,2-3.53,8.5,8.5,0,0,1,5.52-1.61,9.45,9.45,0,0,1,4.47.92,4.16,4.16,0,0,1,1.94,2.16,12.1,12.1,0,0,1,.41,3.94v6.94a30.61,30.61,0,0,0,.11,3.59,1.42,1.42,0,0,0,.37.88.86.86,0,0,0,.59.23,1.24,1.24,0,0,0,.62-.16,13.21,13.21,0,0,0,1.81-1.63v1.25Q48.24,40.66,46,40.67a2.15,2.15,0,0,1-1.74-.76A4.07,4.07,0,0,1,43.55,37.32Zm0-1.45v-7.8A44.33,44.33,0,0,0,39.19,30,7.39,7.39,0,0,0,36.67,32a4,4,0,0,0-.76,2.35,3.84,3.84,0,0,0,1,2.67,2.9,2.9,0,0,0,2.21,1.06Q40.78,38.1,43.55,35.87Z" transform="translate(-1.65 -8.5)"/><path class="cls-6" d="M65.49,19.2v7h-.74a9,9,0,0,0-2.18-4.47,4.87,4.87,0,0,0-3.38-1.18,3.76,3.76,0,0,0-2.53.82,2.43,2.43,0,0,0-1,1.84,3.3,3.3,0,0,0,.72,2.14,8,8,0,0,0,2.81,1.95l3.27,1.58Q67,31.07,67,34.68a5.51,5.51,0,0,1-2.11,4.51,7.32,7.32,0,0,1-4.73,1.71,16.19,16.19,0,0,1-4.29-.68A4.66,4.66,0,0,0,54.7,40a.91.91,0,0,0-.81.58h-.73v-7.3h.73A8.39,8.39,0,0,0,56.28,38a5.78,5.78,0,0,0,4,1.59,3.51,3.51,0,0,0,2.51-.91,2.87,2.87,0,0,0,1-2.18,3.49,3.49,0,0,0-1.09-2.59,18.73,18.73,0,0,0-4.32-2.66,12.87,12.87,0,0,1-4.25-2.9,5,5,0,0,1-1-3.22A5.65,5.65,0,0,1,54.8,20.9a6.13,6.13,0,0,1,4.48-1.7,10.67,10.67,0,0,1,2.93.51,6.57,6.57,0,0,0,1.52.34.84.84,0,0,0,.55-.16,2,2,0,0,0,.47-.69Z" transform="translate(-1.65 -8.5)"/><path class="cls-6" d="M81.67,37.32a35,35,0,0,1-4,2.82,6.05,6.05,0,0,1-2.57.55,4.58,4.58,0,0,1-3.49-1.45,5.32,5.32,0,0,1-1.38-3.82,4.92,4.92,0,0,1,.67-2.59A8.82,8.82,0,0,1,74.13,30a49.54,49.54,0,0,1,7.54-3.26V25.9c0-2-.33-3.44-1-4.2a3.51,3.51,0,0,0-2.83-1.14,3.23,3.23,0,0,0-2.24.76,2.3,2.3,0,0,0-.84,1.74l0,1.3A2.24,2.24,0,0,1,74.31,26a1.82,1.82,0,0,1-1.38.56,1.74,1.74,0,0,1-1.35-.59,2.25,2.25,0,0,1-.53-1.58,4.58,4.58,0,0,1,2-3.53,8.5,8.5,0,0,1,5.52-1.61,9.45,9.45,0,0,1,4.47.92A4.16,4.16,0,0,1,85,22.28a12.19,12.19,0,0,1,.4,3.94v6.94a29.63,29.63,0,0,0,.12,3.59,1.48,1.48,0,0,0,.36.88.9.9,0,0,0,.6.23,1.24,1.24,0,0,0,.62-.16,13.21,13.21,0,0,0,1.81-1.63v1.25q-2.51,3.34-4.78,3.35a2.15,2.15,0,0,1-1.74-.76A4.07,4.07,0,0,1,81.67,37.32Zm0-1.45v-7.8A44.33,44.33,0,0,0,77.31,30,7.39,7.39,0,0,0,74.79,32,4,4,0,0,0,74,34.37,3.84,3.84,0,0,0,75,37,2.89,2.89,0,0,0,77.2,38.1Q78.9,38.1,81.67,35.87Z" transform="translate(-1.65 -8.5)"/><path class="cls-6" d="M126.19,9.28l.78,9.56h-.78a13.05,13.05,0,0,0-3.06-5.38,9.56,9.56,0,0,0-6.95-2.62,9.88,9.88,0,0,0-8.8,4.58,16.43,16.43,0,0,0-2.53,9.21,18.36,18.36,0,0,0,1.68,7.91,11.74,11.74,0,0,0,4.39,5.24,10.53,10.53,0,0,0,5.57,1.66,12.41,12.41,0,0,0,3.24-.42,12.94,12.94,0,0,0,3-1.25V29a8,8,0,0,0-.35-3A2.38,2.38,0,0,0,121.33,25a6.3,6.3,0,0,0-2.56-.37v-.85H130.5v.85h-.56a2.49,2.49,0,0,0-2.39,1.17,7.81,7.81,0,0,0-.44,3.26v9.27a22.92,22.92,0,0,1-5.08,2,21.76,21.76,0,0,1-5.56.65q-8.77,0-13.34-5.63a15,15,0,0,1-3.42-9.74,16.26,16.26,0,0,1,1.92-7.66,16.45,16.45,0,0,1,6.26-6.71,16.9,16.9,0,0,1,10.87-1.67,27.5,27.5,0,0,1,3.83,1.18,6.41,6.41,0,0,0,1.68.47.89.89,0,0,0,.72-.39,2.85,2.85,0,0,0,.37-1.53Z" transform="translate(-1.65 -8.5)"/><path class="cls-6" d="M144.18,37.32a35,35,0,0,1-4,2.82,6.05,6.05,0,0,1-2.57.55,4.58,4.58,0,0,1-3.49-1.45,5.32,5.32,0,0,1-1.38-3.82,4.83,4.83,0,0,1,.67-2.59A8.82,8.82,0,0,1,136.64,30a49.54,49.54,0,0,1,7.54-3.26V25.9c0-2-.33-3.44-1-4.2a3.53,3.53,0,0,0-2.83-1.14,3.21,3.21,0,0,0-2.24.76,2.32,2.32,0,0,0-.85,1.74l.05,1.3a2.24,2.24,0,0,1-.53,1.59,1.79,1.79,0,0,1-1.37.56,1.74,1.74,0,0,1-1.35-.59,2.25,2.25,0,0,1-.53-1.58,4.58,4.58,0,0,1,2-3.53,8.5,8.5,0,0,1,5.52-1.61,9.45,9.45,0,0,1,4.47.92,4.2,4.2,0,0,1,1.94,2.16,12.19,12.19,0,0,1,.4,3.94v6.94a29.63,29.63,0,0,0,.12,3.59,1.48,1.48,0,0,0,.36.88.9.9,0,0,0,.6.23,1.27,1.27,0,0,0,.62-.16,13.86,13.86,0,0,0,1.81-1.63v1.25q-2.51,3.34-4.78,3.35a2.15,2.15,0,0,1-1.74-.76A4.07,4.07,0,0,1,144.18,37.32Zm0-1.45v-7.8a44.33,44.33,0,0,0-4.36,1.9A7.54,7.54,0,0,0,137.29,32a4,4,0,0,0-.75,2.35,3.84,3.84,0,0,0,1,2.67,2.89,2.89,0,0,0,2.21,1.06Q141.41,38.1,144.18,35.87Z" transform="translate(-1.65 -8.5)"/><path class="cls-6" d="M158.86,23.53c2.4-2.89,4.68-4.33,6.86-4.33a4.94,4.94,0,0,1,2.88.84,5.67,5.67,0,0,1,1.92,2.76,12.67,12.67,0,0,1,.49,4.11v8.73a7.28,7.28,0,0,0,.32,2.64,1.8,1.8,0,0,0,.79.87,4.44,4.44,0,0,0,2,.32v.8H164v-.8h.42a3.39,3.39,0,0,0,2-.44,2.3,2.3,0,0,0,.8-1.29,12.9,12.9,0,0,0,.09-2.1V27.27a8.55,8.55,0,0,0-.73-4.06A2.59,2.59,0,0,0,164.15,22c-1.77,0-3.54,1-5.29,2.9V35.64a7.84,7.84,0,0,0,.24,2.57,2.06,2.06,0,0,0,.86.95,5.35,5.35,0,0,0,2.23.31v.8H152.06v-.8h.45a2.4,2.4,0,0,0,2.11-.8,5.74,5.74,0,0,0,.55-3V28.05a33,33,0,0,0-.17-4.49,2,2,0,0,0-.51-1.1,1.42,1.42,0,0,0-.93-.29,4.21,4.21,0,0,0-1.5.34l-.33-.81,6.17-2.5h1Z" transform="translate(-1.65 -8.5)"/><path class="cls-6" d="M179.21,27.51a10.54,10.54,0,0,0,2.21,7.15,6.74,6.74,0,0,0,5.26,2.59,5.72,5.72,0,0,0,3.49-1.1,8.17,8.17,0,0,0,2.49-3.79l.7.45a10.72,10.72,0,0,1-2.73,5.57A7.26,7.26,0,0,1,185,40.9,8.24,8.24,0,0,1,178.67,38,10.94,10.94,0,0,1,176,30.3q0-5.25,2.69-8.19a8.81,8.81,0,0,1,6.76-2.93,7.55,7.55,0,0,1,5.65,2.26,8.32,8.32,0,0,1,2.22,6.07Zm0-1.29h9.48a8.91,8.91,0,0,0-.47-2.78,4.5,4.5,0,0,0-1.67-2,4.19,4.19,0,0,0-2.31-.72,4.62,4.62,0,0,0-3.32,1.44A6.35,6.35,0,0,0,179.21,26.22Z" transform="translate(-1.65 -8.5)"/><path class="cls-6" d="M209.31,19.2v7h-.74a9,9,0,0,0-2.18-4.47A4.87,4.87,0,0,0,203,20.52a3.76,3.76,0,0,0-2.53.82,2.43,2.43,0,0,0-1,1.84,3.3,3.3,0,0,0,.72,2.14,8,8,0,0,0,2.81,1.95l3.27,1.58q4.53,2.22,4.53,5.83a5.51,5.51,0,0,1-2.11,4.51A7.32,7.32,0,0,1,204,40.9a16.19,16.19,0,0,1-4.29-.68,4.66,4.66,0,0,0-1.2-.22.91.91,0,0,0-.81.58H197v-7.3h.73A8.39,8.39,0,0,0,200.1,38a5.78,5.78,0,0,0,4,1.59,3.51,3.51,0,0,0,2.51-.91,2.86,2.86,0,0,0,1-2.18,3.48,3.48,0,0,0-1.08-2.59,18.73,18.73,0,0,0-4.32-2.66,12.87,12.87,0,0,1-4.25-2.9,5,5,0,0,1-1-3.22,5.65,5.65,0,0,1,1.73-4.22,6.13,6.13,0,0,1,4.48-1.7,10.67,10.67,0,0,1,2.93.51,6.63,6.63,0,0,0,1.51.34.85.85,0,0,0,.56-.16,2,2,0,0,0,.47-.69Z" transform="translate(-1.65 -8.5)"/><path class="cls-6" d="M219.9,8.5v15a17.19,17.19,0,0,1,3.93-3.5,6.21,6.21,0,0,1,2.91-.77,4.76,4.76,0,0,1,3,1,5.7,5.7,0,0,1,1.86,3A21.5,21.5,0,0,1,232,28.4v7.24a7.76,7.76,0,0,0,.31,2.66,1.79,1.79,0,0,0,.76.85,4.27,4.27,0,0,0,2,.32v.8H225v-.8h.46a3.33,3.33,0,0,0,2-.44,2.28,2.28,0,0,0,.79-1.29,19.56,19.56,0,0,0,.06-2.1V28.4A17.54,17.54,0,0,0,228,24a2.94,2.94,0,0,0-1.11-1.57A3.16,3.16,0,0,0,225,21.9a5.27,5.27,0,0,0-2.28.58,10.85,10.85,0,0,0-2.84,2.35V35.64a8.28,8.28,0,0,0,.24,2.62,1.86,1.86,0,0,0,.87.86,5,5,0,0,0,2.2.35v.8H213.06v-.8a4.57,4.57,0,0,0,2.15-.43,1.54,1.54,0,0,0,.71-.85,7.66,7.66,0,0,0,.27-2.55V17.12a29.28,29.28,0,0,0-.17-4.31,2,2,0,0,0-.51-1.1,1.42,1.42,0,0,0-.93-.29,5.44,5.44,0,0,0-1.52.36l-.31-.78,6.12-2.5Z" transform="translate(-1.65 -8.5)"/><path class="cls-6" d="M248.37,37.32a35,35,0,0,1-4,2.82,6.05,6.05,0,0,1-2.57.55,4.58,4.58,0,0,1-3.49-1.45A5.32,5.32,0,0,1,237,35.42a4.92,4.92,0,0,1,.67-2.59A8.82,8.82,0,0,1,240.83,30a49.54,49.54,0,0,1,7.54-3.26V25.9c0-2-.33-3.44-1-4.2a3.51,3.51,0,0,0-2.83-1.14,3.23,3.23,0,0,0-2.24.76,2.3,2.3,0,0,0-.84,1.74l0,1.3A2.24,2.24,0,0,1,241,26a1.79,1.79,0,0,1-1.37.56,1.74,1.74,0,0,1-1.35-.59,2.25,2.25,0,0,1-.53-1.58,4.58,4.58,0,0,1,2-3.53,8.5,8.5,0,0,1,5.52-1.61,9.45,9.45,0,0,1,4.47.92,4.2,4.2,0,0,1,1.94,2.16,12.19,12.19,0,0,1,.4,3.94v6.94a29.63,29.63,0,0,0,.12,3.59,1.48,1.48,0,0,0,.36.88.9.9,0,0,0,.6.23,1.27,1.27,0,0,0,.62-.16,13.86,13.86,0,0,0,1.81-1.63v1.25q-2.51,3.34-4.78,3.35a2.15,2.15,0,0,1-1.74-.76A4.07,4.07,0,0,1,248.37,37.32Zm0-1.45v-7.8A44.33,44.33,0,0,0,244,30,7.39,7.39,0,0,0,241.49,32a4,4,0,0,0-.76,2.35,3.84,3.84,0,0,0,1,2.67,2.89,2.89,0,0,0,2.21,1.06Q245.6,38.1,248.37,35.87Z" transform="translate(-1.65 -8.5)"/></g></g></svg>