<svg version="1.2" xmlns="http://www.w3.org/2000/svg" viewBox="0 0 220 308" width="220" height="308">
	<style>
		.s0 { fill: #181f4a } 
		.s1 { fill: #bbbdb2 } 
		.s2 { fill: #9cb8c7 } 
		.s3 { fill: #fefefe } 
	</style>
	<g id="&lt;Group&gt;">
		<path id="Path 0" class="s0" d="m106.02 2.03c-1.64 0.04-4.91 0.23-7.28 0.43-2.36 0.19-6.3 0.65-8.76 1.02-2.45 0.37-6.32 1.1-8.59 1.61-2.28 0.51-5.77 1.4-7.77 1.98-2 0.58-5.65 1.81-8.1 2.72-2.46 0.91-6.62 2.69-9.26 3.96-2.64 1.26-6.58 3.36-8.76 4.67-2.18 1.31-5.68 3.63-7.77 5.15-2.09 1.53-5.14 3.93-6.78 5.33-1.64 1.41-4.46 4.11-6.28 6-1.82 1.89-4.32 4.7-5.57 6.24-1.24 1.54-3.5 4.67-5.02 6.94-1.52 2.27-3.73 5.99-4.91 8.26-1.19 2.28-2.84 5.85-3.68 7.94-0.84 2.09-2.04 5.51-2.67 7.6-0.63 2.1-1.5 5.52-1.94 7.61-0.44 2.09-1.04 5.81-1.34 8.26-0.33 2.76-0.54 6.99-0.54 11.08 0 3.96 0.21 8.47 0.53 11.24 0.3 2.55 0.97 6.79 1.5 9.42 0.53 2.64 1.55 6.88 2.28 9.43 0.73 2.54 1.91 6.19 2.62 8.1 0.71 1.91 1.85 4.81 2.53 6.44 0.68 1.64 2.27 5.29 3.54 8.11 1.28 2.81 4.36 9.21 6.86 14.21 2.5 5 6.08 11.92 7.95 15.38 1.87 3.45 4.67 8.51 6.22 11.24 1.55 2.73 4.52 7.86 6.61 11.4 2.09 3.55 5.97 9.95 8.61 14.22 2.64 4.27 7.55 12.01 10.9 17.19 3.35 5.19 8.93 13.59 12.4 18.68 3.47 5.1 8.78 12.76 11.8 17.03 3.02 4.27 7.34 10.3 9.59 13.39 2.25 3.09 6.52 8.86 9.49 12.81 2.96 3.96 5.54 7.19 5.72 7.19 0.18 0 2.24-2.64 4.57-5.86 2.33-3.23 6.32-8.85 8.87-12.49 2.55-3.63 7.17-10.33 10.27-14.87 3.09-4.55 8.3-12.36 11.57-17.36 3.26-5 7.4-11.4 9.19-14.22 1.8-2.82 5.52-8.77 8.27-13.22 2.75-4.46 6.87-11.23 9.15-15.05 2.28-3.82 6.45-10.96 9.27-15.87 2.82-4.91 6.76-11.9 8.76-15.54 2-3.63 4.97-9.14 6.61-12.23 1.64-3.09 4.32-8.22 5.97-11.41 1.64-3.18 3.8-7.64 4.8-9.92 0.99-2.27 2.42-5.8 3.17-7.85 0.75-2.04 1.96-5.76 2.7-8.26 0.73-2.5 1.76-6.71 2.29-9.34 0.53-2.64 1.2-6.88 1.5-9.43 0.33-2.82 0.54-7.27 0.54-11.4 0.01-4.3-0.19-8.35-0.53-11.08-0.3-2.36-0.84-5.86-1.21-7.77-0.38-1.91-1.19-5.26-1.82-7.44-0.63-2.18-1.91-5.9-2.84-8.26-0.94-2.37-2.54-5.94-3.56-7.94-1.03-2-2.82-5.17-3.99-7.05-1.17-1.88-3.27-4.93-4.66-6.78-1.39-1.85-4-5-5.8-7-1.8-2-4.87-5.05-6.83-6.78-1.96-1.72-5.25-4.4-7.32-5.95-2.06-1.54-5.29-3.76-7.17-4.93-1.88-1.17-5.05-2.98-7.05-4.03-2-1.05-5.42-2.67-7.6-3.61-2.19-0.93-5.98-2.37-8.44-3.19-2.45-0.82-6.47-1.99-8.92-2.6-2.46-0.61-6.25-1.42-8.43-1.79-2.19-0.38-6.13-0.9-8.76-1.15-2.64-0.26-6.81-0.52-9.26-0.58-2.46-0.06-5.81-0.08-7.44-0.03z"/>
	</g>
	<g id="&lt;Group&gt;">
		<g id="&lt;Group&gt;">
			<path id="&lt;Path&gt;" class="s1" d="m86.54 141.68h31.52c0-17.37-14.11-31.89-31.42-31.89z"/>
		</g>
		<g id="&lt;Group&gt;">
			<path id="&lt;Path&gt;" class="s2" d="m53.03 141.63l33.55 0.07c0 17.44-15.08 31.57-33.68 31.57z"/>
		</g>
		<path id="&lt;Path&gt;" class="s3" d="m119.75 48.15v-0.02h-66.77v31.18h0.09c0.57 16.96 15.37 30.49 33.57 30.49l-0.2-30.49h31.52v0.17h1.82c17.15 0.14 31.01 14.08 31.01 31.26 0 17.26-14 31.26-31.26 31.26q-0.79-0.01-1.57-0.05v31.35q0.64 0.03 1.29 0.04c34.57 0 62.6-28.03 62.6-62.6 0-34.41-27.76-62.32-62.1-62.59z"/>
	</g>
</svg>