<svg xmlns="http://www.w3.org/2000/svg" viewBox="0 0 20.14 16.37"><defs><style>.cls-1{fill:#fff;}</style></defs><title>Recurso 5</title><g id="Capa_2" data-name="Capa 2"><g id="Layer_1" data-name="Layer 1"><path class="cls-1" d="M20.14,1.94a8.07,8.07,0,0,1-2.37.65A4.16,4.16,0,0,0,19.59.3a8.21,8.21,0,0,1-2.63,1,4.13,4.13,0,0,0-7,3.76A11.72,11.72,0,0,1,1.4.76,4.07,4.07,0,0,0,.84,2.84,4.12,4.12,0,0,0,2.68,6.27,4.08,4.08,0,0,1,.81,5.76v0A4.14,4.14,0,0,0,4.12,9.86,3.88,3.88,0,0,1,3,10a3.94,3.94,0,0,1-.77-.08A4.13,4.13,0,0,0,6.12,12.8,8.31,8.31,0,0,1,1,14.57a7.93,7.93,0,0,1-1-.06,11.63,11.63,0,0,0,6.33,1.86A11.68,11.68,0,0,0,18.09,4.61c0-.17,0-.36,0-.53A8.38,8.38,0,0,0,20.14,1.94Z"/></g></g></svg>