<svg xmlns="http://www.w3.org/2000/svg" viewBox="0 0 24.04 16.82"><defs><style>.cls-1{fill:#fff;}.cls-2{fill:#a4a3a3;fill-rule:evenodd;}</style></defs><g id="Layer_2" data-name="Layer 2"><g id="Layer_1-2" data-name="Layer 1"><path class="cls-1" d="M20.77,16.64s-6.56.18-8.75.18-8.75-.18-8.75-.18A3.1,3.1,0,0,1,.18,13.56S0,9.7,0,8.41.18,3.27.18,3.27A3.1,3.1,0,0,1,3.27.18S9.83,0,12,0s8.75.18,8.75.18a3.1,3.1,0,0,1,3.09,3.09S24,7.12,24,8.41s-.18,5.15-.18,5.15A3.1,3.1,0,0,1,20.77,16.64Z"/><polygon class="cls-2" points="9.72 12.17 9.72 4.65 15.79 8.41 9.72 12.17"/></g></g></svg>